HubotSans-ExtraLightWide.ufo
<glyph name="exclam" format="2">
  <advance width="184"/>
  <unicode hex="0021"/>
  <outline>
    <contour>
      <point x="82" y="191" type="line"/>
      <point x="102" y="191" type="line"/>
      <point x="111" y="490" type="line"/>
      <point x="111" y="729" type="line"/>
      <point x="73" y="729" type="line"/>
      <point x="73" y="490" type="line"/>
    </contour>
    <contour>
      <point x="70" y="0" type="line"/>
      <point x="115" y="0" type="line"/>
      <point x="115" y="64" type="line"/>
      <point x="70" y="64" type="line"/>
    </contour>
  </outline>
</glyph>
<glyph name="numbersign" format="2">
  <advance width="713"/>
  <unicode hex="0023"/>
  <outline>
    <contour>
      <point x="188" y="0" type="line"/>
      <point x="222" y="0" type="line"/>
      <point x="222" y="224" type="line"/>
      <point x="497" y="224" type="line"/>
      <point x="497" y="0" type="line"/>
      <point x="531" y="0" type="line"/>
      <point x="531" y="224" type="line"/>
      <point x="684" y="224" type="line"/>
      <point x="684" y="254" type="line"/>
      <point x="531" y="254" type="line"/>
      <point x="531" y="498" type="line"/>
      <point x="684" y="498" type="line"/>
      <point x="684" y="528" type="line"/>
      <point x="531" y="528" type="line"/>
      <point x="531" y="729" type="line"/>
      <point x="497" y="729" type="line"/>
      <point x="497" y="528" type="line"/>
      <point x="222" y="528" type="line"/>
      <point x="222" y="729" type="line"/>
      <point x="188" y="729" type="line"/>
      <point x="188" y="528" type="line"/>
      <point x="29" y="528" type="line"/>
      <point x="29" y="498" type="line"/>
      <point x="188" y="498" type="line"/>
      <point x="188" y="254" type="line"/>
      <point x="29" y="254" type="line"/>
      <point x="29" y="224" type="line"/>
      <point x="188" y="224" type="line"/>
    </contour>
    <contour>
      <point x="222" y="254" type="line"/>
      <point x="222" y="498" type="line"/>
      <point x="497" y="498" type="line"/>
      <point x="497" y="254" type="line"/>
    </contour>
  </outline>
</glyph>
<glyph name="percent" format="2">
  <advance width="929"/>
  <unicode hex="0025"/>
  <outline>
    <contour>
      <point x="181" y="0" type="line"/>
      <point x="220" y="0" type="line"/>
      <point x="747" y="729" type="line"/>
      <point x="707" y="729" type="line"/>
    </contour>
    <contour>
      <point x="214" y="341" type="curve" smooth="yes"/>
      <point x="327" y="341"/>
      <point x="389" y="405"/>
      <point x="389" y="536" type="curve" smooth="yes"/>
      <point x="389" y="544" type="line" smooth="yes"/>
      <point x="389" y="675"/>
      <point x="327" y="739"/>
      <point x="214" y="739" type="curve" smooth="yes"/>
      <point x="101" y="739"/>
      <point x="39" y="675"/>
      <point x="39" y="544" type="curve" smooth="yes"/>
      <point x="39" y="536" type="line" smooth="yes"/>
      <point x="39" y="405"/>
      <point x="101" y="341"/>
    </contour>
    <contour>
      <point x="214" y="371" type="curve" smooth="yes"/>
      <point x="131" y="371"/>
      <point x="75" y="417"/>
      <point x="75" y="499" type="curve" smooth="yes"/>
      <point x="75" y="581" type="line" smooth="yes"/>
      <point x="75" y="663"/>
      <point x="131" y="709"/>
      <point x="214" y="709" type="curve" smooth="yes"/>
      <point x="297" y="709"/>
      <point x="353" y="663"/>
      <point x="353" y="581" type="curve" smooth="yes"/>
      <point x="353" y="499" type="line" smooth="yes"/>
      <point x="353" y="417"/>
      <point x="297" y="371"/>
    </contour>
    <contour>
      <point x="715" y="-10" type="curve" smooth="yes"/>
      <point x="828" y="-10"/>
      <point x="890" y="54"/>
      <point x="890" y="185" type="curve" smooth="yes"/>
      <point x="890" y="193" type="line" smooth="yes"/>
      <point x="890" y="324"/>
      <point x="828" y="388"/>
      <point x="715" y="388" type="curve" smooth="yes"/>
      <point x="602" y="388"/>
      <point x="540" y="324"/>
      <point x="540" y="193" type="curve" smooth="yes"/>
      <point x="540" y="185" type="line" smooth="yes"/>
      <point x="540" y="54"/>
      <point x="602" y="-10"/>
    </contour>
    <contour>
      <point x="715" y="20" type="curve" smooth="yes"/>
      <point x="632" y="20"/>
      <point x="576" y="66"/>
      <point x="576" y="148" type="curve" smooth="yes"/>
      <point x="576" y="230" type="line" smooth="yes"/>
      <point x="576" y="312"/>
      <point x="632" y="358"/>
      <point x="715" y="358" type="curve" smooth="yes"/>
      <point x="798" y="358"/>
      <point x="854" y="312"/>
      <point x="854" y="230" type="curve" smooth="yes"/>
      <point x="854" y="148" type="line" smooth="yes"/>
      <point x="854" y="66"/>
      <point x="798" y="20"/>
    </contour>
  </outline>
</glyph>
<glyph name="ampersand" format="2">
  <advance width="759"/>
  <unicode hex="0026"/>
  <outline>
    <contour>
      <point x="273" y="-10" type="curve" smooth="yes"/>
      <point x="385" y="-10"/>
      <point x="474" y="38"/>
      <point x="517" y="119" type="curve"/>
      <point x="655" y="-5" type="line"/>
      <point x="709" y="-5" type="line"/>
      <point x="532" y="154" type="line"/>
      <point x="548" y="192"/>
      <point x="557" y="237"/>
      <point x="558" y="288" type="curve"/>
      <point x="713" y="288" type="line"/>
      <point x="713" y="321" type="line"/>
      <point x="522" y="321" type="line"/>
      <point x="522" y="285" type="line" smooth="yes"/>
      <point x="522" y="245"/>
      <point x="515" y="211"/>
      <point x="505" y="179" type="curve"/>
      <point x="284" y="376" type="line"/>
      <point x="391" y="431"/>
      <point x="460" y="494"/>
      <point x="460" y="572" type="curve" smooth="yes"/>
      <point x="460" y="595" type="line" smooth="yes"/>
      <point x="460" y="681"/>
      <point x="399" y="739"/>
      <point x="284" y="739" type="curve" smooth="yes"/>
      <point x="167" y="739"/>
      <point x="99" y="679"/>
      <point x="99" y="595" type="curve" smooth="yes"/>
      <point x="99" y="571" type="line" smooth="yes"/>
      <point x="99" y="514"/>
      <point x="131" y="468"/>
      <point x="222" y="386" type="curve"/>
      <point x="222" y="382" type="line"/>
      <point x="116" y="329"/>
      <point x="51" y="270"/>
      <point x="51" y="179" type="curve" smooth="yes"/>
      <point x="51" y="159" type="line" smooth="yes"/>
      <point x="51" y="58"/>
      <point x="140" y="-10"/>
    </contour>
    <contour>
      <point x="273" y="23" type="curve" smooth="yes"/>
      <point x="162" y="23"/>
      <point x="88" y="78"/>
      <point x="88" y="161" type="curve" smooth="yes"/>
      <point x="88" y="179" type="line" smooth="yes"/>
      <point x="88" y="243"/>
      <point x="122" y="298"/>
      <point x="248" y="362" type="curve"/>
      <point x="490" y="145" type="line"/>
      <point x="457" y="70"/>
      <point x="380" y="23"/>
    </contour>
    <contour>
      <point x="260" y="398" type="curve"/>
      <point x="169" y="479"/>
      <point x="136" y="518"/>
      <point x="136" y="571" type="curve" smooth="yes"/>
      <point x="136" y="595" type="line" smooth="yes"/>
      <point x="136" y="659"/>
      <point x="184" y="707"/>
      <point x="285" y="707" type="curve" smooth="yes"/>
      <point x="382" y="707"/>
      <point x="423" y="663"/>
      <point x="423" y="595" type="curve" smooth="yes"/>
      <point x="423" y="572" type="line" smooth="yes"/>
      <point x="423" y="504"/>
      <point x="368" y="455"/>
    </contour>
  </outline>
</glyph>
<glyph name="quotesingle" format="2">
  <advance width="136"/>
  <unicode hex="0027"/>
  <anchor x="-19" y="0" name="#entry"/>
  <anchor x="140" y="0" name="#exit"/>
  <outline>
    <contour>
      <point x="58" y="450" type="line"/>
      <point x="78" y="450" type="line"/>
      <point x="85" y="604" type="line"/>
      <point x="85" y="729" type="line"/>
      <point x="51" y="729" type="line"/>
      <point x="51" y="604" type="line"/>
    </contour>
  </outline>
</glyph>
<glyph name="parenleft" format="2">
  <advance width="306"/>
  <unicode hex="0028"/>
  <outline>
    <contour>
      <point x="235" y="-167" type="curve"/>
      <point x="271" y="-167" type="line"/>
      <point x="162" y="-67"/>
      <point x="87" y="115"/>
      <point x="87" y="313" type="curve" smooth="yes"/>
      <point x="87" y="499"/>
      <point x="154" y="686"/>
      <point x="271" y="793" type="curve"/>
      <point x="235" y="793" type="line"/>
      <point x="117" y="685"/>
      <point x="50" y="500"/>
      <point x="50" y="313" type="curve" smooth="yes"/>
      <point x="50" y="126"/>
      <point x="117" y="-59"/>
    </contour>
  </outline>
</glyph>
<glyph name="asterisk" format="2">
  <advance width="301"/>
  <unicode hex="002A"/>
  <outline>
    <contour>
      <point x="135" y="441" type="line"/>
      <point x="165" y="441" type="line"/>
      <point x="165" y="502" type="line"/>
      <point x="156" y="573" type="line"/>
      <point x="216" y="530" type="line"/>
      <point x="268" y="500" type="line"/>
      <point x="283" y="526" type="line"/>
      <point x="230" y="558" type="line"/>
      <point x="168" y="586" type="line"/>
      <point x="230" y="615" type="line"/>
      <point x="282" y="643" type="line"/>
      <point x="268" y="669" type="line"/>
      <point x="216" y="641" type="line"/>
      <point x="156" y="600" type="line"/>
      <point x="165" y="669" type="line"/>
      <point x="165" y="729" type="line"/>
      <point x="135" y="729" type="line"/>
      <point x="135" y="669" type="line"/>
      <point x="144" y="600" type="line"/>
      <point x="87" y="641" type="line"/>
      <point x="33" y="669" type="line"/>
      <point x="19" y="643" type="line"/>
      <point x="72" y="615" type="line"/>
      <point x="134" y="586" type="line"/>
      <point x="72" y="558" type="line"/>
      <point x="18" y="526" type="line"/>
      <point x="33" y="500" type="line"/>
      <point x="87" y="530" type="line"/>
      <point x="144" y="573" type="line"/>
      <point x="135" y="502" type="line"/>
    </contour>
  </outline>
</glyph>
<glyph name="plus" format="2">
  <advance width="720"/>
  <unicode hex="002B"/>
  <outline>
    <contour>
      <point x="343" y="118" type="line"/>
      <point x="377" y="118" type="line"/>
      <point x="378" y="611" type="line"/>
      <point x="343" y="611" type="line"/>
    </contour>
    <contour>
      <point x="113" y="348" type="line"/>
      <point x="607" y="348" type="line"/>
      <point x="607" y="382" type="line"/>
      <point x="113" y="382" type="line"/>
    </contour>
  </outline>
</glyph>
<glyph name="comma" format="2">
  <advance width="143"/>
  <unicode hex="002C"/>
  <anchor x="-10" y="0" name="#entry"/>
  <anchor x="149" y="0" name="#exit"/>
  <anchor x="72" y="516" name="top"/>
  <outline>
    <contour>
      <point x="28" y="-146" type="line"/>
      <point x="55" y="-146" type="line"/>
      <point x="97" y="0" type="line"/>
      <point x="97" y="64" type="line"/>
      <point x="47" y="64" type="line"/>
      <point x="47" y="0" type="line"/>
      <point x="74" y="0" type="line"/>
    </contour>
  </outline>
</glyph>
<glyph name="hyphen" format="2">
  <advance width="383"/>
  <unicode hex="002D"/>
  <outline>
    <contour>
      <point x="46" y="301" type="line"/>
      <point x="337" y="301" type="line"/>
      <point x="337" y="337" type="line"/>
      <point x="46" y="337" type="line"/>
    </contour>
  </outline>
</glyph>
<glyph name="period" format="2">
  <advance width="142"/>
  <unicode hex="002E"/>
  <anchor x="-4" y="0" name="#entry"/>
  <anchor x="132" y="0" name="#exit"/>
  <anchor x="71" y="64" name="_top"/>
  <anchor x="71" y="516" name="top"/>
  <outline>
    <contour>
      <point x="46" y="0" type="line"/>
      <point x="96" y="0" type="line"/>
      <point x="96" y="64" type="line"/>
      <point x="46" y="64" type="line"/>
    </contour>
  </outline>
</glyph>
<glyph name="zero" format="2">
  <advance width="786"/>
  <unicode hex="0030"/>
  <note>
zero
</note>
  <outline>
    <contour>
      <point x="393" y="-9" type="curve" smooth="yes"/>
      <point x="604" y="-9"/>
      <point x="732" y="113"/>
      <point x="732" y="342" type="curve" smooth="yes"/>
      <point x="732" y="387" type="line" smooth="yes"/>
      <point x="732" y="616"/>
      <point x="604" y="738"/>
      <point x="393" y="738" type="curve" smooth="yes"/>
      <point x="182" y="738"/>
      <point x="54" y="616"/>
      <point x="54" y="387" type="curve" smooth="yes"/>
      <point x="54" y="342" type="line" smooth="yes"/>
      <point x="54" y="113"/>
      <point x="182" y="-9"/>
    </contour>
    <contour>
      <point x="393" y="28" type="curve" smooth="yes"/>
      <point x="206" y="28"/>
      <point x="98" y="132"/>
      <point x="98" y="317" type="curve" smooth="yes"/>
      <point x="98" y="412" type="line" smooth="yes"/>
      <point x="98" y="597"/>
      <point x="206" y="701"/>
      <point x="393" y="701" type="curve" smooth="yes"/>
      <point x="580" y="701"/>
      <point x="688" y="597"/>
      <point x="688" y="412" type="curve" smooth="yes"/>
      <point x="688" y="317" type="line" smooth="yes"/>
      <point x="688" y="132"/>
      <point x="580" y="28"/>
    </contour>
    <contour>
      <point x="63" y="347" type="line"/>
      <point x="707" y="347" type="line"/>
      <point x="707" y="382" type="line"/>
      <point x="63" y="382" type="line"/>
    </contour>
  </outline>
</glyph>
<glyph name="one" format="2">
  <advance width="366"/>
  <unicode hex="0031"/>
  <note>
one
</note>
  <outline>
    <contour>
      <point x="248" y="0" type="line"/>
      <point x="286" y="0" type="line"/>
      <point x="286" y="729" type="line"/>
      <point x="253" y="729" type="line"/>
      <point x="246" y="606" type="line"/>
      <point x="38" y="606" type="line"/>
      <point x="38" y="568" type="line"/>
      <point x="248" y="568" type="line"/>
    </contour>
  </outline>
</glyph>
<glyph name="two" format="2">
  <advance width="677"/>
  <unicode hex="0032"/>
  <note>
two
</note>
  <outline>
    <contour>
      <point x="52" y="0" type="line"/>
      <point x="637" y="0" type="line"/>
      <point x="637" y="38" type="line"/>
      <point x="139" y="38" type="line"/>
      <point x="116" y="36" type="line"/>
      <point x="116" y="41" type="line"/>
      <point x="142" y="56" type="line"/>
      <point x="436" y="259" type="line" smooth="yes"/>
      <point x="562" y="346"/>
      <point x="608" y="413"/>
      <point x="608" y="514" type="curve" smooth="yes"/>
      <point x="608" y="648"/>
      <point x="504" y="739"/>
      <point x="337" y="739" type="curve" smooth="yes"/>
      <point x="166" y="739"/>
      <point x="59" y="645"/>
      <point x="42" y="504" type="curve"/>
      <point x="82" y="504" type="line"/>
      <point x="94" y="615"/>
      <point x="178" y="702"/>
      <point x="337" y="702" type="curve" smooth="yes"/>
      <point x="474" y="702"/>
      <point x="566" y="635"/>
      <point x="566" y="518" type="curve" smooth="yes"/>
      <point x="566" y="496" type="line" smooth="yes"/>
      <point x="566" y="421"/>
      <point x="521" y="363"/>
      <point x="417" y="291" type="curve" smooth="yes"/>
      <point x="52" y="38" type="line"/>
    </contour>
  </outline>
</glyph>
<glyph name="three" format="2">
  <advance width="693"/>
  <unicode hex="0033"/>
  <note>
three
</note>
  <outline>
    <contour>
      <point x="337" y="-10" type="curve" smooth="yes"/>
      <point x="527" y="-10"/>
      <point x="645" y="72"/>
      <point x="645" y="199" type="curve" smooth="yes"/>
      <point x="645" y="304"/>
      <point x="567" y="370"/>
      <point x="452" y="382" type="curve"/>
      <point x="452" y="388" type="line"/>
      <point x="557" y="409"/>
      <point x="623" y="471"/>
      <point x="623" y="555" type="curve" smooth="yes"/>
      <point x="623" y="684"/>
      <point x="497" y="739"/>
      <point x="349" y="739" type="curve" smooth="yes"/>
      <point x="178" y="739"/>
      <point x="62" y="655"/>
      <point x="50" y="532" type="curve"/>
      <point x="90" y="532" type="line"/>
      <point x="97" y="634"/>
      <point x="202" y="703"/>
      <point x="350" y="703" type="curve" smooth="yes"/>
      <point x="488" y="703"/>
      <point x="581" y="654"/>
      <point x="581" y="561" type="curve" smooth="yes"/>
      <point x="581" y="538" type="line" smooth="yes"/>
      <point x="581" y="459"/>
      <point x="501" y="403"/>
      <point x="380" y="403" type="curve" smooth="yes"/>
      <point x="317" y="403" type="line"/>
      <point x="317" y="362" type="line"/>
      <point x="383" y="362" type="line" smooth="yes"/>
      <point x="504" y="362"/>
      <point x="602" y="320"/>
      <point x="602" y="223" type="curve" smooth="yes"/>
      <point x="602" y="185" type="line" smooth="yes"/>
      <point x="602" y="88"/>
      <point x="500" y="26"/>
      <point x="337" y="26" type="curve" smooth="yes"/>
      <point x="189" y="26"/>
      <point x="96" y="86"/>
      <point x="84" y="207" type="curve"/>
      <point x="45" y="207" type="line"/>
      <point x="58" y="77"/>
      <point x="156" y="-10"/>
    </contour>
  </outline>
</glyph>
<glyph name="four" format="2">
  <advance width="760"/>
  <unicode hex="0034"/>
  <note>
four
</note>
  <outline>
    <contour>
      <point x="39" y="195" type="line"/>
      <point x="722" y="195" type="line"/>
      <point x="722" y="231" type="line"/>
      <point x="84" y="231" type="line"/>
      <point x="84" y="238" type="line"/>
      <point x="461" y="729" type="line"/>
      <point x="414" y="729" type="line"/>
      <point x="39" y="239" type="line"/>
    </contour>
    <contour>
      <point x="503" y="0" type="line"/>
      <point x="544" y="0" type="line"/>
      <point x="544" y="404" type="line"/>
      <point x="510" y="404" type="line"/>
      <point x="503" y="204" type="line"/>
    </contour>
  </outline>
</glyph>
<glyph name="five" format="2">
  <advance width="701"/>
  <unicode hex="0035"/>
  <note>
five
</note>
  <outline>
    <contour>
      <point x="344" y="-10" type="curve" smooth="yes"/>
      <point x="542" y="-10"/>
      <point x="652" y="90"/>
      <point x="652" y="233" type="curve" smooth="yes"/>
      <point x="652" y="376"/>
      <point x="555" y="470"/>
      <point x="373" y="470" type="curve" smooth="yes"/>
      <point x="272" y="470"/>
      <point x="184" y="441"/>
      <point x="113" y="382" type="curve"/>
      <point x="107" y="385" type="line"/>
      <point x="122" y="691" type="line"/>
      <point x="644" y="691" type="line"/>
      <point x="644" y="729" type="line"/>
      <point x="87" y="729" type="line"/>
      <point x="68" y="352" type="line"/>
      <point x="112" y="345" type="line"/>
      <point x="180" y="401"/>
      <point x="264" y="436"/>
      <point x="372" y="436" type="curve" smooth="yes"/>
      <point x="520" y="436"/>
      <point x="608" y="367"/>
      <point x="608" y="250" type="curve" smooth="yes"/>
      <point x="608" y="206" type="line" smooth="yes"/>
      <point x="608" y="99"/>
      <point x="503" y="26"/>
      <point x="344" y="26" type="curve" smooth="yes"/>
      <point x="197" y="26"/>
      <point x="99" y="94"/>
      <point x="89" y="207" type="curve"/>
      <point x="49" y="207" type="line"/>
      <point x="59" y="78"/>
      <point x="175" y="-10"/>
    </contour>
  </outline>
</glyph>
<glyph name="six" format="2">
  <advance width="731"/>
  <unicode hex="0036"/>
  <note>
six
</note>
  <outline>
    <contour>
      <point x="376" y="-10" type="curve" smooth="yes"/>
      <point x="556" y="-10"/>
      <point x="683" y="84"/>
      <point x="683" y="241" type="curve" smooth="yes"/>
      <point x="683" y="387"/>
      <point x="585" y="481"/>
      <point x="407" y="481" type="curve" smooth="yes"/>
      <point x="289" y="481"/>
      <point x="177" y="436"/>
      <point x="98" y="339" type="curve"/>
      <point x="94" y="339" type="line"/>
      <point x="96" y="365"/>
      <point x="97" y="388"/>
      <point x="97" y="413" type="curve" smooth="yes"/>
      <point x="97" y="586"/>
      <point x="190" y="702"/>
      <point x="383" y="702" type="curve" smooth="yes"/>
      <point x="501" y="702"/>
      <point x="596" y="658"/>
      <point x="621" y="565" type="curve"/>
      <point x="661" y="565" type="line"/>
      <point x="635" y="670"/>
      <point x="539" y="739"/>
      <point x="383" y="739" type="curve" smooth="yes"/>
      <point x="202" y="739"/>
      <point x="57" y="639"/>
      <point x="57" y="405" type="curve" smooth="yes"/>
      <point x="57" y="294" type="line" smooth="yes"/>
      <point x="57" y="106"/>
      <point x="173" y="-10"/>
    </contour>
    <contour>
      <point x="377" y="26" type="curve" smooth="yes"/>
      <point x="207" y="26"/>
      <point x="96" y="117"/>
      <point x="96" y="286" type="curve" smooth="yes"/>
      <point x="96" y="293" type="line"/>
      <point x="167" y="389"/>
      <point x="267" y="448"/>
      <point x="405" y="448" type="curve" smooth="yes"/>
      <point x="550" y="448"/>
      <point x="638" y="378"/>
      <point x="638" y="262" type="curve" smooth="yes"/>
      <point x="638" y="214" type="line" smooth="yes"/>
      <point x="638" y="102"/>
      <point x="531" y="26"/>
    </contour>
  </outline>
</glyph>
<glyph name="seven" format="2">
  <advance width="664"/>
  <unicode hex="0037"/>
  <note>
seven
</note>
  <outline>
    <contour>
      <point x="170" y="0" type="line"/>
      <point x="219" y="0" type="line"/>
      <point x="626" y="685" type="line"/>
      <point x="626" y="729" type="line"/>
      <point x="39" y="729" type="line"/>
      <point x="39" y="553" type="line"/>
      <point x="75" y="553" type="line"/>
      <point x="75" y="691" type="line"/>
      <point x="578" y="691" type="line"/>
      <point x="578" y="679" type="line"/>
    </contour>
  </outline>
</glyph>
<glyph name="eight" format="2">
  <advance width="709"/>
  <unicode hex="0038"/>
  <note>
eight
</note>
  <outline>
    <contour>
      <point x="354" y="-10" type="curve" smooth="yes"/>
      <point x="551" y="-10"/>
      <point x="661" y="65"/>
      <point x="661" y="190" type="curve" smooth="yes"/>
      <point x="661" y="300"/>
      <point x="581" y="359"/>
      <point x="466" y="375" type="curve"/>
      <point x="466" y="381" type="line"/>
      <point x="583" y="402"/>
      <point x="640" y="472"/>
      <point x="640" y="551" type="curve" smooth="yes"/>
      <point x="640" y="678"/>
      <point x="523" y="739"/>
      <point x="354" y="739" type="curve" smooth="yes"/>
      <point x="185" y="739"/>
      <point x="68" y="678"/>
      <point x="68" y="551" type="curve" smooth="yes"/>
      <point x="68" y="472"/>
      <point x="124" y="402"/>
      <point x="241" y="381" type="curve"/>
      <point x="241" y="375" type="line"/>
      <point x="127" y="359"/>
      <point x="48" y="300"/>
      <point x="48" y="190" type="curve" smooth="yes"/>
      <point x="48" y="65"/>
      <point x="156" y="-10"/>
    </contour>
    <contour>
      <point x="354" y="27" type="curve" smooth="yes"/>
      <point x="186" y="27"/>
      <point x="91" y="82"/>
      <point x="91" y="176" type="curve" smooth="yes"/>
      <point x="91" y="209" type="line" smooth="yes"/>
      <point x="91" y="290"/>
      <point x="156" y="362"/>
      <point x="355" y="362" type="curve" smooth="yes"/>
      <point x="550" y="362"/>
      <point x="616" y="289"/>
      <point x="616" y="209" type="curve" smooth="yes"/>
      <point x="616" y="176" type="line" smooth="yes"/>
      <point x="616" y="82"/>
      <point x="521" y="27"/>
    </contour>
    <contour>
      <point x="354" y="393" type="curve" smooth="yes"/>
      <point x="179" y="393"/>
      <point x="111" y="462"/>
      <point x="111" y="531" type="curve" smooth="yes"/>
      <point x="111" y="564" type="line" smooth="yes"/>
      <point x="111" y="649"/>
      <point x="198" y="703"/>
      <point x="354" y="703" type="curve" smooth="yes"/>
      <point x="509" y="703"/>
      <point x="598" y="649"/>
      <point x="598" y="564" type="curve" smooth="yes"/>
      <point x="598" y="531" type="line" smooth="yes"/>
      <point x="598" y="462"/>
      <point x="529" y="393"/>
    </contour>
  </outline>
</glyph>
<glyph name="equal" format="2">
  <advance width="720"/>
  <unicode hex="003D"/>
  <anchor x="360" y="361" name="center"/>
  <outline>
    <contour>
      <point x="109" y="458" type="line"/>
      <point x="611" y="458" type="line"/>
      <point x="611" y="492" type="line"/>
      <point x="109" y="492" type="line"/>
    </contour>
    <contour>
      <point x="109" y="238" type="line"/>
      <point x="611" y="238" type="line"/>
      <point x="611" y="272" type="line"/>
      <point x="109" y="272" type="line"/>
    </contour>
  </outline>
</glyph>
<glyph name="greater" format="2">
  <advance width="720"/>
  <unicode hex="003E"/>
  <outline>
    <contour>
      <point x="85" y="119" type="line"/>
      <point x="618" y="340" type="line"/>
      <point x="618" y="390" type="line"/>
      <point x="85" y="611" type="line"/>
      <point x="85" y="568" type="line"/>
      <point x="577" y="367" type="line"/>
      <point x="577" y="363" type="line"/>
      <point x="85" y="162" type="line"/>
    </contour>
  </outline>
</glyph>
<glyph name="question" format="2">
  <advance width="546"/>
  <unicode hex="003F"/>
  <outline>
    <contour>
      <point x="244" y="168" type="line"/>
      <point x="278" y="168" type="line"/>
      <point x="278" y="179" type="line" smooth="yes"/>
      <point x="278" y="307"/>
      <point x="501" y="353"/>
      <point x="501" y="544" type="curve" smooth="yes"/>
      <point x="501" y="663"/>
      <point x="408" y="739"/>
      <point x="269" y="739" type="curve" smooth="yes"/>
      <point x="128" y="739"/>
      <point x="33" y="664"/>
      <point x="26" y="540" type="curve"/>
      <point x="62" y="540" type="line"/>
      <point x="67" y="638"/>
      <point x="143" y="703"/>
      <point x="267" y="703" type="curve" smooth="yes"/>
      <point x="385" y="703"/>
      <point x="462" y="646"/>
      <point x="462" y="543" type="curve" smooth="yes"/>
      <point x="462" y="362"/>
      <point x="244" y="328"/>
      <point x="244" y="179" type="curve" smooth="yes"/>
    </contour>
    <contour>
      <point x="240" y="0" type="line"/>
      <point x="285" y="0" type="line"/>
      <point x="285" y="62" type="line"/>
      <point x="240" y="62" type="line"/>
    </contour>
  </outline>
</glyph>
<glyph name="at" format="2">
  <advance width="987"/>
  <unicode hex="0040"/>
  <outline>
    <contour>
      <point x="496" y="-101" type="curve" smooth="yes"/>
      <point x="581" y="-101"/>
      <point x="697" y="-78"/>
      <point x="763" y="-30" type="curve"/>
      <point x="746" y="0" type="line"/>
      <point x="686" y="-42"/>
      <point x="597" y="-67"/>
      <point x="490" y="-67" type="curve" smooth="yes"/>
      <point x="241" y="-67"/>
      <point x="78" y="72"/>
      <point x="78" y="314" type="curve" smooth="yes"/>
      <point x="78" y="547"/>
      <point x="245" y="704"/>
      <point x="499" y="704" type="curve" smooth="yes"/>
      <point x="743" y="704"/>
      <point x="911" y="567"/>
      <point x="911" y="365" type="curve" smooth="yes"/>
      <point x="911" y="228"/>
      <point x="845" y="135"/>
      <point x="749" y="135" type="curve" smooth="yes"/>
      <point x="684" y="135"/>
      <point x="647" y="168"/>
      <point x="654" y="268" type="curve" smooth="yes"/>
      <point x="673" y="504" type="line"/>
      <point x="638" y="504" type="line"/>
      <point x="629" y="411" type="line"/>
      <point x="626" y="411" type="line"/>
      <point x="608" y="474"/>
      <point x="545" y="516"/>
      <point x="470" y="516" type="curve" smooth="yes"/>
      <point x="353" y="516"/>
      <point x="275" y="426"/>
      <point x="275" y="296" type="curve" smooth="yes"/>
      <point x="275" y="164"/>
      <point x="364" y="106"/>
      <point x="454" y="106" type="curve" smooth="yes"/>
      <point x="522" y="106"/>
      <point x="594" y="141"/>
      <point x="622" y="222" type="curve"/>
      <point x="625" y="222" type="line"/>
      <point x="625" y="151"/>
      <point x="669" y="105"/>
      <point x="749" y="105" type="curve" smooth="yes"/>
      <point x="867" y="105"/>
      <point x="946" y="210"/>
      <point x="946" y="367" type="curve" smooth="yes"/>
      <point x="946" y="589"/>
      <point x="756" y="738"/>
      <point x="501" y="738" type="curve" smooth="yes"/>
      <point x="226" y="738"/>
      <point x="41" y="567"/>
      <point x="41" y="312" type="curve" smooth="yes"/>
      <point x="41" y="64"/>
      <point x="209" y="-101"/>
    </contour>
    <contour>
      <point x="457" y="138" type="curve" smooth="yes"/>
      <point x="370" y="138"/>
      <point x="312" y="195"/>
      <point x="312" y="296" type="curve" smooth="yes"/>
      <point x="312" y="410"/>
      <point x="372" y="487"/>
      <point x="477" y="487" type="curve" smooth="yes"/>
      <point x="564" y="487"/>
      <point x="623" y="423"/>
      <point x="627" y="323" type="curve"/>
      <point x="621" y="212"/>
      <point x="564" y="138"/>
    </contour>
  </outline>
</glyph>
<glyph name="A" format="2">
  <advance width="890"/>
  <unicode hex="0041"/>
  <note>
A
</note>
  <anchor x="810" y="0" name="#exit"/>
  <anchor x="446" y="0" name="bottom"/>
  <anchor x="854" y="0" name="ogonek"/>
  <anchor x="446" y="729" name="top"/>
  <outline>
    <contour>
      <point x="36" y="0" type="line"/>
      <point x="81" y="0" type="line"/>
      <point x="429" y="664" type="line"/>
      <point x="442" y="690" type="line"/>
      <point x="449" y="690" type="line"/>
      <point x="461" y="664" type="line"/>
      <point x="810" y="0" type="line"/>
      <point x="854" y="0" type="line"/>
      <point x="471" y="729" type="line"/>
      <point x="420" y="729" type="line"/>
    </contour>
    <contour>
      <point x="181" y="209" type="line"/>
      <point x="710" y="209" type="line"/>
      <point x="691" y="247" type="line"/>
      <point x="199" y="247" type="line"/>
    </contour>
  </outline>
</glyph>
<glyph name="B" format="2">
  <advance width="802"/>
  <unicode hex="0042"/>
  <note>
B
</note>
  <anchor x="402" y="0" name="bottom"/>
  <anchor x="402" y="729" name="top"/>
  <outline>
    <contour>
      <point x="80" y="0" type="line"/>
      <point x="494" y="0" type="line" smooth="yes"/>
      <point x="662" y="0"/>
      <point x="753" y="71"/>
      <point x="753" y="196" type="curve" smooth="yes"/>
      <point x="753" y="292"/>
      <point x="695" y="356"/>
      <point x="590" y="371" type="curve"/>
      <point x="590" y="377" type="line"/>
      <point x="680" y="396"/>
      <point x="733" y="461"/>
      <point x="733" y="549" type="curve" smooth="yes"/>
      <point x="733" y="661"/>
      <point x="656" y="729"/>
      <point x="503" y="729" type="curve" smooth="yes"/>
      <point x="80" y="729" type="line"/>
    </contour>
    <contour>
      <point x="121" y="39" type="line"/>
      <point x="121" y="690" type="line"/>
      <point x="517" y="690" type="line" smooth="yes"/>
      <point x="624" y="690"/>
      <point x="688" y="648"/>
      <point x="688" y="564" type="curve" smooth="yes"/>
      <point x="688" y="522" type="line" smooth="yes"/>
      <point x="688" y="444"/>
      <point x="634" y="390"/>
      <point x="513" y="390" type="curve" smooth="yes"/>
      <point x="112" y="390" type="line"/>
      <point x="112" y="353" type="line"/>
      <point x="515" y="353" type="line" smooth="yes"/>
      <point x="637" y="353"/>
      <point x="710" y="304"/>
      <point x="710" y="221" type="curve" smooth="yes"/>
      <point x="710" y="183" type="line" smooth="yes"/>
      <point x="710" y="94"/>
      <point x="643" y="39"/>
      <point x="512" y="39" type="curve" smooth="yes"/>
    </contour>
  </outline>
</glyph>
<glyph name="C" format="2">
  <advance width="895"/>
  <unicode hex="0043"/>
  <note>
C
</note>
  <anchor x="467" y="0" name="bottom"/>
  <anchor x="467" y="729" name="top"/>
  <outline>
    <contour>
      <point x="471" y="-10" type="curve" smooth="yes"/>
      <point x="679" y="-10"/>
      <point x="818" y="84"/>
      <point x="852" y="220" type="curve"/>
      <point x="811" y="220" type="line"/>
      <point x="772" y="97"/>
      <point x="645" y="27"/>
      <point x="471" y="27" type="curve" smooth="yes"/>
      <point x="232" y="27"/>
      <point x="94" y="164"/>
      <point x="94" y="349" type="curve" smooth="yes"/>
      <point x="94" y="380" type="line" smooth="yes"/>
      <point x="94" y="565"/>
      <point x="232" y="702"/>
      <point x="471" y="702" type="curve" smooth="yes"/>
      <point x="645" y="702"/>
      <point x="772" y="632"/>
      <point x="811" y="509" type="curve"/>
      <point x="852" y="509" type="line"/>
      <point x="818" y="645"/>
      <point x="679" y="739"/>
      <point x="471" y="739" type="curve" smooth="yes"/>
      <point x="223" y="739"/>
      <point x="50" y="601"/>
      <point x="50" y="368" type="curve" smooth="yes"/>
      <point x="50" y="361" type="line" smooth="yes"/>
      <point x="50" y="128"/>
      <point x="223" y="-10"/>
    </contour>
  </outline>
</glyph>
<glyph name="D" format="2">
  <advance width="856"/>
  <unicode hex="0044"/>
  <note>
D
</note>
  <anchor x="427" y="0" name="bottom"/>
  <anchor x="141" y="365" name="center"/>
  <anchor x="427" y="729" name="top"/>
  <outline>
    <contour>
      <point x="80" y="0" type="line"/>
      <point x="401" y="0" type="line" smooth="yes"/>
      <point x="662" y="0"/>
      <point x="805" y="133"/>
      <point x="805" y="355" type="curve" smooth="yes"/>
      <point x="805" y="375" type="line" smooth="yes"/>
      <point x="805" y="596"/>
      <point x="662" y="729"/>
      <point x="401" y="729" type="curve" smooth="yes"/>
      <point x="80" y="729" type="line"/>
    </contour>
    <contour>
      <point x="121" y="21" type="line"/>
      <point x="121" y="708" type="line"/>
      <point x="103" y="690" type="line"/>
      <point x="416" y="690" type="line" smooth="yes"/>
      <point x="617" y="690"/>
      <point x="759" y="587"/>
      <point x="759" y="406" type="curve" smooth="yes"/>
      <point x="759" y="323" type="line" smooth="yes"/>
      <point x="759" y="142"/>
      <point x="617" y="39"/>
      <point x="416" y="39" type="curve" smooth="yes"/>
      <point x="103" y="39" type="line"/>
    </contour>
  </outline>
</glyph>
<glyph name="E" format="2">
  <advance width="752"/>
  <unicode hex="0045"/>
  <note>
E
</note>
  <anchor x="80" y="0" name="#entry"/>
  <anchor x="376" y="0" name="bottom"/>
  <anchor x="711" y="0" name="ogonek"/>
  <anchor x="376" y="729" name="top"/>
  <anchor x="44" y="729" name="topleft"/>
  <outline>
    <contour>
      <point x="80" y="0" type="line"/>
      <point x="711" y="0" type="line"/>
      <point x="711" y="39" type="line"/>
      <point x="121" y="39" type="line"/>
      <point x="121" y="690" type="line"/>
      <point x="711" y="690" type="line"/>
      <point x="711" y="729" type="line"/>
      <point x="80" y="729" type="line"/>
    </contour>
    <contour>
      <point x="112" y="357" type="line"/>
      <point x="555" y="357" type="line"/>
      <point x="555" y="394" type="line"/>
      <point x="112" y="394" type="line"/>
    </contour>
  </outline>
</glyph>
<glyph name="F" format="2">
  <advance width="735"/>
  <unicode hex="0046"/>
  <note>
F
</note>
  <anchor x="353" y="0" name="bottom"/>
  <anchor x="353" y="729" name="top"/>
  <outline>
    <contour>
      <point x="80" y="0" type="line"/>
      <point x="121" y="0" type="line"/>
      <point x="121" y="690" type="line"/>
      <point x="698" y="690" type="line"/>
      <point x="698" y="729" type="line"/>
      <point x="80" y="729" type="line"/>
    </contour>
    <contour>
      <point x="112" y="339" type="line"/>
      <point x="645" y="339" type="line"/>
      <point x="645" y="377" type="line"/>
      <point x="112" y="377" type="line"/>
    </contour>
  </outline>
</glyph>
<glyph name="G" format="2">
  <advance width="914"/>
  <unicode hex="0047"/>
  <note>
G
</note>
  <anchor x="464" y="0" name="bottom"/>
  <anchor x="464" y="729" name="top"/>
  <outline>
    <contour>
      <point x="471" y="-10" type="curve" smooth="yes"/>
      <point x="616" y="-10"/>
      <point x="745" y="43"/>
      <point x="811" y="140" type="curve"/>
      <point x="815" y="140" type="line"/>
      <point x="820" y="0" type="line"/>
      <point x="852" y="0" type="line"/>
      <point x="852" y="360" type="line"/>
      <point x="468" y="360" type="line"/>
      <point x="468" y="322" type="line"/>
      <point x="811" y="322" type="line"/>
      <point x="811" y="210" type="line"/>
      <point x="770" y="101"/>
      <point x="632" y="27"/>
      <point x="471" y="27" type="curve" smooth="yes"/>
      <point x="232" y="27"/>
      <point x="95" y="164"/>
      <point x="95" y="349" type="curve" smooth="yes"/>
      <point x="95" y="380" type="line" smooth="yes"/>
      <point x="95" y="565"/>
      <point x="232" y="702"/>
      <point x="471" y="702" type="curve" smooth="yes"/>
      <point x="648" y="702"/>
      <point x="773" y="631"/>
      <point x="812" y="507" type="curve"/>
      <point x="852" y="507" type="line"/>
      <point x="818" y="645"/>
      <point x="680" y="739"/>
      <point x="471" y="739" type="curve" smooth="yes"/>
      <point x="224" y="739"/>
      <point x="50" y="601"/>
      <point x="50" y="368" type="curve" smooth="yes"/>
      <point x="50" y="361" type="line" smooth="yes"/>
      <point x="50" y="128"/>
      <point x="224" y="-10"/>
    </contour>
  </outline>
</glyph>
<glyph name="H" format="2">
  <advance width="892"/>
  <unicode hex="0048"/>
  <note>
H
</note>
  <anchor x="446" y="0" name="bottom"/>
  <anchor x="447" y="595" name="center"/>
  <anchor x="446" y="729" name="top"/>
  <anchor x="38" y="729" name="topleft"/>
  <outline>
    <contour>
      <point x="80" y="0" type="line"/>
      <point x="121" y="0" type="line"/>
      <point x="121" y="729" type="line"/>
      <point x="80" y="729" type="line"/>
    </contour>
    <contour>
      <point x="771" y="0" type="line"/>
      <point x="812" y="0" type="line"/>
      <point x="812" y="729" type="line"/>
      <point x="771" y="729" type="line"/>
    </contour>
    <contour>
      <point x="111" y="350" type="line"/>
      <point x="782" y="350" type="line"/>
      <point x="782" y="389" type="line"/>
      <point x="111" y="389" type="line"/>
    </contour>
  </outline>
</glyph>
<glyph name="I" format="2">
  <advance width="642"/>
  <unicode hex="0049"/>
  <note>
I
</note>
  <anchor x="322" y="0" name="bottom"/>
  <anchor x="601" y="0" name="ogonek"/>
  <anchor x="322" y="729" name="top"/>
  <anchor x="601" y="729" name="topleft"/>
  <outline>
    <contour>
      <point x="301" y="29" type="line"/>
      <point x="342" y="29" type="line"/>
      <point x="342" y="700" type="line"/>
      <point x="301" y="700" type="line"/>
    </contour>
    <contour>
      <point x="41" y="0" type="line"/>
      <point x="601" y="0" type="line"/>
      <point x="601" y="39" type="line"/>
      <point x="41" y="39" type="line"/>
    </contour>
    <contour>
      <point x="41" y="690" type="line"/>
      <point x="601" y="690" type="line"/>
      <point x="601" y="729" type="line"/>
      <point x="41" y="729" type="line"/>
    </contour>
  </outline>
</glyph>
<glyph name="J" format="2">
  <advance width="404"/>
  <unicode hex="004A"/>
  <note>
J
</note>
  <anchor x="201" y="0" name="bottom"/>
  <anchor x="305" y="729" name="top"/>
  <outline>
    <contour>
      <point x="37" y="0" type="line"/>
      <point x="275" y="0" type="line" smooth="yes"/>
      <point x="301" y="0"/>
      <point x="325" y="15"/>
      <point x="325" y="46" type="curve" smooth="yes"/>
      <point x="325" y="729" type="line"/>
      <point x="284" y="729" type="line"/>
      <point x="284" y="39" type="line"/>
      <point x="37" y="39" type="line"/>
    </contour>
  </outline>
</glyph>
<glyph name="K" format="2">
  <advance width="792"/>
  <unicode hex="004B"/>
  <note>
K
</note>
  <anchor x="380" y="0" name="bottom"/>
  <anchor x="380" y="729" name="top"/>
  <outline>
    <contour>
      <point x="80" y="0" type="line"/>
      <point x="121" y="0" type="line"/>
      <point x="121" y="277" type="line"/>
      <point x="282" y="394" type="line"/>
      <point x="699" y="0" type="line"/>
      <point x="756" y="0" type="line"/>
      <point x="315" y="418" type="line"/>
      <point x="742" y="729" type="line"/>
      <point x="684" y="729" type="line"/>
      <point x="121" y="323" type="line"/>
      <point x="121" y="729" type="line"/>
      <point x="80" y="729" type="line"/>
    </contour>
  </outline>
</glyph>
<glyph name="L" format="2">
  <advance width="698"/>
  <unicode hex="004C"/>
  <note>
L
</note>
  <anchor x="371" y="0" name="bottom"/>
  <anchor x="101" y="365" name="center"/>
  <anchor x="101" y="729" name="top"/>
  <anchor x="350" y="729" name="topright"/>
  <outline>
    <contour>
      <point x="80" y="0" type="line"/>
      <point x="661" y="0" type="line"/>
      <point x="661" y="39" type="line"/>
      <point x="121" y="39" type="line"/>
      <point x="121" y="729" type="line"/>
      <point x="80" y="729" type="line"/>
    </contour>
  </outline>
</glyph>
<glyph name="M" format="2">
  <advance width="1012"/>
  <unicode hex="004D"/>
  <note>
M
</note>
  <anchor x="506" y="0" name="bottom"/>
  <anchor x="506" y="729" name="top"/>
  <outline>
    <contour>
      <point x="80" y="0" type="line"/>
      <point x="121" y="0" type="line"/>
      <point x="121" y="615" type="line"/>
      <point x="121" y="676" type="line"/>
      <point x="129" y="676" type="line"/>
      <point x="157" y="619" type="line"/>
      <point x="484" y="0" type="line"/>
      <point x="528" y="0" type="line"/>
      <point x="855" y="618" type="line"/>
      <point x="884" y="676" type="line"/>
      <point x="891" y="676" type="line"/>
      <point x="891" y="615" type="line"/>
      <point x="891" y="0" type="line"/>
      <point x="932" y="0" type="line"/>
      <point x="932" y="729" type="line"/>
      <point x="869" y="729" type="line"/>
      <point x="546" y="121" type="line"/>
      <point x="509" y="51" type="line"/>
      <point x="503" y="51" type="line"/>
      <point x="470" y="114" type="line"/>
      <point x="143" y="729" type="line"/>
      <point x="80" y="729" type="line"/>
    </contour>
  </outline>
</glyph>
<glyph name="N" format="2">
  <advance width="879"/>
  <unicode hex="004E"/>
  <note>
N
</note>
  <anchor x="439" y="0" name="bottom"/>
  <anchor x="439" y="729" name="top"/>
  <outline>
    <contour>
      <point x="80" y="0" type="line"/>
      <point x="121" y="0" type="line"/>
      <point x="121" y="679" type="line"/>
      <point x="128" y="679" type="line"/>
      <point x="142" y="662" type="line"/>
      <point x="742" y="0" type="line"/>
      <point x="799" y="0" type="line"/>
      <point x="799" y="729" type="line"/>
      <point x="758" y="729" type="line"/>
      <point x="758" y="50" type="line"/>
      <point x="751" y="50" type="line"/>
      <point x="732" y="71" type="line"/>
      <point x="137" y="729" type="line"/>
      <point x="80" y="729" type="line"/>
    </contour>
  </outline>
</glyph>
<glyph name="O" format="2">
  <advance width="942"/>
  <unicode hex="004F"/>
  <note>
O
</note>
  <anchor x="471" y="0" name="bottom"/>
  <anchor x="471" y="365" name="center"/>
  <anchor x="833" y="10" name="ogonek"/>
  <anchor x="471" y="729" name="top"/>
  <anchor x="39" y="729" name="topleft"/>
  <anchor x="656" y="709" name="topright"/>
  <outline>
    <contour>
      <point x="471" y="-10" type="curve" smooth="yes"/>
      <point x="718" y="-10"/>
      <point x="892" y="128"/>
      <point x="892" y="361" type="curve" smooth="yes"/>
      <point x="892" y="368" type="line" smooth="yes"/>
      <point x="892" y="601"/>
      <point x="718" y="739"/>
      <point x="471" y="739" type="curve" smooth="yes"/>
      <point x="224" y="739"/>
      <point x="50" y="601"/>
      <point x="50" y="368" type="curve" smooth="yes"/>
      <point x="50" y="361" type="line" smooth="yes"/>
      <point x="50" y="128"/>
      <point x="224" y="-10"/>
    </contour>
    <contour>
      <point x="471" y="27" type="curve" smooth="yes"/>
      <point x="232" y="27"/>
      <point x="95" y="164"/>
      <point x="95" y="349" type="curve" smooth="yes"/>
      <point x="95" y="380" type="line" smooth="yes"/>
      <point x="95" y="565"/>
      <point x="232" y="702"/>
      <point x="471" y="702" type="curve" smooth="yes"/>
      <point x="710" y="702"/>
      <point x="847" y="565"/>
      <point x="847" y="380" type="curve" smooth="yes"/>
      <point x="847" y="349" type="line" smooth="yes"/>
      <point x="847" y="164"/>
      <point x="710" y="27"/>
    </contour>
  </outline>
</glyph>
<glyph name="P" format="2">
  <advance width="720"/>
  <unicode hex="0050"/>
  <note>
P
</note>
  <anchor x="353" y="0" name="bottom"/>
  <anchor x="353" y="729" name="top"/>
  <outline>
    <contour>
      <point x="80" y="0" type="line"/>
      <point x="121" y="0" type="line"/>
      <point x="121" y="691" type="line"/>
      <point x="453" y="691" type="line" smooth="yes"/>
      <point x="566" y="691"/>
      <point x="631" y="634"/>
      <point x="631" y="548" type="curve" smooth="yes"/>
      <point x="631" y="507" type="line" smooth="yes"/>
      <point x="631" y="421"/>
      <point x="566" y="363"/>
      <point x="453" y="363" type="curve" smooth="yes"/>
      <point x="112" y="363" type="line"/>
      <point x="112" y="325" type="line"/>
      <point x="437" y="325" type="line" smooth="yes"/>
      <point x="579" y="325"/>
      <point x="675" y="391"/>
      <point x="675" y="528" type="curve" smooth="yes"/>
      <point x="675" y="663"/>
      <point x="579" y="729"/>
      <point x="437" y="729" type="curve" smooth="yes"/>
      <point x="80" y="729" type="line"/>
    </contour>
  </outline>
</glyph>
<glyph name="R" format="2">
  <advance width="794"/>
  <unicode hex="0052"/>
  <note>
R
</note>
  <anchor x="402" y="0" name="bottom"/>
  <anchor x="402" y="729" name="top"/>
  <outline>
    <contour>
      <point x="80" y="0" type="line"/>
      <point x="121" y="0" type="line"/>
      <point x="121" y="691" type="line"/>
      <point x="507" y="691" type="line" smooth="yes"/>
      <point x="623" y="691"/>
      <point x="687" y="633"/>
      <point x="687" y="548" type="curve" smooth="yes"/>
      <point x="687" y="507" type="line" smooth="yes"/>
      <point x="687" y="421"/>
      <point x="622" y="364"/>
      <point x="507" y="364" type="curve" smooth="yes"/>
      <point x="112" y="364" type="line"/>
      <point x="112" y="326" type="line"/>
      <point x="399" y="326" type="line"/>
      <point x="698" y="0" type="line"/>
      <point x="754" y="0" type="line"/>
      <point x="447" y="333" type="line"/>
      <point x="447" y="327" type="line"/>
      <point x="489" y="327" type="line" smooth="yes"/>
      <point x="632" y="327"/>
      <point x="730" y="390"/>
      <point x="730" y="528" type="curve" smooth="yes"/>
      <point x="730" y="666"/>
      <point x="633" y="729"/>
      <point x="492" y="729" type="curve" smooth="yes"/>
      <point x="80" y="729" type="line"/>
    </contour>
  </outline>
</glyph>
<glyph name="S" format="2">
  <advance width="757"/>
  <unicode hex="0053"/>
  <note>
S
</note>
  <anchor x="376" y="0" name="bottom"/>
  <anchor x="376" y="729" name="top"/>
  <outline>
    <contour>
      <point x="391" y="-10" type="curve" smooth="yes"/>
      <point x="579" y="-10"/>
      <point x="710" y="54"/>
      <point x="710" y="185" type="curve" smooth="yes"/>
      <point x="710" y="315"/>
      <point x="600" y="357"/>
      <point x="471" y="379" type="curve" smooth="yes"/>
      <point x="304" y="406" type="line" smooth="yes"/>
      <point x="187" y="426"/>
      <point x="114" y="460"/>
      <point x="114" y="545" type="curve" smooth="yes"/>
      <point x="114" y="639"/>
      <point x="197" y="703"/>
      <point x="375" y="703" type="curve" smooth="yes"/>
      <point x="536" y="703"/>
      <point x="636" y="646"/>
      <point x="660" y="539" type="curve"/>
      <point x="699" y="539" type="line"/>
      <point x="679" y="665"/>
      <point x="564" y="739"/>
      <point x="374" y="739" type="curve" smooth="yes"/>
      <point x="210" y="739"/>
      <point x="72" y="676"/>
      <point x="72" y="545" type="curve" smooth="yes"/>
      <point x="72" y="427"/>
      <point x="174" y="387"/>
      <point x="294" y="367" type="curve" smooth="yes"/>
      <point x="467" y="339" type="line" smooth="yes"/>
      <point x="591" y="318"/>
      <point x="667" y="281"/>
      <point x="667" y="187" type="curve" smooth="yes"/>
      <point x="667" y="59"/>
      <point x="538" y="27"/>
      <point x="393" y="27" type="curve" smooth="yes"/>
      <point x="212" y="27"/>
      <point x="101" y="78"/>
      <point x="81" y="206" type="curve"/>
      <point x="41" y="206" type="line"/>
      <point x="55" y="80"/>
      <point x="165" y="-10"/>
    </contour>
  </outline>
</glyph>
<glyph name="T" format="2">
  <advance width="780"/>
  <unicode hex="0054"/>
  <note>
T
</note>
  <anchor x="390" y="0" name="bottom"/>
  <anchor x="390" y="365" name="center"/>
  <anchor x="390" y="729" name="top"/>
  <outline>
    <contour>
      <point x="370" y="0" type="line"/>
      <point x="411" y="0" type="line"/>
      <point x="411" y="690" type="line"/>
      <point x="743" y="690" type="line"/>
      <point x="743" y="729" type="line"/>
      <point x="37" y="729" type="line"/>
      <point x="37" y="690" type="line"/>
      <point x="370" y="690" type="line"/>
    </contour>
  </outline>
</glyph>
<glyph name="U" format="2">
  <advance width="858"/>
  <unicode hex="0055"/>
  <note>
U
</note>
  <anchor x="433" y="0" name="bottom"/>
  <anchor x="504" y="0" name="ogonek"/>
  <anchor x="433" y="729" name="top"/>
  <anchor x="769" y="729" name="topright"/>
  <outline>
    <contour>
      <point x="429" y="-10" type="curve" smooth="yes"/>
      <point x="644" y="-10"/>
      <point x="789" y="93"/>
      <point x="789" y="281" type="curve" smooth="yes"/>
      <point x="789" y="729" type="line"/>
      <point x="748" y="729" type="line"/>
      <point x="748" y="281" type="line" smooth="yes"/>
      <point x="748" y="130"/>
      <point x="646" y="28"/>
      <point x="429" y="28" type="curve" smooth="yes"/>
      <point x="212" y="28"/>
      <point x="110" y="130"/>
      <point x="110" y="281" type="curve" smooth="yes"/>
      <point x="110" y="729" type="line"/>
      <point x="69" y="729" type="line"/>
      <point x="69" y="281" type="line" smooth="yes"/>
      <point x="69" y="93"/>
      <point x="214" y="-10"/>
    </contour>
  </outline>
</glyph>
<glyph name="V" format="2">
  <advance width="888"/>
  <unicode hex="0056"/>
  <note>
V
</note>
  <anchor x="445" y="0" name="bottom"/>
  <anchor x="445" y="729" name="top"/>
  <outline>
    <contour>
      <point x="419" y="0" type="line"/>
      <point x="469" y="0" type="line"/>
      <point x="852" y="729" type="line"/>
      <point x="806" y="729" type="line"/>
      <point x="460" y="66" type="line"/>
      <point x="449" y="39" type="line"/>
      <point x="439" y="39" type="line"/>
      <point x="427" y="66" type="line"/>
      <point x="83" y="729" type="line"/>
      <point x="36" y="729" type="line"/>
    </contour>
  </outline>
</glyph>
<glyph name="W" format="2">
  <advance width="1158"/>
  <unicode hex="0057"/>
  <note>
W
</note>
  <anchor x="581" y="0" name="bottom"/>
  <anchor x="581" y="729" name="top"/>
  <outline>
    <contour>
      <point x="288" y="0" type="line"/>
      <point x="341" y="0" type="line"/>
      <point x="559" y="634" type="line"/>
      <point x="576" y="687" type="line"/>
      <point x="582" y="687" type="line"/>
      <point x="599" y="634" type="line"/>
      <point x="817" y="0" type="line"/>
      <point x="870" y="0" type="line"/>
      <point x="1120" y="729" type="line"/>
      <point x="1077" y="729" type="line"/>
      <point x="862" y="95" type="line"/>
      <point x="848" y="49" type="line"/>
      <point x="840" y="49" type="line"/>
      <point x="826" y="95" type="line"/>
      <point x="607" y="729" type="line"/>
      <point x="551" y="729" type="line"/>
      <point x="332" y="95" type="line"/>
      <point x="318" y="49" type="line"/>
      <point x="310" y="49" type="line"/>
      <point x="296" y="95" type="line"/>
      <point x="81" y="729" type="line"/>
      <point x="38" y="729" type="line"/>
    </contour>
  </outline>
</glyph>
<glyph name="X" format="2">
  <advance width="843"/>
  <unicode hex="0058"/>
  <note>
X
</note>
  <anchor x="422" y="0" name="bottom"/>
  <anchor x="422" y="729" name="top"/>
  <outline>
    <contour>
      <point x="35" y="0" type="line"/>
      <point x="90" y="0" type="line"/>
      <point x="416" y="351" type="line"/>
      <point x="427" y="351" type="line"/>
      <point x="753" y="0" type="line"/>
      <point x="809" y="0" type="line"/>
      <point x="452" y="381" type="line"/>
      <point x="777" y="729" type="line"/>
      <point x="722" y="729" type="line"/>
      <point x="426" y="410" type="line"/>
      <point x="417" y="410" type="line"/>
      <point x="121" y="729" type="line"/>
      <point x="67" y="729" type="line"/>
      <point x="391" y="381" type="line"/>
    </contour>
  </outline>
</glyph>
<glyph name="Y" format="2">
  <advance width="793"/>
  <unicode hex="0059"/>
  <note>
Y
</note>
  <anchor x="397" y="0" name="bottom"/>
  <anchor x="397" y="729" name="top"/>
  <anchor x="76" y="729" name="topleft"/>
  <outline>
    <contour>
      <point x="376" y="0" type="line"/>
      <point x="417" y="0" type="line"/>
      <point x="417" y="301" type="line"/>
      <point x="758" y="729" type="line"/>
      <point x="706" y="729" type="line"/>
      <point x="445" y="399" type="line"/>
      <point x="402" y="343" type="line"/>
      <point x="392" y="343" type="line"/>
      <point x="348" y="399" type="line"/>
      <point x="87" y="729" type="line"/>
      <point x="35" y="729" type="line"/>
      <point x="376" y="301" type="line"/>
    </contour>
  </outline>
</glyph>
<glyph name="Z" format="2">
  <advance width="776"/>
  <unicode hex="005A"/>
  <note>
Z
</note>
  <anchor x="387" y="0" name="bottom"/>
  <anchor x="387" y="365" name="center"/>
  <anchor x="387" y="729" name="top"/>
  <outline>
    <contour>
      <point x="39" y="0" type="line"/>
      <point x="737" y="0" type="line"/>
      <point x="737" y="39" type="line"/>
      <point x="91" y="39" type="line"/>
      <point x="722" y="690" type="line"/>
      <point x="722" y="729" type="line"/>
      <point x="58" y="729" type="line"/>
      <point x="58" y="690" type="line"/>
      <point x="670" y="690" type="line"/>
      <point x="39" y="39" type="line"/>
    </contour>
  </outline>
</glyph>
<glyph name="bracketleft" format="2">
  <advance width="354"/>
  <unicode hex="005B"/>
  <outline>
    <contour>
      <point x="80" y="-167" type="line"/>
      <point x="314" y="-167" type="line"/>
      <point x="314" y="-133" type="line"/>
      <point x="116" y="-133" type="line"/>
      <point x="116" y="758" type="line"/>
      <point x="314" y="758" type="line"/>
      <point x="314" y="793" type="line"/>
      <point x="80" y="793" type="line"/>
    </contour>
  </outline>
</glyph>
<glyph name="backslash" format="2">
  <advance width="487"/>
  <unicode hex="005C"/>
  <outline>
    <contour>
      <point x="445" y="-81" type="line"/>
      <point x="484" y="-81" type="line"/>
      <point x="69" y="729" type="line"/>
      <point x="33" y="729" type="line"/>
    </contour>
  </outline>
</glyph>
<glyph name="asciicircum" format="2">
  <advance width="720"/>
  <unicode hex="005E"/>
  <outline>
    <contour>
      <point x="171" y="476" type="line"/>
      <point x="215" y="476" type="line"/>
      <point x="351" y="691" type="line"/>
      <point x="487" y="476" type="line"/>
      <point x="532" y="476" type="line"/>
      <point x="372" y="729" type="line"/>
      <point x="333" y="729" type="line"/>
    </contour>
  </outline>
</glyph>
<glyph name="a" format="2">
  <advance width="646"/>
  <unicode hex="0061"/>
  <note>
a
</note>
  <anchor x="349" y="0" name="bottom"/>
  <anchor x="579" y="0" name="ogonek"/>
  <anchor x="326" y="516" name="top"/>
  <outline>
    <contour>
      <point x="314" y="-10" type="curve" smooth="yes"/>
      <point x="411" y="-10"/>
      <point x="500" y="32"/>
      <point x="539" y="99" type="curve"/>
      <point x="543" y="99" type="line"/>
      <point x="545" y="0" type="line"/>
      <point x="580" y="0" type="line"/>
      <point x="580" y="516" type="line"/>
      <point x="545" y="516" type="line"/>
      <point x="543" y="416" type="line"/>
      <point x="539" y="416" type="line"/>
      <point x="500" y="484"/>
      <point x="411" y="526"/>
      <point x="314" y="526" type="curve" smooth="yes"/>
      <point x="152" y="526"/>
      <point x="41" y="423"/>
      <point x="41" y="267" type="curve" smooth="yes"/>
      <point x="41" y="249" type="line" smooth="yes"/>
      <point x="41" y="93"/>
      <point x="152" y="-10"/>
    </contour>
    <contour>
      <point x="317" y="26" type="curve" smooth="yes"/>
      <point x="180" y="26"/>
      <point x="83" y="107"/>
      <point x="83" y="227" type="curve" smooth="yes"/>
      <point x="83" y="288" type="line" smooth="yes"/>
      <point x="83" y="409"/>
      <point x="180" y="490"/>
      <point x="317" y="490" type="curve" smooth="yes"/>
      <point x="423" y="490"/>
      <point x="512" y="437"/>
      <point x="543" y="352" type="curve"/>
      <point x="543" y="164" type="line"/>
      <point x="512" y="80"/>
      <point x="423" y="26"/>
    </contour>
  </outline>
</glyph>
<glyph name="c" format="2">
  <advance width="626"/>
  <unicode hex="0063"/>
  <note>
c
</note>
  <anchor x="326" y="0" name="bottom"/>
  <anchor x="316" y="516" name="top"/>
  <outline>
    <contour>
      <point x="326" y="-10" type="curve" smooth="yes"/>
      <point x="457" y="-10"/>
      <point x="565" y="50"/>
      <point x="593" y="151" type="curve"/>
      <point x="553" y="151" type="line"/>
      <point x="527" y="72"/>
      <point x="444" y="26"/>
      <point x="326" y="26" type="curve" smooth="yes"/>
      <point x="180" y="26"/>
      <point x="82" y="110"/>
      <point x="82" y="237" type="curve" smooth="yes"/>
      <point x="82" y="279" type="line" smooth="yes"/>
      <point x="82" y="405"/>
      <point x="180" y="490"/>
      <point x="326" y="490" type="curve" smooth="yes"/>
      <point x="444" y="490"/>
      <point x="527" y="444"/>
      <point x="553" y="365" type="curve"/>
      <point x="593" y="365" type="line"/>
      <point x="565" y="466"/>
      <point x="457" y="526"/>
      <point x="326" y="526" type="curve" smooth="yes"/>
      <point x="159" y="526"/>
      <point x="40" y="423"/>
      <point x="40" y="267" type="curve" smooth="yes"/>
      <point x="40" y="248" type="line" smooth="yes"/>
      <point x="40" y="93"/>
      <point x="159" y="-10"/>
    </contour>
  </outline>
</glyph>
<glyph name="d" format="2">
  <advance width="645"/>
  <unicode hex="0064"/>
  <note>
d
</note>
  <anchor x="325" y="0" name="bottom"/>
  <anchor x="492" y="616" name="center"/>
  <anchor x="325" y="800" name="top"/>
  <anchor x="579" y="729" name="topright"/>
  <outline>
    <contour>
      <point x="314" y="-10" type="curve" smooth="yes"/>
      <point x="411" y="-10"/>
      <point x="500" y="32"/>
      <point x="539" y="99" type="curve"/>
      <point x="542" y="99" type="line"/>
      <point x="544" y="0" type="line"/>
      <point x="579" y="0" type="line"/>
      <point x="579" y="729" type="line"/>
      <point x="542" y="729" type="line"/>
      <point x="542" y="416" type="line"/>
      <point x="539" y="416" type="line"/>
      <point x="500" y="484"/>
      <point x="411" y="526"/>
      <point x="314" y="526" type="curve" smooth="yes"/>
      <point x="152" y="526"/>
      <point x="41" y="423"/>
      <point x="41" y="267" type="curve" smooth="yes"/>
      <point x="41" y="249" type="line" smooth="yes"/>
      <point x="41" y="93"/>
      <point x="152" y="-10"/>
    </contour>
    <contour>
      <point x="316" y="26" type="curve" smooth="yes"/>
      <point x="180" y="26"/>
      <point x="83" y="107"/>
      <point x="83" y="227" type="curve" smooth="yes"/>
      <point x="83" y="288" type="line" smooth="yes"/>
      <point x="83" y="409"/>
      <point x="180" y="490"/>
      <point x="316" y="490" type="curve" smooth="yes"/>
      <point x="423" y="490"/>
      <point x="511" y="437"/>
      <point x="542" y="352" type="curve"/>
      <point x="542" y="164" type="line"/>
      <point x="511" y="80"/>
      <point x="423" y="26"/>
    </contour>
  </outline>
</glyph>
<glyph name="e" format="2">
  <advance width="638"/>
  <unicode hex="0065"/>
  <note>
e
</note>
  <anchor x="40" y="0" name="#entry"/>
  <anchor x="326" y="0" name="bottom"/>
  <anchor x="484" y="0" name="ogonek"/>
  <anchor x="326" y="516" name="top"/>
  <outline>
    <contour>
      <point x="329" y="-10" type="curve" smooth="yes"/>
      <point x="459" y="-10"/>
      <point x="565" y="50"/>
      <point x="593" y="141" type="curve"/>
      <point x="553" y="141" type="line"/>
      <point x="527" y="72"/>
      <point x="444" y="26"/>
      <point x="326" y="26" type="curve" smooth="yes"/>
      <point x="180" y="26"/>
      <point x="82" y="110"/>
      <point x="82" y="237" type="curve" smooth="yes"/>
      <point x="82" y="272" type="line" smooth="yes"/>
      <point x="82" y="400"/>
      <point x="177" y="490"/>
      <point x="326" y="490" type="curve" smooth="yes"/>
      <point x="466" y="490"/>
      <point x="559" y="414"/>
      <point x="559" y="277" type="curve" smooth="yes"/>
      <point x="559" y="269" type="line"/>
      <point x="571" y="284" type="line"/>
      <point x="74" y="284" type="line"/>
      <point x="74" y="251" type="line"/>
      <point x="601" y="251" type="line"/>
      <point x="601" y="271" type="line" smooth="yes"/>
      <point x="601" y="425"/>
      <point x="491" y="526"/>
      <point x="328" y="526" type="curve" smooth="yes"/>
      <point x="161" y="526"/>
      <point x="40" y="424"/>
      <point x="40" y="267" type="curve" smooth="yes"/>
      <point x="40" y="248" type="line" smooth="yes"/>
      <point x="40" y="92"/>
      <point x="161" y="-10"/>
    </contour>
  </outline>
</glyph>
<glyph name="f" format="2">
  <advance width="356"/>
  <unicode hex="0066"/>
  <note>
f
</note>
  <anchor x="176" y="0" name="bottom"/>
  <anchor x="176" y="800" name="top"/>
  <outline>
    <contour>
      <point x="140" y="0" type="line"/>
      <point x="177" y="0" type="line"/>
      <point x="177" y="480" type="line"/>
      <point x="331" y="480" type="line"/>
      <point x="331" y="516" type="line"/>
      <point x="177" y="516" type="line"/>
      <point x="177" y="693" type="line"/>
      <point x="342" y="693" type="line"/>
      <point x="342" y="729" type="line"/>
      <point x="185" y="729" type="line" smooth="yes"/>
      <point x="157" y="729"/>
      <point x="140" y="711"/>
      <point x="140" y="681" type="curve" smooth="yes"/>
      <point x="140" y="516" type="line"/>
      <point x="25" y="516" type="line"/>
      <point x="25" y="480" type="line"/>
      <point x="140" y="480" type="line"/>
    </contour>
  </outline>
</glyph>
<glyph name="g" format="2">
  <advance width="634"/>
  <unicode hex="0067"/>
  <note>
g
</note>
  <anchor x="315" y="-200" name="bottom"/>
  <anchor x="315" y="516" name="top"/>
  <outline>
    <contour>
      <point x="310" y="-177" type="curve" smooth="yes"/>
      <point x="475" y="-177"/>
      <point x="569" y="-97"/>
      <point x="569" y="27" type="curve" smooth="yes"/>
      <point x="569" y="516" type="line"/>
      <point x="533" y="516" type="line"/>
      <point x="532" y="419" type="line"/>
      <point x="526" y="419" type="line"/>
      <point x="486" y="486"/>
      <point x="398" y="526"/>
      <point x="305" y="526" type="curve" smooth="yes"/>
      <point x="146" y="526"/>
      <point x="39" y="428"/>
      <point x="39" y="276" type="curve" smooth="yes"/>
      <point x="39" y="260" type="line" smooth="yes"/>
      <point x="39" y="110"/>
      <point x="147" y="10"/>
      <point x="305" y="10" type="curve" smooth="yes"/>
      <point x="396" y="10"/>
      <point x="485" y="49"/>
      <point x="525" y="117" type="curve"/>
      <point x="532" y="117" type="line"/>
      <point x="532" y="26" type="line" smooth="yes"/>
      <point x="532" y="-82"/>
      <point x="452" y="-143"/>
      <point x="311" y="-143" type="curve" smooth="yes"/>
      <point x="204" y="-143"/>
      <point x="126" y="-111"/>
      <point x="102" y="-50" type="curve"/>
      <point x="65" y="-50" type="line"/>
      <point x="89" y="-132"/>
      <point x="182" y="-177"/>
    </contour>
    <contour>
      <point x="310" y="46" type="curve" smooth="yes"/>
      <point x="176" y="46"/>
      <point x="81" y="124"/>
      <point x="81" y="241" type="curve" smooth="yes"/>
      <point x="81" y="295" type="line" smooth="yes"/>
      <point x="81" y="413"/>
      <point x="176" y="490"/>
      <point x="310" y="490" type="curve" smooth="yes"/>
      <point x="418" y="490"/>
      <point x="505" y="433"/>
      <point x="532" y="351" type="curve"/>
      <point x="532" y="185" type="line"/>
      <point x="505" y="103"/>
      <point x="418" y="46"/>
    </contour>
  </outline>
</glyph>
<glyph name="h" format="2">
  <advance width="610"/>
  <unicode hex="0068"/>
  <note>
h
</note>
  <anchor x="309" y="0" name="bottom"/>
  <anchor x="163" y="616" name="center"/>
  <anchor x="85" y="729" name="top"/>
  <outline>
    <contour>
      <point x="66" y="0" type="line"/>
      <point x="103" y="0" type="line"/>
      <point x="103" y="359" type="line"/>
      <point x="142" y="431"/>
      <point x="221" y="490"/>
      <point x="327" y="490" type="curve" smooth="yes"/>
      <point x="434" y="490"/>
      <point x="516" y="439"/>
      <point x="516" y="311" type="curve" smooth="yes"/>
      <point x="516" y="0" type="line"/>
      <point x="553" y="0" type="line"/>
      <point x="553" y="317" type="line" smooth="yes"/>
      <point x="553" y="442"/>
      <point x="479" y="526"/>
      <point x="332" y="526" type="curve" smooth="yes"/>
      <point x="230" y="526"/>
      <point x="152" y="480"/>
      <point x="109" y="416" type="curve"/>
      <point x="103" y="416" type="line"/>
      <point x="103" y="729" type="line"/>
      <point x="66" y="729" type="line"/>
    </contour>
  </outline>
</glyph>
<glyph name="k" format="2">
  <advance width="594"/>
  <unicode hex="006B"/>
  <note>
k
</note>
  <anchor x="281" y="0" name="bottom"/>
  <anchor x="281" y="800" name="top"/>
  <outline>
    <contour>
      <point x="66" y="0" type="line"/>
      <point x="103" y="0" type="line"/>
      <point x="103" y="729" type="line"/>
      <point x="66" y="729" type="line"/>
    </contour>
    <contour>
      <point x="517" y="0" type="line"/>
      <point x="566" y="0" type="line"/>
      <point x="300" y="323" type="line"/>
      <point x="272" y="302" type="line"/>
    </contour>
    <contour>
      <point x="95" y="166" type="line"/>
      <point x="285" y="307" type="line"/>
      <point x="288" y="306" type="line"/>
      <point x="570" y="516" type="line"/>
      <point x="515" y="516" type="line"/>
      <point x="94" y="205" type="line"/>
    </contour>
  </outline>
</glyph>
<glyph name="l" format="2">
  <advance width="169"/>
  <unicode hex="006C"/>
  <note>
l
</note>
  <anchor x="85" y="0" name="bottom"/>
  <anchor x="85" y="365" name="center"/>
  <anchor x="85" y="729" name="top"/>
  <anchor x="145" y="729" name="topright"/>
  <outline>
    <contour>
      <point x="66" y="0" type="line"/>
      <point x="103" y="0" type="line"/>
      <point x="103" y="729" type="line"/>
      <point x="66" y="729" type="line"/>
    </contour>
  </outline>
</glyph>
<glyph name="m" format="2">
  <advance width="1040"/>
  <unicode hex="006D"/>
  <note>
m
</note>
  <anchor x="524" y="0" name="bottom"/>
  <anchor x="524" y="516" name="top"/>
  <outline>
    <contour>
      <point x="66" y="0" type="line"/>
      <point x="103" y="0" type="line"/>
      <point x="103" y="355" type="line"/>
      <point x="141" y="430"/>
      <point x="217" y="490"/>
      <point x="322" y="490" type="curve" smooth="yes"/>
      <point x="426" y="490"/>
      <point x="506" y="439"/>
      <point x="506" y="311" type="curve" smooth="yes"/>
      <point x="506" y="0" type="line"/>
      <point x="543" y="0" type="line"/>
      <point x="543" y="317" type="line" smooth="yes"/>
      <point x="543" y="329"/>
      <point x="542" y="342"/>
      <point x="541" y="354" type="curve"/>
      <point x="578" y="431"/>
      <point x="655" y="490"/>
      <point x="761" y="490" type="curve" smooth="yes"/>
      <point x="867" y="490"/>
      <point x="946" y="439"/>
      <point x="946" y="311" type="curve" smooth="yes"/>
      <point x="946" y="0" type="line"/>
      <point x="983" y="0" type="line"/>
      <point x="983" y="316" type="line" smooth="yes"/>
      <point x="983" y="444"/>
      <point x="908" y="526"/>
      <point x="764" y="526" type="curve" smooth="yes"/>
      <point x="656" y="526"/>
      <point x="578" y="471"/>
      <point x="535" y="402" type="curve"/>
      <point x="529" y="402" type="line"/>
      <point x="500" y="483"/>
      <point x="427" y="526"/>
      <point x="324" y="526" type="curve" smooth="yes"/>
      <point x="223" y="526"/>
      <point x="149" y="478"/>
      <point x="109" y="416" type="curve"/>
      <point x="103" y="416" type="line"/>
      <point x="101" y="516" type="line"/>
      <point x="66" y="516" type="line"/>
    </contour>
  </outline>
</glyph>
<glyph name="n" format="2">
  <advance width="610"/>
  <unicode hex="006E"/>
  <note>
n
</note>
  <anchor x="309" y="0" name="bottom"/>
  <anchor x="309" y="516" name="top"/>
  <outline>
    <contour>
      <point x="66" y="0" type="line"/>
      <point x="103" y="0" type="line"/>
      <point x="103" y="359" type="line"/>
      <point x="142" y="431"/>
      <point x="221" y="490"/>
      <point x="327" y="490" type="curve" smooth="yes"/>
      <point x="434" y="490"/>
      <point x="516" y="439"/>
      <point x="516" y="311" type="curve" smooth="yes"/>
      <point x="516" y="0" type="line"/>
      <point x="553" y="0" type="line"/>
      <point x="553" y="317" type="line" smooth="yes"/>
      <point x="553" y="442"/>
      <point x="479" y="526"/>
      <point x="332" y="526" type="curve" smooth="yes"/>
      <point x="230" y="526"/>
      <point x="152" y="480"/>
      <point x="109" y="416" type="curve"/>
      <point x="103" y="416" type="line"/>
      <point x="101" y="516" type="line"/>
      <point x="66" y="516" type="line"/>
    </contour>
  </outline>
</glyph>
<glyph name="o" format="2">
  <advance width="652"/>
  <unicode hex="006F"/>
  <note>
o
</note>
  <anchor x="571" y="0" name="#exit"/>
  <anchor x="326" y="0" name="bottom"/>
  <anchor x="326" y="258" name="center"/>
  <anchor x="579" y="10" name="ogonek"/>
  <anchor x="326" y="516" name="top"/>
  <anchor x="469" y="495" name="topright"/>
  <outline>
    <contour>
      <point x="326" y="-10" type="curve" smooth="yes"/>
      <point x="493" y="-10"/>
      <point x="612" y="93"/>
      <point x="612" y="248" type="curve" smooth="yes"/>
      <point x="612" y="267" type="line" smooth="yes"/>
      <point x="612" y="423"/>
      <point x="493" y="526"/>
      <point x="326" y="526" type="curve" smooth="yes"/>
      <point x="159" y="526"/>
      <point x="40" y="423"/>
      <point x="40" y="267" type="curve" smooth="yes"/>
      <point x="40" y="248" type="line" smooth="yes"/>
      <point x="40" y="93"/>
      <point x="159" y="-10"/>
    </contour>
    <contour>
      <point x="326" y="26" type="curve" smooth="yes"/>
      <point x="180" y="26"/>
      <point x="82" y="110"/>
      <point x="82" y="237" type="curve" smooth="yes"/>
      <point x="82" y="279" type="line" smooth="yes"/>
      <point x="82" y="405"/>
      <point x="180" y="490"/>
      <point x="326" y="490" type="curve" smooth="yes"/>
      <point x="472" y="490"/>
      <point x="570" y="405"/>
      <point x="570" y="279" type="curve" smooth="yes"/>
      <point x="570" y="237" type="line" smooth="yes"/>
      <point x="570" y="110"/>
      <point x="472" y="26"/>
    </contour>
  </outline>
</glyph>
<glyph name="p" format="2">
  <advance width="646"/>
  <unicode hex="0070"/>
  <note>
p
</note>
  <anchor x="326" y="0" name="bottom"/>
  <anchor x="326" y="516" name="top"/>
  <outline>
    <contour>
      <point x="66" y="-167" type="line"/>
      <point x="103" y="-167" type="line"/>
      <point x="103" y="99" type="line"/>
      <point x="108" y="99" type="line"/>
      <point x="151" y="30"/>
      <point x="239" y="-10"/>
      <point x="334" y="-10" type="curve" smooth="yes"/>
      <point x="496" y="-10"/>
      <point x="605" y="93"/>
      <point x="605" y="249" type="curve" smooth="yes"/>
      <point x="605" y="267" type="line" smooth="yes"/>
      <point x="605" y="423"/>
      <point x="496" y="526"/>
      <point x="334" y="526" type="curve" smooth="yes"/>
      <point x="239" y="526"/>
      <point x="151" y="486"/>
      <point x="108" y="416" type="curve"/>
      <point x="103" y="416" type="line"/>
      <point x="101" y="516" type="line"/>
      <point x="66" y="516" type="line"/>
    </contour>
    <contour>
      <point x="329" y="26" type="curve" smooth="yes"/>
      <point x="222" y="26"/>
      <point x="134" y="80"/>
      <point x="103" y="164" type="curve"/>
      <point x="103" y="351" type="line"/>
      <point x="134" y="436"/>
      <point x="222" y="490"/>
      <point x="329" y="490" type="curve" smooth="yes"/>
      <point x="468" y="490"/>
      <point x="563" y="409"/>
      <point x="563" y="288" type="curve" smooth="yes"/>
      <point x="563" y="227" type="line" smooth="yes"/>
      <point x="563" y="107"/>
      <point x="468" y="26"/>
    </contour>
  </outline>
</glyph>
<glyph name="r" format="2">
  <advance width="328"/>
  <unicode hex="0072"/>
  <note>
r
</note>
  <anchor x="83" y="0" name="bottom"/>
  <anchor x="161" y="516" name="top"/>
  <outline>
    <contour>
      <point x="66" y="0" type="line"/>
      <point x="103" y="0" type="line"/>
      <point x="103" y="368" type="line"/>
      <point x="154" y="451"/>
      <point x="185" y="479"/>
      <point x="275" y="479" type="curve" smooth="yes"/>
      <point x="303" y="479" type="line"/>
      <point x="300" y="516" type="line"/>
      <point x="267" y="516" type="line" smooth="yes"/>
      <point x="185" y="516"/>
      <point x="147" y="481"/>
      <point x="110" y="417" type="curve"/>
      <point x="103" y="417" type="line"/>
      <point x="101" y="516" type="line"/>
      <point x="66" y="516" type="line"/>
    </contour>
  </outline>
</glyph>
<glyph name="s" format="2">
  <advance width="531"/>
  <unicode hex="0073"/>
  <note>
s
</note>
  <anchor x="266" y="0" name="bottom"/>
  <anchor x="266" y="516" name="top"/>
  <outline>
    <contour>
      <point x="272" y="-10" type="curve" smooth="yes"/>
      <point x="398" y="-10"/>
      <point x="495" y="36"/>
      <point x="495" y="136" type="curve" smooth="yes"/>
      <point x="495" y="217"/>
      <point x="440" y="258"/>
      <point x="321" y="277" type="curve" smooth="yes"/>
      <point x="219" y="292" type="line" smooth="yes"/>
      <point x="128" y="305"/>
      <point x="93" y="335"/>
      <point x="93" y="386" type="curve" smooth="yes"/>
      <point x="93" y="449"/>
      <point x="149" y="491"/>
      <point x="257" y="491" type="curve" smooth="yes"/>
      <point x="350" y="491"/>
      <point x="425" y="461"/>
      <point x="439" y="390" type="curve"/>
      <point x="481" y="390" type="line"/>
      <point x="467" y="471"/>
      <point x="386" y="526"/>
      <point x="258" y="526" type="curve" smooth="yes"/>
      <point x="142" y="526"/>
      <point x="52" y="475"/>
      <point x="52" y="385" type="curve" smooth="yes"/>
      <point x="52" y="311"/>
      <point x="102" y="272"/>
      <point x="212" y="255" type="curve" smooth="yes"/>
      <point x="330" y="237" type="line" smooth="yes"/>
      <point x="413" y="224"/>
      <point x="453" y="195"/>
      <point x="453" y="133" type="curve" smooth="yes"/>
      <point x="453" y="66"/>
      <point x="392" y="26"/>
      <point x="276" y="26" type="curve" smooth="yes"/>
      <point x="164" y="26"/>
      <point x="90" y="63"/>
      <point x="75" y="135" type="curve"/>
      <point x="33" y="135" type="line"/>
      <point x="49" y="45"/>
      <point x="137" y="-10"/>
    </contour>
  </outline>
</glyph>
<glyph name="t" format="2">
  <advance width="368"/>
  <unicode hex="0074"/>
  <note>
t
</note>
  <anchor x="237" y="0" name="bottom"/>
  <anchor x="175" y="258" name="center"/>
  <anchor x="190" y="516" name="top"/>
  <anchor x="197" y="729" name="topright"/>
  <outline>
    <contour>
      <point x="186" y="0" type="curve" smooth="yes"/>
      <point x="340" y="0" type="line"/>
      <point x="340" y="36" type="line"/>
      <point x="178" y="36" type="line"/>
      <point x="178" y="675" type="line"/>
      <point x="141" y="675" type="line"/>
      <point x="141" y="48" type="line" smooth="yes"/>
      <point x="141" y="17"/>
      <point x="157" y="0"/>
    </contour>
    <contour>
      <point x="25" y="480" type="line"/>
      <point x="324" y="480" type="line"/>
      <point x="324" y="516" type="line"/>
      <point x="25" y="516" type="line"/>
    </contour>
  </outline>
</glyph>
<glyph name="v" format="2">
  <advance width="663"/>
  <unicode hex="0076"/>
  <note>
v
</note>
  <anchor x="331" y="0" name="bottom"/>
  <anchor x="331" y="516" name="top"/>
  <outline>
    <contour>
      <point x="309" y="0" type="line"/>
      <point x="354" y="0" type="line"/>
      <point x="639" y="516" type="line"/>
      <point x="596" y="516" type="line"/>
      <point x="349" y="69" type="line"/>
      <point x="334" y="40" type="line"/>
      <point x="328" y="40" type="line"/>
      <point x="313" y="69" type="line"/>
      <point x="67" y="516" type="line"/>
      <point x="24" y="516" type="line"/>
    </contour>
  </outline>
</glyph>
<glyph name="w" format="2">
  <advance width="936"/>
  <unicode hex="0077"/>
  <note>
w
</note>
  <anchor x="470" y="0" name="bottom"/>
  <anchor x="470" y="516" name="top"/>
  <outline>
    <contour>
      <point x="239" y="0" type="line"/>
      <point x="294" y="0" type="line"/>
      <point x="455" y="437" type="line"/>
      <point x="466" y="470" type="line"/>
      <point x="471" y="470" type="line"/>
      <point x="482" y="437" type="line"/>
      <point x="643" y="0" type="line"/>
      <point x="697" y="0" type="line"/>
      <point x="911" y="516" type="line"/>
      <point x="870" y="516" type="line"/>
      <point x="692" y="83" type="line"/>
      <point x="674" y="37" type="line"/>
      <point x="668" y="37" type="line"/>
      <point x="653" y="83" type="line"/>
      <point x="493" y="516" type="line"/>
      <point x="444" y="516" type="line"/>
      <point x="284" y="83" type="line"/>
      <point x="269" y="37" type="line"/>
      <point x="263" y="37" type="line"/>
      <point x="244" y="83" type="line"/>
      <point x="67" y="516" type="line"/>
      <point x="25" y="516" type="line"/>
    </contour>
  </outline>
</glyph>
<glyph name="x" format="2">
  <advance width="606"/>
  <unicode hex="0078"/>
  <note>
x
</note>
  <anchor x="302" y="0" name="bottom"/>
  <anchor x="302" y="516" name="top"/>
  <outline>
    <contour>
      <point x="23" y="0" type="line"/>
      <point x="71" y="0" type="line"/>
      <point x="297" y="238" type="line"/>
      <point x="307" y="238" type="line"/>
      <point x="531" y="0" type="line"/>
      <point x="582" y="0" type="line"/>
      <point x="330" y="266" type="line"/>
      <point x="567" y="516" type="line"/>
      <point x="519" y="516" type="line"/>
      <point x="307" y="290" type="line"/>
      <point x="298" y="290" type="line"/>
      <point x="85" y="516" type="line"/>
      <point x="36" y="516" type="line"/>
      <point x="275" y="266" type="line"/>
    </contour>
  </outline>
</glyph>
<glyph name="y" format="2">
  <advance width="646"/>
  <unicode hex="0079"/>
  <note>
y
</note>
  <anchor x="474" y="0" name="bottom"/>
  <anchor x="323" y="516" name="top"/>
  <outline>
    <contour>
      <point x="57" y="-167" type="line"/>
      <point x="298" y="-167" type="line" smooth="yes"/>
      <point x="325" y="-167"/>
      <point x="339" y="-154"/>
      <point x="339" y="-128" type="curve" smooth="yes"/>
      <point x="339" y="63" type="line"/>
      <point x="622" y="516" type="line"/>
      <point x="577" y="516" type="line"/>
      <point x="337" y="131" type="line"/>
      <point x="324" y="105" type="line"/>
      <point x="317" y="105" type="line"/>
      <point x="303" y="131" type="line"/>
      <point x="68" y="516" type="line"/>
      <point x="24" y="516" type="line"/>
      <point x="302" y="61" type="line"/>
      <point x="302" y="-131" type="line"/>
      <point x="57" y="-131" type="line"/>
    </contour>
  </outline>
</glyph>
<glyph name="z" format="2">
  <advance width="550"/>
  <unicode hex="007A"/>
  <note>
z
</note>
  <anchor x="274" y="0" name="bottom"/>
  <anchor x="274" y="258" name="center"/>
  <anchor x="274" y="516" name="top"/>
  <outline>
    <contour>
      <point x="27" y="0" type="line"/>
      <point x="514" y="0" type="line"/>
      <point x="514" y="37" type="line"/>
      <point x="82" y="37" type="line"/>
      <point x="520" y="480" type="line"/>
      <point x="520" y="516" type="line"/>
      <point x="53" y="516" type="line"/>
      <point x="53" y="479" type="line"/>
      <point x="468" y="479" type="line"/>
      <point x="27" y="33" type="line"/>
    </contour>
  </outline>
</glyph>
<glyph name="braceleft" format="2">
  <advance width="409"/>
  <unicode hex="007B"/>
  <outline>
    <contour>
      <point x="188" y="-167" type="curve" smooth="yes"/>
      <point x="371" y="-167" type="line"/>
      <point x="371" y="-133" type="line"/>
      <point x="183" y="-133" type="line"/>
      <point x="183" y="207" type="line" smooth="yes"/>
      <point x="183" y="266"/>
      <point x="150" y="308"/>
      <point x="113" y="311" type="curve"/>
      <point x="113" y="315" type="line"/>
      <point x="148" y="316"/>
      <point x="183" y="356"/>
      <point x="183" y="418" type="curve" smooth="yes"/>
      <point x="183" y="758" type="line"/>
      <point x="371" y="758" type="line"/>
      <point x="371" y="793" type="line"/>
      <point x="188" y="793" type="line" smooth="yes"/>
      <point x="160" y="793"/>
      <point x="147" y="774"/>
      <point x="147" y="748" type="curve" smooth="yes"/>
      <point x="147" y="418" type="line" smooth="yes"/>
      <point x="147" y="362"/>
      <point x="115" y="332"/>
      <point x="84" y="332" type="curve" smooth="yes"/>
      <point x="37" y="332" type="line"/>
      <point x="37" y="293" type="line"/>
      <point x="84" y="293" type="line" smooth="yes"/>
      <point x="115" y="293"/>
      <point x="147" y="263"/>
      <point x="147" y="208" type="curve" smooth="yes"/>
      <point x="147" y="-122" type="line" smooth="yes"/>
      <point x="147" y="-148"/>
      <point x="160" y="-167"/>
    </contour>
  </outline>
</glyph>
<glyph name="asciitilde" format="2">
  <advance width="700"/>
  <unicode hex="007E"/>
  <outline>
    <contour>
      <point x="186" y="315" type="curve"/>
      <point x="207" y="315" type="line"/>
      <point x="203" y="355"/>
      <point x="210" y="380"/>
      <point x="253" y="380" type="curve" smooth="yes"/>
      <point x="299" y="380"/>
      <point x="390" y="317"/>
      <point x="448" y="317" type="curve" smooth="yes"/>
      <point x="503" y="317"/>
      <point x="526" y="351"/>
      <point x="514" y="415" type="curve"/>
      <point x="493" y="415" type="line"/>
      <point x="497" y="375"/>
      <point x="491" y="350"/>
      <point x="448" y="350" type="curve" smooth="yes"/>
      <point x="403" y="350"/>
      <point x="312" y="413"/>
      <point x="253" y="413" type="curve" smooth="yes"/>
      <point x="201" y="413"/>
      <point x="173" y="382"/>
    </contour>
  </outline>
</glyph>
<glyph name="cent" format="2">
  <advance width="656"/>
  <unicode hex="00A2"/>
  <anchor x="340" y="107" name="bottom"/>
  <anchor x="330" y="623" name="top"/>
  <outline>
    <contour>
      <point x="332" y="612" type="line"/>
      <point x="369" y="612" type="line"/>
      <point x="369" y="729" type="line"/>
      <point x="332" y="729" type="line"/>
    </contour>
    <contour>
      <point x="332" y="0" type="line"/>
      <point x="369" y="0" type="line"/>
      <point x="369" y="114" type="line"/>
      <point x="332" y="114" type="line"/>
    </contour>
    <contour>
      <point x="340" y="97" type="curve" smooth="yes"/>
      <point x="471" y="97"/>
      <point x="579" y="157"/>
      <point x="607" y="258" type="curve"/>
      <point x="567" y="258" type="line"/>
      <point x="541" y="179"/>
      <point x="458" y="133"/>
      <point x="340" y="133" type="curve" smooth="yes"/>
      <point x="194" y="133"/>
      <point x="96" y="217"/>
      <point x="96" y="344" type="curve" smooth="yes"/>
      <point x="96" y="386" type="line" smooth="yes"/>
      <point x="96" y="512"/>
      <point x="194" y="597"/>
      <point x="340" y="597" type="curve" smooth="yes"/>
      <point x="458" y="597"/>
      <point x="541" y="551"/>
      <point x="567" y="472" type="curve"/>
      <point x="607" y="472" type="line"/>
      <point x="579" y="573"/>
      <point x="471" y="633"/>
      <point x="340" y="633" type="curve" smooth="yes"/>
      <point x="173" y="633"/>
      <point x="54" y="530"/>
      <point x="54" y="374" type="curve" smooth="yes"/>
      <point x="54" y="355" type="line" smooth="yes"/>
      <point x="54" y="200"/>
      <point x="173" y="97"/>
    </contour>
  </outline>
</glyph>
<glyph name="sterling" format="2">
  <advance width="712"/>
  <unicode hex="00A3"/>
  <outline>
    <contour>
      <point x="48" y="0" type="line"/>
      <point x="654" y="0" type="line"/>
      <point x="654" y="180" type="line"/>
      <point x="617" y="180" type="line"/>
      <point x="617" y="40" type="line"/>
      <point x="189" y="40" type="line"/>
      <point x="189" y="341" type="line"/>
      <point x="474" y="341" type="line"/>
      <point x="474" y="378" type="line"/>
      <point x="189" y="378" type="line"/>
      <point x="189" y="504" type="line" smooth="yes"/>
      <point x="189" y="622"/>
      <point x="250" y="698"/>
      <point x="396" y="698" type="curve" smooth="yes"/>
      <point x="520" y="698"/>
      <point x="602" y="637"/>
      <point x="602" y="516" type="curve" smooth="yes"/>
      <point x="602" y="500" type="line"/>
      <point x="639" y="500" type="line"/>
      <point x="639" y="518" type="line" smooth="yes"/>
      <point x="639" y="652"/>
      <point x="549" y="736"/>
      <point x="397" y="736" type="curve" smooth="yes"/>
      <point x="249" y="736"/>
      <point x="151" y="660"/>
      <point x="151" y="505" type="curve" smooth="yes"/>
      <point x="151" y="378" type="line"/>
      <point x="48" y="368" type="line"/>
      <point x="48" y="341" type="line"/>
      <point x="151" y="341" type="line"/>
      <point x="151" y="40" type="line"/>
      <point x="48" y="40" type="line"/>
    </contour>
  </outline>
</glyph>
<glyph name="currency" format="2">
  <advance width="625"/>
  <unicode hex="00A4"/>
  <outline>
    <contour>
      <point x="63" y="79" type="line"/>
      <point x="181" y="197" type="line"/>
      <point x="217" y="171"/>
      <point x="261" y="156"/>
      <point x="312" y="156" type="curve" smooth="yes"/>
      <point x="362" y="156"/>
      <point x="407" y="170"/>
      <point x="442" y="198" type="curve"/>
      <point x="562" y="79" type="line"/>
      <point x="585" y="101" type="line"/>
      <point x="465" y="222" type="line"/>
      <point x="495" y="254"/>
      <point x="512" y="301"/>
      <point x="512" y="350" type="curve" smooth="yes"/>
      <point x="512" y="401"/>
      <point x="493" y="445"/>
      <point x="466" y="479" type="curve"/>
      <point x="585" y="597" type="line"/>
      <point x="562" y="622" type="line"/>
      <point x="442" y="502" type="line"/>
      <point x="408" y="530"/>
      <point x="361" y="544"/>
      <point x="312" y="544" type="curve" smooth="yes"/>
      <point x="259" y="544"/>
      <point x="215" y="528"/>
      <point x="182" y="502" type="curve"/>
      <point x="63" y="622" type="line"/>
      <point x="40" y="597" type="line"/>
      <point x="159" y="479" type="line"/>
      <point x="130" y="446"/>
      <point x="109" y="398"/>
      <point x="109" y="350" type="curve" smooth="yes"/>
      <point x="109" y="298"/>
      <point x="130" y="253"/>
      <point x="158" y="222" type="curve"/>
      <point x="40" y="101" type="line"/>
    </contour>
    <contour>
      <point x="312" y="189" type="curve" smooth="yes"/>
      <point x="215" y="189"/>
      <point x="144" y="257"/>
      <point x="144" y="349" type="curve" smooth="yes"/>
      <point x="144" y="444"/>
      <point x="215" y="509"/>
      <point x="312" y="509" type="curve" smooth="yes"/>
      <point x="408" y="509"/>
      <point x="479" y="443"/>
      <point x="479" y="349" type="curve" smooth="yes"/>
      <point x="479" y="258"/>
      <point x="408" y="189"/>
    </contour>
  </outline>
</glyph>
<glyph name="brokenbar" format="2">
  <advance width="179"/>
  <unicode hex="00A6"/>
  <outline>
    <contour>
      <point x="71" y="416" type="line"/>
      <point x="108" y="416" type="line"/>
      <point x="108" y="729" type="line"/>
      <point x="71" y="729" type="line"/>
    </contour>
    <contour>
      <point x="71" y="-67" type="line"/>
      <point x="108" y="-67" type="line"/>
      <point x="108" y="246" type="line"/>
      <point x="71" y="246" type="line"/>
    </contour>
  </outline>
</glyph>
<glyph name="section" format="2">
  <advance width="515"/>
  <unicode hex="00A7"/>
  <outline>
    <contour>
      <point x="251" y="-10" type="curve" smooth="yes"/>
      <point x="367" y="-10"/>
      <point x="444" y="42"/>
      <point x="444" y="135" type="curve" smooth="yes"/>
      <point x="444" y="184"/>
      <point x="427" y="216"/>
      <point x="398" y="237" type="curve"/>
      <point x="433" y="262"/>
      <point x="454" y="299"/>
      <point x="454" y="347" type="curve" smooth="yes"/>
      <point x="454" y="451"/>
      <point x="381" y="478"/>
      <point x="279" y="493" type="curve" smooth="yes"/>
      <point x="172" y="508"/>
      <point x="122" y="532"/>
      <point x="122" y="601" type="curve" smooth="yes"/>
      <point x="122" y="664"/>
      <point x="175" y="706"/>
      <point x="269" y="706" type="curve" smooth="yes"/>
      <point x="355" y="706"/>
      <point x="413" y="672"/>
      <point x="418" y="585" type="curve"/>
      <point x="454" y="585" type="line"/>
      <point x="451" y="681"/>
      <point x="384" y="739"/>
      <point x="268" y="739" type="curve" smooth="yes"/>
      <point x="158" y="739"/>
      <point x="85" y="682"/>
      <point x="85" y="597" type="curve" smooth="yes"/>
      <point x="85" y="549"/>
      <point x="103" y="518"/>
      <point x="138" y="496" type="curve"/>
      <point x="100" y="471"/>
      <point x="75" y="429"/>
      <point x="75" y="385" type="curve" smooth="yes"/>
      <point x="75" y="293"/>
      <point x="136" y="263"/>
      <point x="253" y="246" type="curve" smooth="yes"/>
      <point x="361" y="230"/>
      <point x="406" y="207"/>
      <point x="406" y="132" type="curve" smooth="yes"/>
      <point x="406" y="62"/>
      <point x="351" y="23"/>
      <point x="252" y="23" type="curve" smooth="yes"/>
      <point x="157" y="23"/>
      <point x="93" y="63"/>
      <point x="87" y="149" type="curve"/>
      <point x="50" y="149" type="line"/>
      <point x="55" y="53"/>
      <point x="127" y="-10"/>
    </contour>
    <contour>
      <point x="370" y="253" type="curve"/>
      <point x="340" y="267"/>
      <point x="302" y="275"/>
      <point x="259" y="281" type="curve" smooth="yes"/>
      <point x="159" y="295"/>
      <point x="112" y="320"/>
      <point x="112" y="389" type="curve" smooth="yes"/>
      <point x="112" y="426"/>
      <point x="134" y="458"/>
      <point x="170" y="482" type="curve"/>
      <point x="197" y="471"/>
      <point x="232" y="464"/>
      <point x="273" y="458" type="curve" smooth="yes"/>
      <point x="374" y="443"/>
      <point x="416" y="419"/>
      <point x="416" y="344" type="curve" smooth="yes"/>
      <point x="416" y="306"/>
      <point x="400" y="278"/>
    </contour>
  </outline>
</glyph>
<glyph name="ordfeminine" format="2">
  <advance width="374"/>
  <unicode hex="00AA"/>
  <outline>
    <contour>
      <point x="152" y="386" type="curve" smooth="yes"/>
      <point x="218" y="386"/>
      <point x="277" y="414"/>
      <point x="296" y="455" type="curve"/>
      <point x="298" y="455" type="line"/>
      <point x="300" y="392" type="line"/>
      <point x="333" y="392" type="line"/>
      <point x="333" y="619" type="line" smooth="yes"/>
      <point x="333" y="688"/>
      <point x="286" y="735"/>
      <point x="187" y="735" type="curve" smooth="yes"/>
      <point x="101" y="735"/>
      <point x="38" y="696"/>
      <point x="36" y="635" type="curve"/>
      <point x="69" y="635" type="line"/>
      <point x="71" y="677"/>
      <point x="114" y="706"/>
      <point x="186" y="706" type="curve" smooth="yes"/>
      <point x="254" y="706"/>
      <point x="297" y="681"/>
      <point x="297" y="621" type="curve" smooth="yes"/>
      <point x="297" y="595" type="line"/>
      <point x="315" y="601" type="line"/>
      <point x="157" y="587" type="line" smooth="yes"/>
      <point x="80" y="579"/>
      <point x="25" y="556"/>
      <point x="25" y="482" type="curve" smooth="yes"/>
      <point x="25" y="480" type="line" smooth="yes"/>
      <point x="25" y="416"/>
      <point x="81" y="386"/>
    </contour>
    <contour>
      <point x="159" y="415" type="curve" smooth="yes"/>
      <point x="100" y="415"/>
      <point x="60" y="440"/>
      <point x="60" y="481" type="curve" smooth="yes"/>
      <point x="60" y="489" type="line" smooth="yes"/>
      <point x="60" y="538"/>
      <point x="100" y="559"/>
      <point x="160" y="563" type="curve" smooth="yes"/>
      <point x="297" y="574" type="line"/>
      <point x="297" y="506" type="line" smooth="yes"/>
      <point x="297" y="451"/>
      <point x="238" y="415"/>
    </contour>
  </outline>
</glyph>
<glyph name="logicalnot" format="2">
  <advance width="720"/>
  <unicode hex="00AC"/>
  <outline>
    <contour>
      <point x="549" y="123" type="line"/>
      <point x="581" y="123" type="line"/>
      <point x="581" y="384" type="line"/>
      <point x="83" y="384" type="line"/>
      <point x="83" y="349" type="line"/>
      <point x="549" y="349" type="line"/>
    </contour>
  </outline>
</glyph>
<glyph name="registered" format="2">
  <advance width="653"/>
  <unicode hex="00AE"/>
  <outline>
    <contour>
      <point x="326" y="232" type="curve"/>
      <point x="477" y="232"/>
      <point x="595" y="338"/>
      <point x="595" y="486" type="curve" smooth="yes"/>
      <point x="595" y="633"/>
      <point x="478" y="738"/>
      <point x="326" y="738" type="curve" smooth="yes"/>
      <point x="176" y="738"/>
      <point x="58" y="632"/>
      <point x="58" y="486" type="curve" smooth="yes"/>
      <point x="58" y="338"/>
      <point x="174" y="232"/>
    </contour>
    <contour>
      <point x="327" y="258" type="curve" smooth="yes"/>
      <point x="193" y="258"/>
      <point x="87" y="353"/>
      <point x="87" y="484" type="curve" smooth="yes"/>
      <point x="87" y="616"/>
      <point x="192" y="712"/>
      <point x="327" y="712" type="curve" smooth="yes"/>
      <point x="461" y="712"/>
      <point x="566" y="615"/>
      <point x="566" y="484" type="curve" smooth="yes"/>
      <point x="566" y="352"/>
      <point x="460" y="258"/>
    </contour>
    <contour>
      <point x="215" y="358" type="line"/>
      <point x="245" y="358" type="line"/>
      <point x="245" y="587" type="line"/>
      <point x="369" y="587" type="line" smooth="yes"/>
      <point x="403" y="587"/>
      <point x="422" y="570"/>
      <point x="422" y="544" type="curve" smooth="yes"/>
      <point x="422" y="532" type="line" smooth="yes"/>
      <point x="422" y="506"/>
      <point x="403" y="490"/>
      <point x="369" y="490" type="curve" smooth="yes"/>
      <point x="239" y="490" type="line"/>
      <point x="239" y="464" type="line"/>
      <point x="329" y="464" type="line"/>
      <point x="426" y="358" type="line"/>
      <point x="464" y="358" type="line"/>
      <point x="361" y="471" type="line"/>
      <point x="358" y="465" type="line"/>
      <point x="369" y="465" type="line" smooth="yes"/>
      <point x="420" y="465"/>
      <point x="454" y="491"/>
      <point x="454" y="539" type="curve" smooth="yes"/>
      <point x="454" y="588"/>
      <point x="421" y="613"/>
      <point x="367" y="613" type="curve" smooth="yes"/>
      <point x="215" y="613" type="line"/>
    </contour>
  </outline>
</glyph>
<glyph name="degree" format="2">
  <advance width="396"/>
  <unicode hex="00B0"/>
  <outline>
    <contour>
      <point x="197" y="443" type="curve" smooth="yes"/>
      <point x="283" y="443"/>
      <point x="350" y="503"/>
      <point x="350" y="590" type="curve" smooth="yes"/>
      <point x="350" y="678"/>
      <point x="283" y="737"/>
      <point x="197" y="737" type="curve" smooth="yes"/>
      <point x="112" y="737"/>
      <point x="45" y="678"/>
      <point x="45" y="590" type="curve" smooth="yes"/>
      <point x="45" y="503"/>
      <point x="112" y="443"/>
    </contour>
    <contour>
      <point x="197" y="478" type="curve" smooth="yes"/>
      <point x="132" y="478"/>
      <point x="82" y="524"/>
      <point x="82" y="590" type="curve" smooth="yes"/>
      <point x="82" y="656"/>
      <point x="132" y="702"/>
      <point x="197" y="702" type="curve" smooth="yes"/>
      <point x="263" y="702"/>
      <point x="313" y="656"/>
      <point x="313" y="590" type="curve" smooth="yes"/>
      <point x="313" y="524"/>
      <point x="263" y="478"/>
    </contour>
  </outline>
</glyph>
<glyph name="plusminus" format="2">
  <advance width="720"/>
  <unicode hex="00B1"/>
  <outline>
    <contour>
      <point x="332" y="171" type="line"/>
      <point x="367" y="171" type="line"/>
      <point x="367" y="366" type="line"/>
      <point x="602" y="366" type="line"/>
      <point x="602" y="403" type="line"/>
      <point x="367" y="403" type="line"/>
      <point x="367" y="591" type="line"/>
      <point x="332" y="591" type="line"/>
      <point x="332" y="403" type="line"/>
      <point x="98" y="403" type="line"/>
      <point x="98" y="366" type="line"/>
      <point x="332" y="366" type="line"/>
    </contour>
    <contour>
      <point x="98" y="0" type="line"/>
      <point x="602" y="0" type="line"/>
      <point x="602" y="37" type="line"/>
      <point x="98" y="37" type="line"/>
    </contour>
  </outline>
</glyph>
<glyph name="paragraph" format="2">
  <advance width="647"/>
  <unicode hex="00B6"/>
  <outline>
    <contour>
      <point x="212" y="-151" type="line"/>
      <point x="244" y="-151" type="line"/>
      <point x="244" y="695" type="line"/>
      <point x="462" y="695" type="line"/>
      <point x="462" y="-151" type="line"/>
      <point x="493" y="-151" type="line"/>
      <point x="493" y="695" type="line"/>
      <point x="581" y="695" type="line"/>
      <point x="581" y="729" type="line"/>
      <point x="212" y="729" type="line" smooth="yes"/>
      <point x="100" y="729"/>
      <point x="25" y="677"/>
      <point x="25" y="570" type="curve" smooth="yes"/>
      <point x="25" y="470"/>
      <point x="86" y="404"/>
      <point x="212" y="405" type="curve"/>
    </contour>
  </outline>
</glyph>
<glyph name="ordmasculine" format="2">
  <advance width="392"/>
  <unicode hex="00BA"/>
  <outline>
    <contour>
      <point x="195" y="385" type="curve" smooth="yes"/>
      <point x="296" y="385"/>
      <point x="367" y="448"/>
      <point x="367" y="554" type="curve" smooth="yes"/>
      <point x="367" y="566" type="line" smooth="yes"/>
      <point x="367" y="671"/>
      <point x="300" y="735"/>
      <point x="195" y="735" type="curve" smooth="yes"/>
      <point x="92" y="735"/>
      <point x="25" y="671"/>
      <point x="25" y="566" type="curve" smooth="yes"/>
      <point x="25" y="554" type="line" smooth="yes"/>
      <point x="25" y="448"/>
      <point x="92" y="385"/>
    </contour>
    <contour>
      <point x="195" y="418" type="curve" smooth="yes"/>
      <point x="116" y="418"/>
      <point x="61" y="461"/>
      <point x="61" y="530" type="curve" smooth="yes"/>
      <point x="61" y="590" type="line" smooth="yes"/>
      <point x="61" y="658"/>
      <point x="115" y="704"/>
      <point x="195" y="704" type="curve" smooth="yes"/>
      <point x="276" y="704"/>
      <point x="329" y="660"/>
      <point x="329" y="590" type="curve" smooth="yes"/>
      <point x="329" y="530" type="line" smooth="yes"/>
      <point x="329" y="460"/>
      <point x="276" y="418"/>
    </contour>
  </outline>
</glyph>
<glyph name="multiply" format="2">
  <advance width="720"/>
  <unicode hex="00D7"/>
  <outline>
    <contour>
      <point x="128" y="118" type="line"/>
      <point x="597" y="586" type="line"/>
      <point x="572" y="611" type="line"/>
      <point x="104" y="142" type="line"/>
    </contour>
    <contour>
      <point x="573" y="118" type="line"/>
      <point x="597" y="142" type="line"/>
      <point x="129" y="611" type="line"/>
      <point x="104" y="586" type="line"/>
    </contour>
  </outline>
</glyph>
<glyph name="Thorn" format="2">
  <advance width="678"/>
  <unicode hex="00DE"/>
  <outline>
    <contour>
      <point x="80" y="0" type="line"/>
      <point x="122" y="0" type="line"/>
      <point x="122" y="729" type="line"/>
      <point x="80" y="729" type="line"/>
    </contour>
    <contour>
      <point x="106" y="163" type="line"/>
      <point x="388" y="163" type="line" smooth="yes"/>
      <point x="534" y="163"/>
      <point x="633" y="228"/>
      <point x="633" y="365" type="curve" smooth="yes"/>
      <point x="633" y="500"/>
      <point x="534" y="566"/>
      <point x="388" y="566" type="curve" smooth="yes"/>
      <point x="106" y="566" type="line"/>
      <point x="106" y="528" type="line"/>
      <point x="404" y="528" type="line" smooth="yes"/>
      <point x="521" y="528"/>
      <point x="588" y="471"/>
      <point x="588" y="385" type="curve" smooth="yes"/>
      <point x="588" y="344" type="line" smooth="yes"/>
      <point x="588" y="258"/>
      <point x="521" y="201"/>
      <point x="404" y="201" type="curve" smooth="yes"/>
      <point x="106" y="201" type="line"/>
    </contour>
  </outline>
</glyph>
<glyph name="germandbls" format="2">
  <advance width="688"/>
  <unicode hex="00DF"/>
  <outline>
    <contour>
      <point x="143" y="0" type="line"/>
      <point x="180" y="0" type="line"/>
      <point x="180" y="509" type="line" smooth="yes"/>
      <point x="180" y="627"/>
      <point x="248" y="699"/>
      <point x="373" y="699" type="curve" smooth="yes"/>
      <point x="488" y="699"/>
      <point x="557" y="643"/>
      <point x="557" y="553" type="curve" smooth="yes"/>
      <point x="557" y="466"/>
      <point x="495" y="411"/>
      <point x="382" y="411" type="curve" smooth="yes"/>
      <point x="331" y="411" type="line"/>
      <point x="331" y="377" type="line"/>
      <point x="418" y="377" type="line" smooth="yes"/>
      <point x="532" y="377"/>
      <point x="609" y="323"/>
      <point x="609" y="222" type="curve" smooth="yes"/>
      <point x="609" y="184" type="line" smooth="yes"/>
      <point x="609" y="109"/>
      <point x="545" y="38"/>
      <point x="399" y="38" type="curve" smooth="yes"/>
      <point x="272" y="38" type="line"/>
      <point x="272" y="0" type="line"/>
      <point x="402" y="0" type="line" smooth="yes"/>
      <point x="558" y="0"/>
      <point x="652" y="80"/>
      <point x="652" y="202" type="curve" smooth="yes"/>
      <point x="652" y="311"/>
      <point x="589" y="383"/>
      <point x="479" y="399" type="curve"/>
      <point x="479" y="404" type="line"/>
      <point x="560" y="430"/>
      <point x="596" y="491"/>
      <point x="596" y="559" type="curve" smooth="yes"/>
      <point x="596" y="665"/>
      <point x="506" y="739"/>
      <point x="373" y="739" type="curve" smooth="yes"/>
      <point x="242" y="739"/>
      <point x="143" y="664"/>
      <point x="143" y="515" type="curve" smooth="yes"/>
    </contour>
    <contour>
      <point x="25" y="479" type="line"/>
      <point x="157" y="479" type="line"/>
      <point x="157" y="517" type="line"/>
      <point x="25" y="517" type="line"/>
    </contour>
  </outline>
</glyph>
<glyph name="ae" format="2">
  <advance width="1042"/>
  <unicode hex="00E6"/>
  <outline>
    <contour>
      <point x="221" y="-10" type="curve" smooth="yes"/>
      <point x="326" y="-10"/>
      <point x="421" y="32"/>
      <point x="477" y="108" type="curve"/>
      <point x="483" y="108" type="line"/>
      <point x="528" y="32"/>
      <point x="620" y="-10"/>
      <point x="733" y="-10" type="curve" smooth="yes"/>
      <point x="863" y="-10"/>
      <point x="969" y="50"/>
      <point x="997" y="141" type="curve"/>
      <point x="957" y="141" type="line"/>
      <point x="931" y="72"/>
      <point x="848" y="26"/>
      <point x="730" y="26" type="curve" smooth="yes"/>
      <point x="584" y="26"/>
      <point x="486" y="110"/>
      <point x="486" y="237" type="curve" smooth="yes"/>
      <point x="486" y="272" type="line" smooth="yes"/>
      <point x="486" y="400"/>
      <point x="581" y="490"/>
      <point x="730" y="490" type="curve" smooth="yes"/>
      <point x="870" y="490"/>
      <point x="963" y="414"/>
      <point x="963" y="277" type="curve" smooth="yes"/>
      <point x="963" y="275" type="line"/>
      <point x="977" y="293" type="line"/>
      <point x="478" y="293" type="line"/>
      <point x="478" y="260" type="line"/>
      <point x="1005" y="260" type="line"/>
      <point x="1005" y="271" type="line" smooth="yes"/>
      <point x="1005" y="425"/>
      <point x="895" y="526"/>
      <point x="732" y="526" type="curve" smooth="yes"/>
      <point x="619" y="526"/>
      <point x="525" y="478"/>
      <point x="480" y="390" type="curve"/>
      <point x="460" y="473"/>
      <point x="386" y="526"/>
      <point x="275" y="526" type="curve" smooth="yes"/>
      <point x="156" y="526"/>
      <point x="69" y="472"/>
      <point x="53" y="374" type="curve"/>
      <point x="93" y="374" type="line"/>
      <point x="106" y="445"/>
      <point x="163" y="491"/>
      <point x="274" y="491" type="curve" smooth="yes"/>
      <point x="377" y="491"/>
      <point x="446" y="443"/>
      <point x="446" y="319" type="curve" smooth="yes"/>
      <point x="446" y="270" type="line" smooth="yes"/>
      <point x="446" y="218"/>
      <point x="451" y="179"/>
      <point x="464" y="147" type="curve"/>
      <point x="426" y="73"/>
      <point x="339" y="24"/>
      <point x="226" y="24" type="curve" smooth="yes"/>
      <point x="134" y="24"/>
      <point x="75" y="62"/>
      <point x="75" y="131" type="curve" smooth="yes"/>
      <point x="75" y="220"/>
      <point x="140" y="261"/>
      <point x="283" y="261" type="curve" smooth="yes"/>
      <point x="458" y="261" type="line"/>
      <point x="458" y="295" type="line"/>
      <point x="281" y="295" type="line" smooth="yes"/>
      <point x="144" y="295"/>
      <point x="37" y="256"/>
      <point x="37" y="131" type="curve" smooth="yes"/>
      <point x="37" y="39"/>
      <point x="111" y="-10"/>
    </contour>
  </outline>
</glyph>
<glyph name="eth" format="2">
  <advance width="613"/>
  <unicode hex="00F0"/>
  <outline>
    <contour>
      <point x="299" y="-10" type="curve" smooth="yes"/>
      <point x="460" y="-10"/>
      <point x="572" y="88"/>
      <point x="572" y="235" type="curve" smooth="yes"/>
      <point x="572" y="246" type="line" smooth="yes"/>
      <point x="572" y="417"/>
      <point x="439" y="596"/>
      <point x="275" y="729" type="curve"/>
      <point x="226" y="729" type="line"/>
      <point x="339" y="635"/>
      <point x="440" y="521"/>
      <point x="486" y="429" type="curve"/>
      <point x="480" y="428" type="line"/>
      <point x="437" y="468"/>
      <point x="374" y="485"/>
      <point x="309" y="485" type="curve" smooth="yes"/>
      <point x="149" y="485"/>
      <point x="40" y="387"/>
      <point x="40" y="240" type="curve" smooth="yes"/>
      <point x="40" y="223" type="line" smooth="yes"/>
      <point x="40" y="83"/>
      <point x="143" y="-10"/>
    </contour>
    <contour>
      <point x="299" y="25" type="curve" smooth="yes"/>
      <point x="168" y="25"/>
      <point x="81" y="96"/>
      <point x="81" y="222" type="curve" smooth="yes"/>
      <point x="81" y="250" type="line" smooth="yes"/>
      <point x="81" y="370"/>
      <point x="169" y="451"/>
      <point x="313" y="451" type="curve" smooth="yes"/>
      <point x="389" y="451"/>
      <point x="465" y="428"/>
      <point x="514" y="364" type="curve"/>
      <point x="526" y="327"/>
      <point x="532" y="282"/>
      <point x="532" y="257" type="curve" smooth="yes"/>
      <point x="532" y="228" type="line" smooth="yes"/>
      <point x="532" y="106"/>
      <point x="439" y="25"/>
    </contour>
    <contour>
      <point x="193" y="549" type="line"/>
      <point x="515" y="616" type="line"/>
      <point x="515" y="648" type="line"/>
      <point x="193" y="580" type="line"/>
    </contour>
  </outline>
</glyph>
<glyph name="divide" format="2">
  <advance width="720"/>
  <unicode hex="00F7"/>
  <outline>
    <contour>
      <point x="99" y="348" type="line"/>
      <point x="601" y="348" type="line"/>
      <point x="601" y="382" type="line"/>
      <point x="99" y="382" type="line"/>
    </contour>
    <contour>
      <point x="325" y="483" type="line"/>
      <point x="375" y="483" type="line"/>
      <point x="375" y="547" type="line"/>
      <point x="325" y="547" type="line"/>
    </contour>
    <contour>
      <point x="325" y="183" type="line"/>
      <point x="375" y="183" type="line"/>
      <point x="375" y="247" type="line"/>
      <point x="325" y="247" type="line"/>
    </contour>
  </outline>
</glyph>
<glyph name="thorn" format="2">
  <advance width="645"/>
  <unicode hex="00FE"/>
  <outline>
    <contour>
      <point x="66" y="-167" type="line"/>
      <point x="103" y="-167" type="line"/>
      <point x="103" y="99" type="line"/>
      <point x="108" y="99" type="line"/>
      <point x="151" y="30"/>
      <point x="239" y="-10"/>
      <point x="333" y="-10" type="curve" smooth="yes"/>
      <point x="495" y="-10"/>
      <point x="604" y="93"/>
      <point x="604" y="249" type="curve" smooth="yes"/>
      <point x="604" y="267" type="line" smooth="yes"/>
      <point x="604" y="423"/>
      <point x="495" y="526"/>
      <point x="333" y="526" type="curve" smooth="yes"/>
      <point x="239" y="526"/>
      <point x="151" y="486"/>
      <point x="108" y="416" type="curve"/>
      <point x="103" y="416" type="line"/>
      <point x="103" y="729" type="line"/>
      <point x="66" y="729" type="line"/>
    </contour>
    <contour>
      <point x="329" y="26" type="curve" smooth="yes"/>
      <point x="222" y="26"/>
      <point x="134" y="80"/>
      <point x="103" y="164" type="curve"/>
      <point x="103" y="351" type="line"/>
      <point x="134" y="436"/>
      <point x="222" y="490"/>
      <point x="329" y="490" type="curve" smooth="yes"/>
      <point x="468" y="490"/>
      <point x="563" y="409"/>
      <point x="563" y="288" type="curve" smooth="yes"/>
      <point x="563" y="227" type="line" smooth="yes"/>
      <point x="563" y="107"/>
      <point x="468" y="26"/>
    </contour>
  </outline>
</glyph>
<glyph name="Eng" format="2">
  <advance width="901"/>
  <unicode hex="014A"/>
  <outline>
    <contour>
      <point x="616" y="-167" type="line"/>
      <point x="756" y="-167" type="line" smooth="yes"/>
      <point x="795" y="-167"/>
      <point x="821" y="-149"/>
      <point x="821" y="-101" type="curve" smooth="yes"/>
      <point x="821" y="729" type="line"/>
      <point x="779" y="729" type="line"/>
      <point x="779" y="50" type="line"/>
      <point x="772" y="50" type="line"/>
      <point x="752" y="71" type="line"/>
      <point x="139" y="729" type="line"/>
      <point x="80" y="729" type="line"/>
      <point x="80" y="0" type="line"/>
      <point x="122" y="0" type="line"/>
      <point x="122" y="679" type="line"/>
      <point x="129" y="679" type="line"/>
      <point x="144" y="662" type="line"/>
      <point x="762" y="0" type="line"/>
      <point x="779" y="0" type="line"/>
      <point x="779" y="-127" type="line"/>
      <point x="616" y="-127" type="line"/>
    </contour>
  </outline>
</glyph>
<glyph name="eng" format="2">
  <advance width="610"/>
  <unicode hex="014B"/>
  <outline>
    <contour>
      <point x="363" y="-167" type="line"/>
      <point x="505" y="-167" type="line" smooth="yes"/>
      <point x="533" y="-167"/>
      <point x="553" y="-153"/>
      <point x="553" y="-117" type="curve" smooth="yes"/>
      <point x="553" y="317" type="line" smooth="yes"/>
      <point x="553" y="442"/>
      <point x="479" y="526"/>
      <point x="332" y="526" type="curve" smooth="yes"/>
      <point x="230" y="526"/>
      <point x="152" y="480"/>
      <point x="109" y="416" type="curve"/>
      <point x="103" y="416" type="line"/>
      <point x="101" y="516" type="line"/>
      <point x="66" y="516" type="line"/>
      <point x="66" y="0" type="line"/>
      <point x="103" y="0" type="line"/>
      <point x="103" y="359" type="line"/>
      <point x="142" y="431"/>
      <point x="221" y="490"/>
      <point x="327" y="490" type="curve" smooth="yes"/>
      <point x="434" y="490"/>
      <point x="516" y="439"/>
      <point x="516" y="311" type="curve" smooth="yes"/>
      <point x="516" y="-132" type="line"/>
      <point x="363" y="-132" type="line"/>
    </contour>
  </outline>
</glyph>
<glyph name="florin" format="2">
  <advance width="561"/>
  <unicode hex="0192"/>
  <outline>
    <contour>
      <point x="247" y="-31" type="curve" smooth="yes"/>
      <point x="349" y="691" type="line"/>
      <point x="536" y="691" type="line"/>
      <point x="536" y="729" type="line"/>
      <point x="366" y="729" type="line" smooth="yes"/>
      <point x="330" y="729"/>
      <point x="312" y="711"/>
      <point x="307" y="674" type="curve" smooth="yes"/>
      <point x="206" y="-47" type="line"/>
      <point x="25" y="-47" type="line"/>
      <point x="25" y="-85" type="line"/>
      <point x="187" y="-85" type="line" smooth="yes"/>
      <point x="225" y="-85"/>
      <point x="242" y="-65"/>
    </contour>
    <contour>
      <point x="98" y="402" type="line"/>
      <point x="512" y="402" type="line"/>
      <point x="512" y="438" type="line"/>
      <point x="98" y="438" type="line"/>
    </contour>
  </outline>
</glyph>
<glyph name="jdotless" format="2">
  <advance width="169"/>
  <unicode hex="0237"/>
  <anchor x="85" y="516" name="top"/>
  <outline>
    <contour>
      <point x="-30" y="-167" type="line"/>
      <point x="56" y="-167" type="line" smooth="yes"/>
      <point x="84" y="-167"/>
      <point x="103" y="-155"/>
      <point x="103" y="-123" type="curve" smooth="yes"/>
      <point x="103" y="516" type="line"/>
      <point x="66" y="516" type="line"/>
      <point x="66" y="-132" type="line"/>
      <point x="-30" y="-132" type="line"/>
    </contour>
  </outline>
</glyph>
<glyph name="acutecomb" format="2">
  <unicode hex="0301"/>
  <anchor x="60" y="516" name="_top"/>
  <outline>
    <contour>
      <point x="40" y="594" type="line"/>
      <point x="80" y="594" type="line"/>
      <point x="153" y="730" type="line"/>
      <point x="113" y="730" type="line"/>
    </contour>
  </outline>
</glyph>
<glyph name="circumflexcomb" format="2">
  <unicode hex="0302"/>
  <anchor x="186" y="516" name="_top"/>
  <outline>
    <contour>
      <point x="40" y="593" type="line"/>
      <point x="90" y="593" type="line"/>
      <point x="186" y="694" type="line"/>
      <point x="282" y="593" type="line"/>
      <point x="332" y="593" type="line"/>
      <point x="204" y="729" type="line"/>
      <point x="168" y="729" type="line"/>
    </contour>
  </outline>
</glyph>
<glyph name="tildecomb" format="2">
  <unicode hex="0303"/>
  <anchor x="178" y="516" name="_top"/>
  <outline>
    <contour>
      <point x="252" y="610" type="curve" smooth="yes"/>
      <point x="291" y="610"/>
      <point x="315" y="632"/>
      <point x="318" y="690" type="curve"/>
      <point x="294" y="690" type="line"/>
      <point x="292" y="662"/>
      <point x="282" y="644"/>
      <point x="254" y="644" type="curve" smooth="yes"/>
      <point x="209" y="644"/>
      <point x="157" y="689"/>
      <point x="104" y="689" type="curve" smooth="yes"/>
      <point x="65" y="689"/>
      <point x="41" y="662"/>
      <point x="40" y="609" type="curve"/>
      <point x="64" y="609" type="line"/>
      <point x="65" y="636"/>
      <point x="76" y="654"/>
      <point x="103" y="654" type="curve" smooth="yes"/>
      <point x="147" y="654"/>
      <point x="197" y="610"/>
    </contour>
  </outline>
</glyph>
<glyph name="macroncomb" format="2">
  <unicode hex="0304"/>
  <anchor x="205" y="516" name="_top"/>
  <outline>
    <contour>
      <point x="40" y="646" type="line"/>
      <point x="370" y="646" type="line"/>
      <point x="370" y="681" type="line"/>
      <point x="40" y="681" type="line"/>
    </contour>
  </outline>
</glyph>
<glyph name="brevecomb" format="2">
  <unicode hex="0306"/>
  <anchor x="179" y="516" name="_top"/>
  <outline>
    <contour>
      <point x="179" y="589" type="curve" smooth="yes"/>
      <point x="269" y="589"/>
      <point x="316" y="639"/>
      <point x="316" y="730" type="curve"/>
      <point x="278" y="730" type="line"/>
      <point x="279" y="660"/>
      <point x="242" y="621"/>
      <point x="179" y="621" type="curve" smooth="yes"/>
      <point x="113" y="621"/>
      <point x="79" y="659"/>
      <point x="79" y="730" type="curve"/>
      <point x="40" y="730" type="line"/>
      <point x="41" y="639"/>
      <point x="90" y="589"/>
    </contour>
  </outline>
</glyph>
<glyph name="dotaccentcomb" format="2">
  <unicode hex="0307"/>
  <anchor x="58" y="516" name="_top"/>
  <outline>
    <contour>
      <point x="40" y="617" type="line"/>
      <point x="76" y="617" type="line"/>
      <point x="76" y="730" type="line"/>
      <point x="40" y="730" type="line"/>
    </contour>
  </outline>
</glyph>
<glyph name="dieresiscomb" format="2">
  <unicode hex="0308"/>
  <anchor x="141" y="516" name="_top"/>
  <outline>
    <contour>
      <point x="40" y="617" type="line"/>
      <point x="79" y="617" type="line"/>
      <point x="79" y="730" type="line"/>
      <point x="40" y="730" type="line"/>
    </contour>
    <contour>
      <point x="203" y="617" type="line"/>
      <point x="243" y="617" type="line"/>
      <point x="243" y="730" type="line"/>
      <point x="203" y="730" type="line"/>
    </contour>
  </outline>
</glyph>
<glyph name="hookabovecomb" format="2">
  <unicode hex="0309"/>
  <anchor x="108" y="516" name="_top"/>
  <outline>
    <contour>
      <point x="84" y="573" type="line"/>
      <point x="151" y="607"/>
      <point x="177" y="644"/>
      <point x="177" y="684" type="curve" smooth="yes"/>
      <point x="177" y="727"/>
      <point x="142" y="756"/>
      <point x="91" y="756" type="curve" smooth="yes"/>
      <point x="74" y="756"/>
      <point x="57" y="754"/>
      <point x="40" y="748" type="curve"/>
      <point x="41" y="719" type="line"/>
      <point x="55" y="725"/>
      <point x="69" y="727"/>
      <point x="86" y="727" type="curve" smooth="yes"/>
      <point x="123" y="727"/>
      <point x="143" y="708"/>
      <point x="143" y="681" type="curve" smooth="yes"/>
      <point x="143" y="648"/>
      <point x="117" y="624"/>
      <point x="65" y="597" type="curve"/>
    </contour>
  </outline>
</glyph>
<glyph name="ringcomb" format="2">
  <unicode hex="030A"/>
  <anchor x="151" y="516" name="_top"/>
  <outline>
    <contour>
      <point x="149" y="587" type="curve" smooth="yes"/>
      <point x="215" y="587"/>
      <point x="259" y="628"/>
      <point x="259" y="686" type="curve" smooth="yes"/>
      <point x="259" y="746"/>
      <point x="215" y="785"/>
      <point x="149" y="785" type="curve" smooth="yes"/>
      <point x="86" y="785"/>
      <point x="40" y="745"/>
      <point x="40" y="686" type="curve" smooth="yes"/>
      <point x="40" y="628"/>
      <point x="86" y="587"/>
    </contour>
    <contour>
      <point x="149" y="617" type="curve" smooth="yes"/>
      <point x="107" y="617"/>
      <point x="75" y="645"/>
      <point x="75" y="686" type="curve" smooth="yes"/>
      <point x="75" y="727"/>
      <point x="107" y="755"/>
      <point x="149" y="755" type="curve" smooth="yes"/>
      <point x="195" y="755"/>
      <point x="226" y="727"/>
      <point x="226" y="686" type="curve" smooth="yes"/>
      <point x="226" y="646"/>
      <point x="194" y="617"/>
    </contour>
  </outline>
</glyph>
<glyph name="hungarumlautcomb" format="2">
  <unicode hex="030B"/>
  <anchor x="124" y="516" name="_top"/>
  <outline>
    <contour>
      <point x="40" y="594" type="line"/>
      <point x="80" y="594" type="line"/>
      <point x="153" y="730" type="line"/>
      <point x="113" y="730" type="line"/>
    </contour>
    <contour>
      <point x="168" y="594" type="line"/>
      <point x="208" y="594" type="line"/>
      <point x="281" y="730" type="line"/>
      <point x="241" y="730" type="line"/>
    </contour>
  </outline>
</glyph>
<glyph name="caroncomb" format="2">
  <unicode hex="030C"/>
  <anchor x="186" y="516" name="_top"/>
  <outline>
    <contour>
      <point x="168" y="594" type="line"/>
      <point x="204" y="594" type="line"/>
      <point x="332" y="730" type="line"/>
      <point x="282" y="730" type="line"/>
      <point x="186" y="629" type="line"/>
      <point x="90" y="730" type="line"/>
      <point x="40" y="730" type="line"/>
    </contour>
  </outline>
</glyph>
<glyph name="commaturnedabovecomb" format="2">
  <unicode hex="0312"/>
  <anchor x="65" y="516" name="_top"/>
  <outline>
    <contour>
      <point x="40" y="607" type="line"/>
      <point x="90" y="607" type="line"/>
      <point x="90" y="671" type="line"/>
      <point x="63" y="671" type="line"/>
      <point x="100" y="789" type="line"/>
      <point x="74" y="789" type="line"/>
      <point x="40" y="671" type="line"/>
    </contour>
  </outline>
</glyph>
<glyph name="horncomb" format="2">
  <unicode hex="031B"/>
  <anchor x="40" y="535" name="_topright"/>
  <outline>
    <contour>
      <point x="40" y="507" type="line"/>
      <point x="133" y="507"/>
      <point x="173" y="542"/>
      <point x="173" y="624" type="curve" smooth="yes"/>
      <point x="173" y="648" type="line"/>
      <point x="138" y="648" type="line"/>
      <point x="138" y="625" type="line" smooth="yes"/>
      <point x="138" y="560"/>
      <point x="110" y="535"/>
      <point x="40" y="535" type="curve"/>
    </contour>
  </outline>
</glyph>
<glyph name="dotbelowcomb" format="2">
  <unicode hex="0323"/>
  <anchor x="65" y="0" name="_bottom"/>
  <outline>
    <contour>
      <point x="40" y="-146" type="line"/>
      <point x="90" y="-146" type="line"/>
      <point x="90" y="-82" type="line"/>
      <point x="40" y="-82" type="line"/>
    </contour>
  </outline>
</glyph>
<glyph name="commaaccentcomb" format="2">
  <unicode hex="0326"/>
  <anchor x="76" y="0" name="_bottom"/>
  <outline>
    <contour>
      <point x="40" y="-225" type="line"/>
      <point x="65" y="-225" type="line"/>
      <point x="99" y="-127" type="line"/>
      <point x="99" y="-67" type="line"/>
      <point x="52" y="-67" type="line"/>
      <point x="52" y="-128" type="line"/>
      <point x="77" y="-128" type="line"/>
    </contour>
  </outline>
</glyph>
<glyph name="cedillacomb" format="2">
  <unicode hex="0327"/>
  <anchor x="132" y="0" name="_bottom"/>
  <outline>
    <contour>
      <point x="140" y="-205" type="curve" smooth="yes"/>
      <point x="198" y="-205"/>
      <point x="244" y="-178"/>
      <point x="244" y="-126" type="curve" smooth="yes"/>
      <point x="244" y="-52"/>
      <point x="163" y="-39"/>
      <point x="120" y="-52" type="curve"/>
      <point x="134" y="-58" type="line"/>
      <point x="149" y="7" type="line"/>
      <point x="116" y="7" type="line"/>
      <point x="101" y="-61" type="line"/>
      <point x="115" y="-78" type="line"/>
      <point x="155" y="-70"/>
      <point x="209" y="-75"/>
      <point x="209" y="-125" type="curve" smooth="yes"/>
      <point x="209" y="-157"/>
      <point x="183" y="-175"/>
      <point x="141" y="-175" type="curve" smooth="yes"/>
      <point x="105" y="-175"/>
      <point x="80" y="-161"/>
      <point x="74" y="-137" type="curve"/>
      <point x="40" y="-137" type="line"/>
      <point x="45" y="-174"/>
      <point x="78" y="-205"/>
    </contour>
  </outline>
</glyph>
<glyph name="ogonekcomb" format="2">
  <unicode hex="0328"/>
  <anchor x="158" y="0" name="_ogonek"/>
  <outline>
    <contour>
      <point x="123" y="-177" type="curve" smooth="yes"/>
      <point x="144" y="-177"/>
      <point x="166" y="-172"/>
      <point x="177" y="-165" type="curve"/>
      <point x="177" y="-137" type="line"/>
      <point x="163" y="-145"/>
      <point x="145" y="-149"/>
      <point x="128" y="-149" type="curve" smooth="yes"/>
      <point x="93" y="-149"/>
      <point x="73" y="-132"/>
      <point x="73" y="-103" type="curve" smooth="yes"/>
      <point x="73" y="-66"/>
      <point x="102" y="-33"/>
      <point x="159" y="0" type="curve"/>
      <point x="149" y="19" type="line"/>
      <point x="145" y="23" type="line"/>
      <point x="80" y="-13"/>
      <point x="40" y="-55"/>
      <point x="40" y="-106" type="curve" smooth="yes"/>
      <point x="40" y="-150"/>
      <point x="72" y="-177"/>
    </contour>
  </outline>
</glyph>
<glyph name="strokeshortcomb" format="2">
  <unicode hex="0335"/>
  <anchor x="219" y="616" name="_center"/>
  <outline>
    <contour>
      <point x="40" y="599" type="line"/>
      <point x="397" y="599" type="line"/>
      <point x="397" y="634" type="line"/>
      <point x="40" y="634" type="line"/>
    </contour>
  </outline>
</glyph>
<glyph name="strokelongcomb" format="2">
  <unicode hex="0336"/>
  <anchor x="499" y="282" name="_center"/>
  <outline>
    <contour>
      <point x="40" y="262" type="line"/>
      <point x="957" y="262" type="line"/>
      <point x="957" y="301" type="line"/>
      <point x="40" y="301" type="line"/>
    </contour>
  </outline>
</glyph>
<glyph name="slashshortcomb" format="2">
  <unicode hex="0337"/>
  <anchor x="140" y="365" name="_center"/>
  <outline>
    <contour>
      <point x="40" y="290" type="line"/>
      <point x="239" y="402" type="line"/>
      <point x="239" y="439" type="line"/>
      <point x="40" y="327" type="line"/>
    </contour>
  </outline>
</glyph>
<glyph name="slashlongcomb" format="2">
  <unicode hex="0338"/>
  <anchor x="312" y="259" name="_center"/>
  <outline>
    <contour>
      <point x="40" y="-20" type="line"/>
      <point x="82" y="-20" type="line"/>
      <point x="582" y="536" type="line"/>
      <point x="540" y="536" type="line"/>
    </contour>
  </outline>
</glyph>
<glyph name="mu" format="2">
  <advance width="610"/>
  <unicode hex="03BC"/>
  <outline>
    <contour>
      <point x="57" y="-132" type="line"/>
      <point x="94" y="-132" type="line"/>
      <point x="94" y="77" type="line"/>
      <point x="90" y="77" type="line"/>
      <point x="125" y="21"/>
      <point x="188" y="-10"/>
      <point x="278" y="-10" type="curve" smooth="yes"/>
      <point x="380" y="-10"/>
      <point x="458" y="36"/>
      <point x="501" y="100" type="curve"/>
      <point x="507" y="100" type="line"/>
      <point x="509" y="0" type="line"/>
      <point x="544" y="0" type="line"/>
      <point x="544" y="516" type="line"/>
      <point x="507" y="516" type="line"/>
      <point x="507" y="157" type="line"/>
      <point x="468" y="85"/>
      <point x="389" y="26"/>
      <point x="283" y="26" type="curve" smooth="yes"/>
      <point x="176" y="26"/>
      <point x="94" y="77"/>
      <point x="94" y="205" type="curve" smooth="yes"/>
      <point x="94" y="516" type="line"/>
      <point x="57" y="516" type="line"/>
    </contour>
  </outline>
</glyph>
<glyph name="pi" format="2">
  <advance width="642"/>
  <unicode hex="03C0"/>
  <outline>
    <contour>
      <point x="138" y="0" type="line"/>
      <point x="176" y="0" type="line"/>
      <point x="176" y="481" type="line"/>
      <point x="464" y="481" type="line"/>
      <point x="464" y="58" type="line" smooth="yes"/>
      <point x="464" y="24"/>
      <point x="475" y="0"/>
      <point x="520" y="0" type="curve"/>
      <point x="613" y="0" type="line"/>
      <point x="613" y="36" type="line"/>
      <point x="502" y="36" type="line"/>
      <point x="502" y="481" type="line"/>
      <point x="614" y="481" type="line"/>
      <point x="614" y="516" type="line"/>
      <point x="25" y="516" type="line"/>
      <point x="25" y="481" type="line"/>
      <point x="138" y="481" type="line"/>
    </contour>
  </outline>
</glyph>
<glyph name="Germandbls" format="2">
  <advance width="745"/>
  <unicode hex="1E9E"/>
  <outline>
    <contour>
      <point x="80" y="0" type="line"/>
      <point x="120" y="0" type="line"/>
      <point x="120" y="689" type="line"/>
      <point x="595" y="689" type="line"/>
      <point x="349" y="414" type="line"/>
      <point x="349" y="379" type="line"/>
      <point x="456" y="379" type="line" smooth="yes"/>
      <point x="575" y="379"/>
      <point x="654" y="336"/>
      <point x="654" y="230" type="curve" smooth="yes"/>
      <point x="654" y="192" type="line" smooth="yes"/>
      <point x="654" y="101"/>
      <point x="592" y="40"/>
      <point x="450" y="40" type="curve" smooth="yes"/>
      <point x="206" y="40" type="line"/>
      <point x="206" y="0" type="line"/>
      <point x="465" y="0" type="line" smooth="yes"/>
      <point x="608" y="0"/>
      <point x="699" y="77"/>
      <point x="699" y="210" type="curve" smooth="yes"/>
      <point x="699" y="333"/>
      <point x="626" y="416"/>
      <point x="468" y="416" type="curve" smooth="yes"/>
      <point x="388" y="416" type="line"/>
      <point x="409" y="388" type="line"/>
      <point x="409" y="424" type="line"/>
      <point x="634" y="675" type="line"/>
      <point x="634" y="729" type="line"/>
      <point x="80" y="729" type="line"/>
    </contour>
  </outline>
</glyph>
<glyph name="endash" format="2">
  <advance width="514"/>
  <unicode hex="2013"/>
  <outline>
    <contour>
      <point x="46" y="301" type="line"/>
      <point x="468" y="301" type="line"/>
      <point x="468" y="337" type="line"/>
      <point x="46" y="337" type="line"/>
    </contour>
  </outline>
</glyph>
<glyph name="emdash" format="2">
  <advance width="698"/>
  <unicode hex="2014"/>
  <outline>
    <contour>
      <point x="46" y="301" type="line"/>
      <point x="652" y="301" type="line"/>
      <point x="652" y="337" type="line"/>
      <point x="46" y="337" type="line"/>
    </contour>
  </outline>
</glyph>
<glyph name="bullet" format="2">
  <advance width="281"/>
  <unicode hex="2022"/>
  <outline>
    <contour>
      <point x="27" y="277" type="curve" smooth="yes"/>
      <point x="27" y="214"/>
      <point x="76" y="167"/>
      <point x="140" y="167" type="curve" smooth="yes"/>
      <point x="208" y="167"/>
      <point x="253" y="214"/>
      <point x="253" y="277" type="curve" smooth="yes"/>
      <point x="253" y="341"/>
      <point x="208" y="388"/>
      <point x="140" y="388" type="curve" smooth="yes"/>
      <point x="76" y="388"/>
      <point x="27" y="341"/>
    </contour>
  </outline>
</glyph>
<glyph name="perthousand" format="2">
  <advance width="1329"/>
  <unicode hex="2030"/>
  <outline>
    <contour>
      <point x="214" y="341" type="curve" smooth="yes"/>
      <point x="327" y="341"/>
      <point x="389" y="405"/>
      <point x="389" y="536" type="curve" smooth="yes"/>
      <point x="389" y="544" type="line" smooth="yes"/>
      <point x="389" y="675"/>
      <point x="327" y="739"/>
      <point x="214" y="739" type="curve" smooth="yes"/>
      <point x="101" y="739"/>
      <point x="39" y="675"/>
      <point x="39" y="544" type="curve" smooth="yes"/>
      <point x="39" y="536" type="line" smooth="yes"/>
      <point x="39" y="405"/>
      <point x="101" y="341"/>
    </contour>
    <contour>
      <point x="214" y="371" type="curve" smooth="yes"/>
      <point x="131" y="371"/>
      <point x="75" y="417"/>
      <point x="75" y="499" type="curve" smooth="yes"/>
      <point x="75" y="581" type="line" smooth="yes"/>
      <point x="75" y="663"/>
      <point x="131" y="709"/>
      <point x="214" y="709" type="curve" smooth="yes"/>
      <point x="297" y="709"/>
      <point x="353" y="663"/>
      <point x="353" y="581" type="curve" smooth="yes"/>
      <point x="353" y="499" type="line" smooth="yes"/>
      <point x="353" y="417"/>
      <point x="297" y="371"/>
    </contour>
    <contour>
      <point x="181" y="0" type="line"/>
      <point x="220" y="0" type="line"/>
      <point x="747" y="729" type="line"/>
      <point x="707" y="729" type="line"/>
    </contour>
    <contour>
      <point x="715" y="-10" type="curve" smooth="yes"/>
      <point x="828" y="-10"/>
      <point x="890" y="54"/>
      <point x="890" y="185" type="curve" smooth="yes"/>
      <point x="890" y="193" type="line" smooth="yes"/>
      <point x="890" y="324"/>
      <point x="828" y="388"/>
      <point x="715" y="388" type="curve" smooth="yes"/>
      <point x="602" y="388"/>
      <point x="540" y="324"/>
      <point x="540" y="193" type="curve" smooth="yes"/>
      <point x="540" y="185" type="line" smooth="yes"/>
      <point x="540" y="54"/>
      <point x="602" y="-10"/>
    </contour>
    <contour>
      <point x="715" y="20" type="curve" smooth="yes"/>
      <point x="632" y="20"/>
      <point x="576" y="66"/>
      <point x="576" y="148" type="curve" smooth="yes"/>
      <point x="576" y="230" type="line" smooth="yes"/>
      <point x="576" y="312"/>
      <point x="632" y="358"/>
      <point x="715" y="358" type="curve" smooth="yes"/>
      <point x="798" y="358"/>
      <point x="854" y="312"/>
      <point x="854" y="230" type="curve" smooth="yes"/>
      <point x="854" y="148" type="line" smooth="yes"/>
      <point x="854" y="66"/>
      <point x="798" y="20"/>
    </contour>
    <contour>
      <point x="1115" y="-10" type="curve" smooth="yes"/>
      <point x="1228" y="-10"/>
      <point x="1290" y="54"/>
      <point x="1290" y="185" type="curve" smooth="yes"/>
      <point x="1290" y="193" type="line" smooth="yes"/>
      <point x="1290" y="324"/>
      <point x="1228" y="388"/>
      <point x="1115" y="388" type="curve" smooth="yes"/>
      <point x="1002" y="388"/>
      <point x="940" y="324"/>
      <point x="940" y="193" type="curve" smooth="yes"/>
      <point x="940" y="185" type="line" smooth="yes"/>
      <point x="940" y="54"/>
      <point x="1002" y="-10"/>
    </contour>
    <contour>
      <point x="1115" y="20" type="curve" smooth="yes"/>
      <point x="1032" y="20"/>
      <point x="976" y="66"/>
      <point x="976" y="148" type="curve" smooth="yes"/>
      <point x="976" y="230" type="line" smooth="yes"/>
      <point x="976" y="312"/>
      <point x="1032" y="358"/>
      <point x="1115" y="358" type="curve" smooth="yes"/>
      <point x="1198" y="358"/>
      <point x="1254" y="312"/>
      <point x="1254" y="230" type="curve" smooth="yes"/>
      <point x="1254" y="148" type="line" smooth="yes"/>
      <point x="1254" y="66"/>
      <point x="1198" y="20"/>
    </contour>
  </outline>
</glyph>
<glyph name="guilsinglleft" format="2">
  <advance width="259"/>
  <unicode hex="2039"/>
  <anchor x="-7" y="0" name="#entry"/>
  <anchor x="157" y="0" name="#exit"/>
  <outline>
    <contour>
      <point x="184" y="58" type="line"/>
      <point x="218" y="58" type="line"/>
      <point x="86" y="287" type="line"/>
      <point x="218" y="516" type="line"/>
      <point x="184" y="516" type="line"/>
      <point x="42" y="287" type="line"/>
    </contour>
  </outline>
</glyph>
<glyph name="zeroinferior" format="2">
  <advance width="496"/>
  <unicode hex="2080"/>
  <outline>
    <contour>
      <point x="248" y="-66" type="curve" smooth="yes"/>
      <point x="365" y="-66"/>
      <point x="448" y="-5"/>
      <point x="448" y="156" type="curve" smooth="yes"/>
      <point x="448" y="162" type="line" smooth="yes"/>
      <point x="448" y="322"/>
      <point x="365" y="384"/>
      <point x="248" y="384" type="curve" smooth="yes"/>
      <point x="131" y="384"/>
      <point x="48" y="323"/>
      <point x="48" y="162" type="curve" smooth="yes"/>
      <point x="48" y="156" type="line" smooth="yes"/>
      <point x="48" y="-4"/>
      <point x="131" y="-66"/>
    </contour>
    <contour>
      <point x="248" y="-29" type="curve" smooth="yes"/>
      <point x="141" y="-29"/>
      <point x="90" y="30"/>
      <point x="90" y="115" type="curve" smooth="yes"/>
      <point x="90" y="203" type="line" smooth="yes"/>
      <point x="90" y="287"/>
      <point x="141" y="347"/>
      <point x="248" y="347" type="curve" smooth="yes"/>
      <point x="354" y="347"/>
      <point x="405" y="287"/>
      <point x="405" y="203" type="curve" smooth="yes"/>
      <point x="405" y="115" type="line" smooth="yes"/>
      <point x="405" y="30"/>
      <point x="354" y="-29"/>
    </contour>
  </outline>
</glyph>
<glyph name="oneinferior" format="2">
  <advance width="256"/>
  <unicode hex="2081"/>
  <outline>
    <contour>
      <point x="190" y="-60" type="line"/>
      <point x="190" y="377" type="line"/>
      <point x="157" y="377" type="line"/>
      <point x="151" y="305" type="line"/>
      <point x="28" y="305" type="line"/>
      <point x="28" y="269" type="line"/>
      <point x="152" y="269" type="line"/>
      <point x="152" y="-60" type="line"/>
    </contour>
  </outline>
</glyph>
<glyph name="twoinferior" format="2">
  <advance width="431"/>
  <unicode hex="2082"/>
  <outline>
    <contour>
      <point x="42" y="-60" type="line"/>
      <point x="396" y="-60" type="line"/>
      <point x="396" y="-23" type="line"/>
      <point x="119" y="-23" type="line"/>
      <point x="101" y="-24" type="line"/>
      <point x="101" y="-22" type="line"/>
      <point x="115" y="-14" type="line"/>
      <point x="275" y="93" type="line" smooth="yes"/>
      <point x="350" y="143"/>
      <point x="380" y="186"/>
      <point x="380" y="247" type="curve" smooth="yes"/>
      <point x="380" y="328"/>
      <point x="317" y="384"/>
      <point x="215" y="384" type="curve" smooth="yes"/>
      <point x="108" y="384"/>
      <point x="44" y="325"/>
      <point x="34" y="241" type="curve"/>
      <point x="74" y="241" type="line"/>
      <point x="81" y="304"/>
      <point x="131" y="347"/>
      <point x="213" y="347" type="curve" smooth="yes"/>
      <point x="289" y="347"/>
      <point x="339" y="310"/>
      <point x="339" y="248" type="curve" smooth="yes"/>
      <point x="339" y="237" type="line" smooth="yes"/>
      <point x="339" y="198"/>
      <point x="318" y="166"/>
      <point x="256" y="123" type="curve" smooth="yes"/>
      <point x="42" y="-24" type="line"/>
    </contour>
  </outline>
</glyph>
<glyph name="threeinferior" format="2">
  <advance width="441"/>
  <unicode hex="2083"/>
  <outline>
    <contour>
      <point x="212" y="-66" type="curve" smooth="yes"/>
      <point x="327" y="-66"/>
      <point x="400" y="-17"/>
      <point x="400" y="60" type="curve" smooth="yes"/>
      <point x="400" y="124"/>
      <point x="352" y="162"/>
      <point x="287" y="169" type="curve"/>
      <point x="287" y="173" type="line"/>
      <point x="350" y="186"/>
      <point x="386" y="224"/>
      <point x="386" y="272" type="curve" smooth="yes"/>
      <point x="386" y="349"/>
      <point x="311" y="384"/>
      <point x="220" y="384" type="curve" smooth="yes"/>
      <point x="117" y="384"/>
      <point x="46" y="333"/>
      <point x="40" y="257" type="curve"/>
      <point x="77" y="257" type="line"/>
      <point x="81" y="314"/>
      <point x="139" y="349"/>
      <point x="219" y="349" type="curve" smooth="yes"/>
      <point x="294" y="349"/>
      <point x="346" y="324"/>
      <point x="346" y="272" type="curve" smooth="yes"/>
      <point x="346" y="260" type="line" smooth="yes"/>
      <point x="346" y="216"/>
      <point x="302" y="186"/>
      <point x="234" y="186" type="curve" smooth="yes"/>
      <point x="197" y="186" type="line"/>
      <point x="197" y="151" type="line"/>
      <point x="237" y="151" type="line" smooth="yes"/>
      <point x="304" y="151"/>
      <point x="359" y="128"/>
      <point x="359" y="75" type="curve" smooth="yes"/>
      <point x="359" y="54" type="line" smooth="yes"/>
      <point x="359" y="1"/>
      <point x="302" y="-32"/>
      <point x="213" y="-32" type="curve" smooth="yes"/>
      <point x="126" y="-32"/>
      <point x="80" y="4"/>
      <point x="74" y="65" type="curve"/>
      <point x="36" y="65" type="line"/>
      <point x="43" y="-14"/>
      <point x="103" y="-66"/>
    </contour>
  </outline>
</glyph>
<glyph name="fourinferior" format="2">
  <advance width="469"/>
  <unicode hex="2084"/>
  <outline>
    <contour>
      <point x="303" y="-60" type="line"/>
      <point x="341" y="-60" type="line"/>
      <point x="341" y="51" type="line"/>
      <point x="441" y="51" type="line"/>
      <point x="441" y="87" type="line"/>
      <point x="341" y="87" type="line"/>
      <point x="341" y="187" type="line"/>
      <point x="308" y="187" type="line"/>
      <point x="303" y="87" type="line"/>
      <point x="74" y="87" type="line"/>
      <point x="74" y="91" type="line"/>
      <point x="288" y="377" type="line"/>
      <point x="246" y="377" type="line"/>
      <point x="30" y="88" type="line"/>
      <point x="30" y="51" type="line"/>
      <point x="303" y="51" type="line"/>
    </contour>
  </outline>
</glyph>
<glyph name="fiveinferior" format="2">
  <advance width="453"/>
  <unicode hex="2085"/>
  <outline>
    <contour>
      <point x="225" y="-66" type="curve" smooth="yes"/>
      <point x="343" y="-66"/>
      <point x="412" y="-7"/>
      <point x="412" y="81" type="curve" smooth="yes"/>
      <point x="412" y="167"/>
      <point x="353" y="223"/>
      <point x="246" y="223" type="curve" smooth="yes"/>
      <point x="191" y="223"/>
      <point x="140" y="208"/>
      <point x="99" y="175" type="curve"/>
      <point x="95" y="176" type="line"/>
      <point x="104" y="341" type="line"/>
      <point x="404" y="341" type="line"/>
      <point x="404" y="377" type="line"/>
      <point x="69" y="377" type="line"/>
      <point x="57" y="145" type="line"/>
      <point x="96" y="140" type="line"/>
      <point x="136" y="174"/>
      <point x="184" y="191"/>
      <point x="240" y="191" type="curve" smooth="yes"/>
      <point x="320" y="191"/>
      <point x="370" y="154"/>
      <point x="370" y="91" type="curve" smooth="yes"/>
      <point x="370" y="65" type="line" smooth="yes"/>
      <point x="370" y="7"/>
      <point x="312" y="-31"/>
      <point x="224" y="-31" type="curve" smooth="yes"/>
      <point x="142" y="-31"/>
      <point x="90" y="5"/>
      <point x="84" y="64" type="curve"/>
      <point x="46" y="64" type="line"/>
      <point x="52" y="-13"/>
      <point x="121" y="-66"/>
    </contour>
  </outline>
</glyph>
<glyph name="sixinferior" format="2">
  <advance width="467"/>
  <unicode hex="2086"/>
  <outline>
    <contour>
      <point x="241" y="-66" type="curve" smooth="yes"/>
      <point x="349" y="-66"/>
      <point x="427" y="-10"/>
      <point x="427" y="85" type="curve" smooth="yes"/>
      <point x="427" y="172"/>
      <point x="369" y="228"/>
      <point x="263" y="228" type="curve" smooth="yes"/>
      <point x="196" y="228"/>
      <point x="132" y="203"/>
      <point x="88" y="150" type="curve"/>
      <point x="84" y="150" type="line"/>
      <point x="85" y="161"/>
      <point x="86" y="179"/>
      <point x="86" y="194" type="curve" smooth="yes"/>
      <point x="86" y="297"/>
      <point x="146" y="351"/>
      <point x="245" y="351" type="curve" smooth="yes"/>
      <point x="309" y="351"/>
      <point x="364" y="327"/>
      <point x="378" y="275" type="curve"/>
      <point x="415" y="275" type="line"/>
      <point x="400" y="341"/>
      <point x="341" y="384"/>
      <point x="245" y="384" type="curve" smooth="yes"/>
      <point x="134" y="384"/>
      <point x="48" y="322"/>
      <point x="48" y="184" type="curve" smooth="yes"/>
      <point x="48" y="118" type="line" smooth="yes"/>
      <point x="48" y="4"/>
      <point x="117" y="-66"/>
    </contour>
    <contour>
      <point x="241" y="-31" type="curve" smooth="yes"/>
      <point x="156" y="-31"/>
      <point x="86" y="8"/>
      <point x="86" y="103" type="curve" smooth="yes"/>
      <point x="86" y="115" type="line"/>
      <point x="128" y="170"/>
      <point x="185" y="197"/>
      <point x="256" y="197" type="curve" smooth="yes"/>
      <point x="336" y="197"/>
      <point x="385" y="160"/>
      <point x="385" y="97" type="curve" smooth="yes"/>
      <point x="385" y="70" type="line" smooth="yes"/>
      <point x="385" y="9"/>
      <point x="326" y="-31"/>
    </contour>
  </outline>
</glyph>
<glyph name="seveninferior" format="2">
  <advance width="420"/>
  <unicode hex="2087"/>
  <outline>
    <contour>
      <point x="157" y="-60" type="line"/>
      <point x="392" y="338" type="line"/>
      <point x="392" y="377" type="line"/>
      <point x="35" y="377" type="line"/>
      <point x="35" y="260" type="line"/>
      <point x="67" y="260" type="line"/>
      <point x="67" y="341" type="line"/>
      <point x="347" y="341" type="line"/>
      <point x="347" y="333" type="line"/>
      <point x="111" y="-60" type="line"/>
    </contour>
  </outline>
</glyph>
<glyph name="eightinferior" format="2">
  <advance width="456"/>
  <unicode hex="2088"/>
  <outline>
    <contour>
      <point x="228" y="-66" type="curve" smooth="yes"/>
      <point x="349" y="-66"/>
      <point x="415" y="-20"/>
      <point x="415" y="55" type="curve" smooth="yes"/>
      <point x="415" y="122"/>
      <point x="365" y="156"/>
      <point x="301" y="166" type="curve"/>
      <point x="301" y="169" type="line"/>
      <point x="367" y="181"/>
      <point x="402" y="221"/>
      <point x="402" y="269" type="curve" smooth="yes"/>
      <point x="402" y="346"/>
      <point x="331" y="384"/>
      <point x="228" y="384" type="curve" smooth="yes"/>
      <point x="125" y="384"/>
      <point x="54" y="346"/>
      <point x="54" y="269" type="curve" smooth="yes"/>
      <point x="54" y="221"/>
      <point x="89" y="181"/>
      <point x="155" y="169" type="curve"/>
      <point x="155" y="166" type="line"/>
      <point x="90" y="156"/>
      <point x="42" y="121"/>
      <point x="42" y="55" type="curve" smooth="yes"/>
      <point x="42" y="-20"/>
      <point x="107" y="-66"/>
    </contour>
    <contour>
      <point x="228" y="-32" type="curve" smooth="yes"/>
      <point x="137" y="-32"/>
      <point x="83" y="-3"/>
      <point x="83" y="50" type="curve" smooth="yes"/>
      <point x="83" y="68" type="line" smooth="yes"/>
      <point x="83" y="112"/>
      <point x="120" y="151"/>
      <point x="228" y="151" type="curve" smooth="yes"/>
      <point x="335" y="151"/>
      <point x="372" y="112"/>
      <point x="372" y="68" type="curve" smooth="yes"/>
      <point x="372" y="50" type="line" smooth="yes"/>
      <point x="372" y="-3"/>
      <point x="318" y="-32"/>
    </contour>
    <contour>
      <point x="228" y="181" type="curve" smooth="yes"/>
      <point x="132" y="181"/>
      <point x="94" y="218"/>
      <point x="94" y="256" type="curve" smooth="yes"/>
      <point x="94" y="274" type="line" smooth="yes"/>
      <point x="94" y="321"/>
      <point x="142" y="350"/>
      <point x="228" y="350" type="curve" smooth="yes"/>
      <point x="313" y="350"/>
      <point x="362" y="321"/>
      <point x="362" y="274" type="curve" smooth="yes"/>
      <point x="362" y="256" type="line" smooth="yes"/>
      <point x="362" y="218"/>
      <point x="324" y="181"/>
    </contour>
  </outline>
</glyph>
<glyph name="sheqel" format="2">
  <advance width="769"/>
  <unicode hex="20AA"/>
  <outline>
    <contour>
      <point x="273" y="0" type="line"/>
      <point x="616" y="0" type="line" smooth="yes"/>
      <point x="660" y="0"/>
      <point x="684" y="18"/>
      <point x="684" y="70" type="curve" smooth="yes"/>
      <point x="684" y="729" type="line"/>
      <point x="646" y="729" type="line"/>
      <point x="646" y="40" type="line"/>
      <point x="311" y="40" type="line"/>
      <point x="311" y="570" type="line"/>
      <point x="273" y="570" type="line"/>
    </contour>
    <contour>
      <point x="86" y="0" type="line"/>
      <point x="126" y="0" type="line"/>
      <point x="126" y="689" type="line"/>
      <point x="461" y="689" type="line"/>
      <point x="461" y="160" type="line"/>
      <point x="499" y="160" type="line"/>
      <point x="499" y="661" type="line" smooth="yes"/>
      <point x="499" y="712"/>
      <point x="478" y="729"/>
      <point x="433" y="729" type="curve" smooth="yes"/>
      <point x="86" y="729" type="line"/>
    </contour>
  </outline>
</glyph>
<glyph name="rupeeIndian" format="2">
  <advance width="720"/>
  <unicode hex="20B9"/>
  <outline>
    <contour>
      <point x="524" y="0" type="line"/>
      <point x="587" y="0" type="line"/>
      <point x="112" y="337" type="line"/>
      <point x="112" y="328" type="line"/>
      <point x="321" y="328" type="line" smooth="yes"/>
      <point x="464" y="328"/>
      <point x="562" y="390"/>
      <point x="562" y="528" type="curve" smooth="yes"/>
      <point x="562" y="614"/>
      <point x="525" y="669"/>
      <point x="462" y="697" type="curve"/>
      <point x="454" y="692" type="line"/>
      <point x="672" y="692" type="line"/>
      <point x="672" y="729" type="line"/>
      <point x="53" y="729" type="line"/>
      <point x="53" y="691" type="line"/>
      <point x="339" y="691" type="line" smooth="yes"/>
      <point x="455" y="691"/>
      <point x="519" y="633"/>
      <point x="519" y="548" type="curve" smooth="yes"/>
      <point x="519" y="507" type="line" smooth="yes"/>
      <point x="519" y="421"/>
      <point x="454" y="364"/>
      <point x="339" y="364" type="curve" smooth="yes"/>
      <point x="53" y="364" type="line"/>
      <point x="53" y="333" type="line"/>
    </contour>
    <contour>
      <point x="53" y="509" type="line"/>
      <point x="538" y="509" type="line"/>
      <point x="538" y="546" type="line"/>
      <point x="53" y="546" type="line"/>
    </contour>
    <contour>
      <point x="538" y="509" type="line"/>
      <point x="672" y="509" type="line"/>
      <point x="672" y="546" type="line"/>
      <point x="538" y="546" type="line"/>
    </contour>
  </outline>
</glyph>
<glyph name="liraTurkish" format="2">
  <advance width="674"/>
  <unicode hex="20BA"/>
  <outline>
    <contour>
      <point x="161" y="0" type="line"/>
      <point x="202" y="0" type="line" smooth="yes"/>
      <point x="448" y="0"/>
      <point x="606" y="101"/>
      <point x="627" y="318" type="curve"/>
      <point x="589" y="318" type="line"/>
      <point x="575" y="149"/>
      <point x="454" y="36"/>
      <point x="199" y="39" type="curve"/>
      <point x="199" y="729" type="line"/>
      <point x="161" y="729" type="line"/>
    </contour>
    <contour>
      <point x="50" y="284" type="line"/>
      <point x="466" y="437" type="line"/>
      <point x="466" y="473" type="line"/>
      <point x="50" y="322" type="line"/>
    </contour>
    <contour>
      <point x="50" y="444" type="line"/>
      <point x="466" y="596" type="line"/>
      <point x="466" y="635" type="line"/>
      <point x="50" y="481" type="line"/>
    </contour>
  </outline>
</glyph>
<glyph name="literSign" format="2">
  <advance width="600"/>
  <unicode hex="2113"/>
  <outline>
    <contour>
      <point x="324" y="-10" type="curve" smooth="yes"/>
      <point x="406" y="-10"/>
      <point x="469" y="37"/>
      <point x="505" y="129" type="curve"/>
      <point x="473" y="140" type="line"/>
      <point x="442" y="61"/>
      <point x="392" y="22"/>
      <point x="324" y="22" type="curve" smooth="yes"/>
      <point x="230" y="22"/>
      <point x="181" y="143"/>
      <point x="181" y="388" type="curve" smooth="yes"/>
      <point x="181" y="585"/>
      <point x="238" y="707"/>
      <point x="327" y="707" type="curve" smooth="yes"/>
      <point x="394" y="707"/>
      <point x="429" y="650"/>
      <point x="429" y="538" type="curve" smooth="yes"/>
      <point x="429" y="316"/>
      <point x="291" y="161"/>
      <point x="63" y="134" type="curve"/>
      <point x="67" y="103" type="line"/>
      <point x="313" y="132"/>
      <point x="463" y="299"/>
      <point x="463" y="538" type="curve" smooth="yes"/>
      <point x="463" y="667"/>
      <point x="416" y="739"/>
      <point x="327" y="739" type="curve" smooth="yes"/>
      <point x="215" y="739"/>
      <point x="147" y="604"/>
      <point x="147" y="388" type="curve" smooth="yes"/>
      <point x="147" y="124"/>
      <point x="205" y="-10"/>
    </contour>
  </outline>
</glyph>
<glyph name="numero" format="2">
  <advance width="1299"/>
  <unicode hex="2116"/>
  <outline>
    <contour>
      <point x="80" y="0" type="line"/>
      <point x="121" y="0" type="line"/>
      <point x="121" y="679" type="line"/>
      <point x="128" y="679" type="line"/>
      <point x="142" y="662" type="line"/>
      <point x="742" y="0" type="line"/>
      <point x="799" y="0" type="line"/>
      <point x="799" y="729" type="line"/>
      <point x="758" y="729" type="line"/>
      <point x="758" y="50" type="line"/>
      <point x="751" y="50" type="line"/>
      <point x="732" y="71" type="line"/>
      <point x="137" y="729" type="line"/>
      <point x="80" y="729" type="line"/>
    </contour>
    <contour>
      <point x="925" y="231" type="line"/>
      <point x="1207" y="231" type="line"/>
      <point x="1207" y="263" type="line"/>
      <point x="925" y="263" type="line"/>
    </contour>
    <contour>
      <point x="1069" y="333" type="curve" smooth="yes"/>
      <point x="1174" y="333"/>
      <point x="1246" y="403"/>
      <point x="1246" y="536" type="curve" smooth="yes"/>
      <point x="1246" y="669"/>
      <point x="1173" y="739"/>
      <point x="1068" y="739" type="curve" smooth="yes"/>
      <point x="963" y="739"/>
      <point x="890" y="669"/>
      <point x="890" y="536" type="curve" smooth="yes"/>
      <point x="890" y="402"/>
      <point x="964" y="333"/>
    </contour>
    <contour>
      <point x="1068" y="364" type="curve" smooth="yes"/>
      <point x="979" y="364"/>
      <point x="928" y="426"/>
      <point x="928" y="536" type="curve" smooth="yes"/>
      <point x="928" y="646"/>
      <point x="980" y="707"/>
      <point x="1068" y="707" type="curve" smooth="yes"/>
      <point x="1158" y="707"/>
      <point x="1208" y="645"/>
      <point x="1208" y="536" type="curve" smooth="yes"/>
      <point x="1208" y="426"/>
      <point x="1157" y="364"/>
    </contour>
  </outline>
</glyph>
<glyph name="trademark" format="2">
  <advance width="783"/>
  <unicode hex="2122"/>
  <outline>
    <contour>
      <point x="371" y="419" type="line"/>
      <point x="404" y="419" type="line"/>
      <point x="404" y="567" type="line"/>
      <point x="403" y="683" type="line"/>
      <point x="405" y="683" type="line"/>
      <point x="544" y="419" type="line"/>
      <point x="570" y="419" type="line"/>
      <point x="709" y="683" type="line"/>
      <point x="713" y="683" type="line"/>
      <point x="709" y="567" type="line"/>
      <point x="709" y="419" type="line"/>
      <point x="746" y="419" type="line"/>
      <point x="746" y="729" type="line"/>
      <point x="697" y="729" type="line"/>
      <point x="559" y="462" type="line"/>
      <point x="556" y="462" type="line"/>
      <point x="415" y="729" type="line"/>
      <point x="371" y="729" type="line"/>
    </contour>
    <contour>
      <point x="157" y="419" type="line"/>
      <point x="191" y="419" type="line"/>
      <point x="191" y="697" type="line"/>
      <point x="317" y="697" type="line"/>
      <point x="317" y="729" type="line"/>
      <point x="38" y="729" type="line"/>
      <point x="38" y="697" type="line"/>
      <point x="157" y="697" type="line"/>
    </contour>
  </outline>
</glyph>
<glyph name="arrowup" format="2">
  <advance width="558"/>
  <unicode hex="2191"/>
  <outline>
    <contour>
      <point x="262" y="95" type="line"/>
      <point x="297" y="95" type="line"/>
      <point x="297" y="574" type="line"/>
      <point x="478" y="441" type="line"/>
      <point x="478" y="487" type="line"/>
      <point x="280" y="635" type="line"/>
      <point x="80" y="487" type="line"/>
      <point x="80" y="441" type="line"/>
      <point x="262" y="574" type="line"/>
    </contour>
  </outline>
</glyph>
<glyph name="leftRightArrow" format="2">
  <advance width="770"/>
  <unicode hex="2194"/>
  <outline>
    <contour>
      <point x="228" y="148" type="line"/>
      <point x="274" y="148" type="line"/>
      <point x="141" y="329" type="line"/>
      <point x="629" y="329" type="line"/>
      <point x="496" y="148" type="line"/>
      <point x="542" y="148" type="line"/>
      <point x="690" y="346" type="line"/>
      <point x="542" y="546" type="line"/>
      <point x="496" y="546" type="line"/>
      <point x="629" y="364" type="line"/>
      <point x="141" y="364" type="line"/>
      <point x="274" y="546" type="line"/>
      <point x="228" y="546" type="line"/>
      <point x="80" y="346" type="line"/>
    </contour>
  </outline>
</glyph>
<glyph name="emptyset" format="2">
  <advance width="793"/>
  <unicode hex="2205"/>
  <outline>
    <contour>
      <point x="682" y="558" type="line"/>
      <point x="97" y="202" type="line"/>
      <point x="107" y="172" type="line"/>
      <point x="696" y="529" type="line"/>
    </contour>
    <contour>
      <point x="397" y="-1" type="curve" smooth="yes"/>
      <point x="593" y="-1"/>
      <point x="757" y="150"/>
      <point x="757" y="366" type="curve" smooth="yes"/>
      <point x="757" y="579"/>
      <point x="593" y="730"/>
      <point x="397" y="730" type="curve" smooth="yes"/>
      <point x="198" y="730"/>
      <point x="36" y="579"/>
      <point x="36" y="366" type="curve" smooth="yes"/>
      <point x="36" y="150"/>
      <point x="198" y="-1"/>
    </contour>
    <contour>
      <point x="397" y="28" type="curve" smooth="yes"/>
      <point x="219" y="28"/>
      <point x="69" y="171"/>
      <point x="69" y="366" type="curve" smooth="yes"/>
      <point x="69" y="560"/>
      <point x="219" y="701"/>
      <point x="397" y="701" type="curve" smooth="yes"/>
      <point x="573" y="701"/>
      <point x="724" y="560"/>
      <point x="724" y="366" type="curve" smooth="yes"/>
      <point x="724" y="171"/>
      <point x="573" y="28"/>
    </contour>
  </outline>
</glyph>
<glyph name="product" format="2">
  <advance width="691"/>
  <unicode hex="220F"/>
  <outline>
    <contour>
      <point x="66" y="-92" type="line"/>
      <point x="105" y="-92" type="line"/>
      <point x="105" y="689" type="line"/>
      <point x="587" y="689" type="line"/>
      <point x="587" y="-92" type="line"/>
      <point x="625" y="-92" type="line"/>
      <point x="625" y="729" type="line"/>
      <point x="66" y="729" type="line"/>
    </contour>
  </outline>
</glyph>
<glyph name="summation" format="2">
  <advance width="632"/>
  <unicode hex="2211"/>
  <outline>
    <contour>
      <point x="28" y="-92" type="line"/>
      <point x="606" y="-92" type="line"/>
      <point x="606" y="-54" type="line"/>
      <point x="73" y="-54" type="line"/>
      <point x="73" y="-51" type="line"/>
      <point x="426" y="318" type="line"/>
      <point x="73" y="689" type="line"/>
      <point x="73" y="692" type="line"/>
      <point x="606" y="692" type="line"/>
      <point x="606" y="729" type="line"/>
      <point x="28" y="729" type="line"/>
      <point x="28" y="686" type="line"/>
      <point x="377" y="320" type="line"/>
      <point x="377" y="318" type="line"/>
      <point x="28" y="-50" type="line"/>
    </contour>
  </outline>
</glyph>
<glyph name="minus" format="2">
  <advance width="720"/>
  <unicode hex="2212"/>
  <outline>
    <contour>
      <point x="99" y="348" type="line"/>
      <point x="601" y="348" type="line"/>
      <point x="601" y="382" type="line"/>
      <point x="99" y="382" type="line"/>
    </contour>
  </outline>
</glyph>
<glyph name="radical" format="2">
  <advance width="666"/>
  <unicode hex="221A"/>
  <outline>
    <contour>
      <point x="247" y="-92" type="line"/>
      <point x="282" y="-92" type="line"/>
      <point x="643" y="729" type="line"/>
      <point x="602" y="729" type="line"/>
      <point x="268" y="-30" type="line"/>
      <point x="265" y="-30" type="line"/>
      <point x="143" y="367" type="line"/>
      <point x="24" y="367" type="line"/>
      <point x="24" y="333" type="line"/>
      <point x="116" y="333" type="line"/>
    </contour>
  </outline>
</glyph>
<glyph name="infinity" format="2">
  <advance width="904"/>
  <unicode hex="221E"/>
  <outline>
    <contour>
      <point x="229" y="153" type="curve" smooth="yes"/>
      <point x="335" y="153"/>
      <point x="399" y="240"/>
      <point x="453" y="337" type="curve"/>
      <point x="511" y="232"/>
      <point x="574" y="153"/>
      <point x="679" y="153" type="curve" smooth="yes"/>
      <point x="797" y="153"/>
      <point x="862" y="255"/>
      <point x="862" y="364" type="curve" smooth="yes"/>
      <point x="862" y="477"/>
      <point x="797" y="577"/>
      <point x="679" y="577" type="curve" smooth="yes"/>
      <point x="568" y="577"/>
      <point x="508" y="489"/>
      <point x="453" y="394" type="curve"/>
      <point x="399" y="489"/>
      <point x="338" y="577"/>
      <point x="228" y="577" type="curve" smooth="yes"/>
      <point x="111" y="577"/>
      <point x="42" y="479"/>
      <point x="42" y="364" type="curve" smooth="yes"/>
      <point x="42" y="244"/>
      <point x="112" y="153"/>
    </contour>
    <contour>
      <point x="227" y="188" type="curve" smooth="yes"/>
      <point x="138" y="188"/>
      <point x="75" y="258"/>
      <point x="75" y="364" type="curve" smooth="yes"/>
      <point x="75" y="466"/>
      <point x="136" y="541"/>
      <point x="226" y="541" type="curve" smooth="yes"/>
      <point x="308" y="541"/>
      <point x="360" y="483"/>
      <point x="433" y="365" type="curve"/>
      <point x="360" y="243"/>
      <point x="305" y="188"/>
    </contour>
    <contour>
      <point x="679" y="188" type="curve" smooth="yes"/>
      <point x="594" y="188"/>
      <point x="547" y="247"/>
      <point x="473" y="365" type="curve"/>
      <point x="546" y="481"/>
      <point x="595" y="541"/>
      <point x="679" y="541" type="curve" smooth="yes"/>
      <point x="769" y="541"/>
      <point x="830" y="465"/>
      <point x="830" y="364" type="curve" smooth="yes"/>
      <point x="830" y="266"/>
      <point x="769" y="188"/>
    </contour>
  </outline>
</glyph>
<glyph name="integral" format="2">
  <advance width="447"/>
  <unicode hex="222B"/>
  <outline>
    <contour>
      <point x="23" y="-92" type="line"/>
      <point x="194" y="-92" type="line" smooth="yes"/>
      <point x="234" y="-92"/>
      <point x="242" y="-66"/>
      <point x="242" y="-39" type="curve" smooth="yes"/>
      <point x="242" y="692" type="line"/>
      <point x="424" y="692" type="line"/>
      <point x="424" y="729" type="line"/>
      <point x="252" y="729" type="line" smooth="yes"/>
      <point x="222" y="729"/>
      <point x="205" y="707"/>
      <point x="205" y="673" type="curve" smooth="yes"/>
      <point x="205" y="-56" type="line"/>
      <point x="23" y="-56" type="line"/>
    </contour>
  </outline>
</glyph>
<glyph name="approxequal" format="2">
  <advance width="720"/>
  <unicode hex="2248"/>
  <outline>
    <contour>
      <point x="186" y="389" type="curve"/>
      <point x="207" y="389" type="line"/>
      <point x="203" y="430"/>
      <point x="211" y="453"/>
      <point x="253" y="453" type="curve" smooth="yes"/>
      <point x="299" y="453"/>
      <point x="390" y="390"/>
      <point x="448" y="390" type="curve" smooth="yes"/>
      <point x="500" y="390"/>
      <point x="527" y="421"/>
      <point x="514" y="489" type="curve"/>
      <point x="493" y="489" type="line"/>
      <point x="497" y="447"/>
      <point x="490" y="424"/>
      <point x="448" y="424" type="curve" smooth="yes"/>
      <point x="403" y="424"/>
      <point x="312" y="487"/>
      <point x="253" y="487" type="curve" smooth="yes"/>
      <point x="202" y="487"/>
      <point x="173" y="457"/>
    </contour>
    <contour>
      <point x="186" y="241" type="curve"/>
      <point x="207" y="241" type="line"/>
      <point x="203" y="281"/>
      <point x="210" y="306"/>
      <point x="253" y="306" type="curve" smooth="yes"/>
      <point x="299" y="306"/>
      <point x="390" y="243"/>
      <point x="448" y="243" type="curve" smooth="yes"/>
      <point x="503" y="243"/>
      <point x="526" y="277"/>
      <point x="514" y="341" type="curve"/>
      <point x="493" y="341" type="line"/>
      <point x="497" y="301"/>
      <point x="491" y="276"/>
      <point x="448" y="276" type="curve" smooth="yes"/>
      <point x="403" y="276"/>
      <point x="312" y="339"/>
      <point x="253" y="339" type="curve" smooth="yes"/>
      <point x="201" y="339"/>
      <point x="173" y="308"/>
    </contour>
  </outline>
</glyph>
<glyph name="notequal" format="2">
  <advance width="720"/>
  <unicode hex="2260"/>
  <outline>
    <contour>
      <point x="201" y="110" type="line"/>
      <point x="240" y="110" type="line"/>
      <point x="520" y="611" type="line"/>
      <point x="480" y="611" type="line"/>
    </contour>
    <contour>
      <point x="109" y="238" type="line"/>
      <point x="611" y="238" type="line"/>
      <point x="611" y="272" type="line"/>
      <point x="109" y="272" type="line"/>
    </contour>
    <contour>
      <point x="109" y="458" type="line"/>
      <point x="611" y="458" type="line"/>
      <point x="611" y="492" type="line"/>
      <point x="109" y="492" type="line"/>
    </contour>
  </outline>
</glyph>
<glyph name="lessequal" format="2">
  <advance width="720"/>
  <unicode hex="2264"/>
  <outline>
    <contour>
      <point x="615" y="119" type="line"/>
      <point x="615" y="162" type="line"/>
      <point x="123" y="363" type="line"/>
      <point x="123" y="367" type="line"/>
      <point x="615" y="568" type="line"/>
      <point x="615" y="611" type="line"/>
      <point x="82" y="390" type="line"/>
      <point x="82" y="340" type="line"/>
    </contour>
    <contour>
      <point x="82" y="0" type="line"/>
      <point x="615" y="0" type="line"/>
      <point x="615" y="37" type="line"/>
      <point x="82" y="37" type="line"/>
    </contour>
  </outline>
</glyph>
<glyph name="greaterequal" format="2">
  <advance width="720"/>
  <unicode hex="2265"/>
  <outline>
    <contour>
      <point x="36" y="119" type="line"/>
      <point x="569" y="340" type="line"/>
      <point x="569" y="390" type="line"/>
      <point x="36" y="611" type="line"/>
      <point x="36" y="568" type="line"/>
      <point x="528" y="367" type="line"/>
      <point x="528" y="363" type="line"/>
      <point x="36" y="162" type="line"/>
    </contour>
    <contour>
      <point x="36" y="0" type="line"/>
      <point x="569" y="0" type="line"/>
      <point x="569" y="37" type="line"/>
      <point x="36" y="37" type="line"/>
    </contour>
  </outline>
</glyph>
<glyph name="blackCircle" format="2">
  <advance width="946"/>
  <unicode hex="25CF"/>
  <anchor x="473" y="365" name="center"/>
  <outline>
    <contour>
      <point x="473" y="-27" type="curve" smooth="yes"/>
      <point x="226" y="-27"/>
      <point x="54" y="129"/>
      <point x="54" y="360" type="curve" smooth="yes"/>
      <point x="54" y="364"/>
      <point x="54" y="368"/>
      <point x="54" y="372" type="curve" smooth="yes"/>
      <point x="54" y="603"/>
      <point x="226" y="759"/>
      <point x="473" y="759" type="curve" smooth="yes"/>
      <point x="720" y="759"/>
      <point x="892" y="603"/>
      <point x="892" y="372" type="curve" smooth="yes"/>
      <point x="892" y="368"/>
      <point x="892" y="364"/>
      <point x="892" y="360" type="curve" smooth="yes"/>
      <point x="892" y="129"/>
      <point x="720" y="-27"/>
    </contour>
  </outline>
</glyph>
<glyph name="whiteFrowningFace" format="2">
  <advance width="869"/>
  <unicode hex="2639"/>
  <outline>
    <contour>
      <point x="435" y="-10" type="curve" smooth="yes"/>
      <point x="652" y="-10"/>
      <point x="809" y="140"/>
      <point x="809" y="366" type="curve" smooth="yes"/>
      <point x="809" y="590"/>
      <point x="652" y="739"/>
      <point x="435" y="739" type="curve" smooth="yes"/>
      <point x="218" y="739"/>
      <point x="60" y="590"/>
      <point x="60" y="366" type="curve" smooth="yes"/>
      <point x="60" y="140"/>
      <point x="218" y="-10"/>
    </contour>
    <contour>
      <point x="238" y="177" type="line"/>
      <point x="274" y="244"/>
      <point x="348" y="285"/>
      <point x="435" y="285" type="curve" smooth="yes"/>
      <point x="522" y="285"/>
      <point x="596" y="244"/>
      <point x="632" y="177" type="curve"/>
      <point x="660" y="189" type="line"/>
      <point x="621" y="268"/>
      <point x="540" y="316"/>
      <point x="435" y="316" type="curve" smooth="yes"/>
      <point x="330" y="316"/>
      <point x="249" y="268"/>
      <point x="210" y="189" type="curve"/>
    </contour>
    <contour>
      <point x="435" y="19" type="curve" smooth="yes"/>
      <point x="237" y="19"/>
      <point x="93" y="158"/>
      <point x="93" y="366" type="curve" smooth="yes"/>
      <point x="93" y="572"/>
      <point x="237" y="710"/>
      <point x="435" y="710" type="curve" smooth="yes"/>
      <point x="632" y="710"/>
      <point x="776" y="572"/>
      <point x="776" y="366" type="curve" smooth="yes"/>
      <point x="776" y="158"/>
      <point x="632" y="19"/>
    </contour>
    <contour>
      <point x="347" y="392" type="curve" smooth="yes"/>
      <point x="365" y="392"/>
      <point x="374" y="405"/>
      <point x="374" y="426" type="curve" smooth="yes"/>
      <point x="374" y="491" type="line" smooth="yes"/>
      <point x="374" y="512"/>
      <point x="365" y="525"/>
      <point x="347" y="525" type="curve" smooth="yes"/>
      <point x="329" y="525"/>
      <point x="320" y="512"/>
      <point x="320" y="491" type="curve" smooth="yes"/>
      <point x="320" y="426" type="line" smooth="yes"/>
      <point x="320" y="405"/>
      <point x="329" y="392"/>
    </contour>
    <contour>
      <point x="523" y="392" type="curve" smooth="yes"/>
      <point x="541" y="392"/>
      <point x="550" y="405"/>
      <point x="550" y="426" type="curve" smooth="yes"/>
      <point x="550" y="491" type="line" smooth="yes"/>
      <point x="550" y="512"/>
      <point x="541" y="525"/>
      <point x="523" y="525" type="curve" smooth="yes"/>
      <point x="505" y="525"/>
      <point x="496" y="512"/>
      <point x="496" y="491" type="curve" smooth="yes"/>
      <point x="496" y="426" type="line" smooth="yes"/>
      <point x="496" y="405"/>
      <point x="505" y="392"/>
    </contour>
  </outline>
</glyph>
<glyph name="whiteSmilingFace" format="2">
  <advance width="869"/>
  <unicode hex="263A"/>
  <outline>
    <contour>
      <point x="435" y="-10" type="curve" smooth="yes"/>
      <point x="652" y="-10"/>
      <point x="809" y="140"/>
      <point x="809" y="366" type="curve" smooth="yes"/>
      <point x="809" y="590"/>
      <point x="652" y="739"/>
      <point x="435" y="739" type="curve" smooth="yes"/>
      <point x="218" y="739"/>
      <point x="60" y="590"/>
      <point x="60" y="366" type="curve" smooth="yes"/>
      <point x="60" y="140"/>
      <point x="218" y="-10"/>
    </contour>
    <contour>
      <point x="433" y="105" type="curve" smooth="yes"/>
      <point x="572" y="105"/>
      <point x="667" y="187"/>
      <point x="685" y="311" type="curve"/>
      <point x="721" y="311" type="line"/>
      <point x="721" y="326" type="line"/>
      <point x="612" y="326" type="line"/>
      <point x="612" y="311" type="line"/>
      <point x="651" y="311" type="line"/>
      <point x="639" y="206"/>
      <point x="550" y="136"/>
      <point x="433" y="136" type="curve" smooth="yes"/>
      <point x="319" y="136"/>
      <point x="229" y="206"/>
      <point x="216" y="311" type="curve"/>
      <point x="257" y="311" type="line"/>
      <point x="257" y="326" type="line"/>
      <point x="148" y="326" type="line"/>
      <point x="148" y="311" type="line"/>
      <point x="183" y="311" type="line"/>
      <point x="200" y="187"/>
      <point x="296" y="105"/>
    </contour>
    <contour>
      <point x="435" y="19" type="curve" smooth="yes"/>
      <point x="237" y="19"/>
      <point x="93" y="158"/>
      <point x="93" y="366" type="curve" smooth="yes"/>
      <point x="93" y="572"/>
      <point x="237" y="710"/>
      <point x="435" y="710" type="curve" smooth="yes"/>
      <point x="632" y="710"/>
      <point x="776" y="572"/>
      <point x="776" y="366" type="curve" smooth="yes"/>
      <point x="776" y="158"/>
      <point x="632" y="19"/>
    </contour>
    <contour>
      <point x="347" y="392" type="curve" smooth="yes"/>
      <point x="365" y="392"/>
      <point x="374" y="405"/>
      <point x="374" y="426" type="curve" smooth="yes"/>
      <point x="374" y="491" type="line" smooth="yes"/>
      <point x="374" y="512"/>
      <point x="365" y="525"/>
      <point x="347" y="525" type="curve" smooth="yes"/>
      <point x="329" y="525"/>
      <point x="320" y="512"/>
      <point x="320" y="491" type="curve" smooth="yes"/>
      <point x="320" y="426" type="line" smooth="yes"/>
      <point x="320" y="405"/>
      <point x="329" y="392"/>
    </contour>
    <contour>
      <point x="523" y="392" type="curve" smooth="yes"/>
      <point x="541" y="392"/>
      <point x="550" y="405"/>
      <point x="550" y="426" type="curve" smooth="yes"/>
      <point x="550" y="491" type="line" smooth="yes"/>
      <point x="550" y="512"/>
      <point x="541" y="525"/>
      <point x="523" y="525" type="curve" smooth="yes"/>
      <point x="505" y="525"/>
      <point x="496" y="512"/>
      <point x="496" y="491" type="curve" smooth="yes"/>
      <point x="496" y="426" type="line" smooth="yes"/>
      <point x="496" y="405"/>
      <point x="505" y="392"/>
    </contour>
  </outline>
</glyph>
<glyph name="checkmark" format="2">
  <advance width="798"/>
  <unicode hex="2713"/>
  <outline>
    <contour>
      <point x="239" y="136" type="line"/>
      <point x="745" y="559" type="line"/>
      <point x="722" y="588" type="line"/>
      <point x="243" y="189" type="line"/>
      <point x="79" y="413" type="line"/>
      <point x="53" y="388" type="line"/>
    </contour>
  </outline>
</glyph>
<glyph name="fl" format="2">
  <advance width="512"/>
  <unicode hex="FB02"/>
  <anchor x="256" y="0" name="caret_1"/>
  <outline>
    <contour>
      <point x="140" y="0" type="line"/>
      <point x="177" y="0" type="line"/>
      <point x="177" y="480" type="line"/>
      <point x="331" y="480" type="line"/>
      <point x="331" y="516" type="line"/>
      <point x="177" y="516" type="line"/>
      <point x="177" y="693" type="line"/>
      <point x="409" y="693" type="line"/>
      <point x="409" y="0" type="line"/>
      <point x="446" y="0" type="line"/>
      <point x="446" y="729" type="line"/>
      <point x="185" y="729" type="line" smooth="yes"/>
      <point x="157" y="729"/>
      <point x="140" y="711"/>
      <point x="140" y="681" type="curve" smooth="yes"/>
      <point x="140" y="516" type="line"/>
      <point x="25" y="516" type="line"/>
      <point x="25" y="480" type="line"/>
      <point x="140" y="480" type="line"/>
    </contour>
  </outline>
</glyph>
<glyph name="I.ss04" format="2">
  <advance width="201"/>
  <note>
I
</note>
  <anchor x="101" y="0" name="bottom"/>
  <anchor x="121" y="0" name="ogonek"/>
  <anchor x="101" y="729" name="top"/>
  <anchor x="-19" y="729" name="topleft"/>
  <outline>
    <contour>
      <point x="80" y="0" type="line"/>
      <point x="121" y="0" type="line"/>
      <point x="121" y="729" type="line"/>
      <point x="80" y="729" type="line"/>
    </contour>
  </outline>
</glyph>
<glyph name="_AE.E" format="2">
  <advance width="795"/>
  <anchor x="390" y="0" name="#entry"/>
  <outline>
    <contour>
      <point x="40" y="690" type="line"/>
      <point x="754" y="690" type="line"/>
      <point x="754" y="729" type="line"/>
      <point x="40" y="729" type="line"/>
    </contour>
    <contour>
      <point x="390" y="0" type="line"/>
      <point x="754" y="0" type="line"/>
      <point x="754" y="39" type="line"/>
      <point x="390" y="39" type="line"/>
    </contour>
    <contour>
      <point x="227" y="357" type="line"/>
      <point x="598" y="357" type="line"/>
      <point x="598" y="394" type="line"/>
      <point x="227" y="394" type="line"/>
    </contour>
  </outline>
</glyph>
<glyph name="_Euro.bars" format="2">
  <advance width="578"/>
  <anchor x="527" y="0" name="_bottom"/>
  <outline>
    <contour>
      <point x="538" y="257" type="line"/>
      <point x="538" y="289" type="line"/>
      <point x="157" y="289" type="line"/>
      <point x="157" y="257" type="line"/>
    </contour>
    <contour>
      <point x="40" y="257" type="line"/>
      <point x="157" y="257" type="line"/>
      <point x="157" y="289" type="line"/>
      <point x="40" y="289" type="line"/>
    </contour>
    <contour>
      <point x="40" y="440" type="line"/>
      <point x="157" y="440" type="line"/>
      <point x="157" y="472" type="line"/>
      <point x="40" y="472" type="line"/>
    </contour>
    <contour>
      <point x="538" y="440" type="line"/>
      <point x="538" y="472" type="line"/>
      <point x="157" y="472" type="line"/>
      <point x="157" y="440" type="line"/>
    </contour>
  </outline>
</glyph>
<glyph name="_OE.O" format="2">
  <advance width="835"/>
  <anchor x="756" y="0" name="#exit"/>
  <outline>
    <contour>
      <point x="467" y="0" type="curve" smooth="yes"/>
      <point x="795" y="0" type="line"/>
      <point x="795" y="39" type="line"/>
      <point x="452" y="39" type="line" smooth="yes"/>
      <point x="244" y="39"/>
      <point x="98" y="142"/>
      <point x="98" y="323" type="curve" smooth="yes"/>
      <point x="98" y="406" type="line" smooth="yes"/>
      <point x="98" y="587"/>
      <point x="244" y="690"/>
      <point x="452" y="690" type="curve" smooth="yes"/>
      <point x="795" y="690" type="line"/>
      <point x="795" y="729" type="line"/>
      <point x="467" y="729" type="line" smooth="yes"/>
      <point x="198" y="729"/>
      <point x="51" y="596"/>
      <point x="51" y="375" type="curve" smooth="yes"/>
      <point x="51" y="355" type="line" smooth="yes"/>
      <point x="51" y="133"/>
      <point x="198" y="0"/>
    </contour>
  </outline>
</glyph>
<glyph name="_Stem.Uppercase" format="2">
  <advance width="262"/>
  <outline>
    <contour>
      <point x="123" y="0" type="line"/>
      <point x="165" y="0" type="line"/>
      <point x="165" y="729" type="line"/>
      <point x="123" y="729" type="line"/>
    </contour>
  </outline>
</glyph>
<glyph name="_bitcoin.bars" format="2">
  <advance width="267"/>
  <anchor x="167" y="0" name="_bottom"/>
  <outline>
    <contour>
      <point x="190" y="713" type="line"/>
      <point x="227" y="713" type="line"/>
      <point x="227" y="850" type="line"/>
      <point x="190" y="850" type="line"/>
    </contour>
    <contour>
      <point x="40" y="-121" type="line"/>
      <point x="77" y="-121" type="line"/>
      <point x="77" y="12" type="line"/>
      <point x="40" y="12" type="line"/>
    </contour>
    <contour>
      <point x="190" y="-121" type="line"/>
      <point x="227" y="-121" type="line"/>
      <point x="227" y="12" type="line"/>
      <point x="190" y="12" type="line"/>
    </contour>
    <contour>
      <point x="40" y="713" type="line"/>
      <point x="77" y="713" type="line"/>
      <point x="77" y="850" type="line"/>
      <point x="40" y="850" type="line"/>
    </contour>
  </outline>
</glyph>
<glyph name="_copyright.C" format="2">
  <advance width="556"/>
  <anchor x="286" y="365" name="_center"/>
  <outline>
    <contour>
      <point x="287" y="128" type="curve" smooth="yes"/>
      <point x="406" y="128"/>
      <point x="506" y="193"/>
      <point x="516" y="280" type="curve"/>
      <point x="476" y="280" type="line"/>
      <point x="457" y="206"/>
      <point x="379" y="162"/>
      <point x="290" y="162" type="curve" smooth="yes"/>
      <point x="165" y="162"/>
      <point x="83" y="232"/>
      <point x="83" y="352" type="curve" smooth="yes"/>
      <point x="83" y="378" type="line" smooth="yes"/>
      <point x="83" y="492"/>
      <point x="160" y="568"/>
      <point x="290" y="568" type="curve" smooth="yes"/>
      <point x="379" y="568"/>
      <point x="457" y="526"/>
      <point x="476" y="452" type="curve"/>
      <point x="516" y="452" type="line"/>
      <point x="506" y="539"/>
      <point x="406" y="604"/>
      <point x="287" y="604" type="curve" smooth="yes"/>
      <point x="141" y="604"/>
      <point x="40" y="512"/>
      <point x="40" y="371" type="curve" smooth="yes"/>
      <point x="40" y="351" type="line" smooth="yes"/>
      <point x="40" y="228"/>
      <point x="130" y="128"/>
    </contour>
  </outline>
</glyph>
<glyph name="_published.P" format="2">
  <advance width="477"/>
  <anchor x="201" y="365" name="_center"/>
  <outline>
    <contour>
      <point x="40" y="157" type="line"/>
      <point x="77" y="157" type="line"/>
      <point x="77" y="539" type="line"/>
      <point x="283" y="539" type="line" smooth="yes"/>
      <point x="353" y="539"/>
      <point x="402" y="510"/>
      <point x="402" y="439" type="curve" smooth="yes"/>
      <point x="402" y="368"/>
      <point x="353" y="339"/>
      <point x="283" y="339" type="curve" smooth="yes"/>
      <point x="73" y="339" type="line"/>
      <point x="73" y="307" type="line"/>
      <point x="287" y="307" type="line" smooth="yes"/>
      <point x="383" y="307"/>
      <point x="437" y="359"/>
      <point x="437" y="439" type="curve" smooth="yes"/>
      <point x="437" y="519"/>
      <point x="383" y="571"/>
      <point x="287" y="571" type="curve" smooth="yes"/>
      <point x="40" y="571" type="line"/>
    </contour>
  </outline>
</glyph>
<glyph name="_tail.Q" format="2">
  <advance width="393"/>
  <anchor x="58" y="0" name="_bottom"/>
  <outline>
    <contour>
      <point x="92" y="-167" type="curve" smooth="yes"/>
      <point x="353" y="-167" type="line"/>
      <point x="353" y="-130" type="line"/>
      <point x="77" y="-130" type="line"/>
      <point x="77" y="5" type="line"/>
      <point x="40" y="5" type="line"/>
      <point x="40" y="-120" type="line" smooth="yes"/>
      <point x="40" y="-150"/>
      <point x="50" y="-167"/>
    </contour>
  </outline>
</glyph>
<glyph name="_tail.Q.ss01" format="2">
  <advance width="475"/>
  <anchor x="-26" y="1" name="_bottom"/>
  <outline>
    <contour>
      <point x="435" y="-24" type="line"/>
      <point x="435" y="23" type="line"/>
      <point x="40" y="314" type="line"/>
      <point x="40" y="267" type="line"/>
    </contour>
  </outline>
</glyph>
<glyph name="_yen.bars" format="2">
  <advance width="538"/>
  <anchor x="269" y="0" name="_bottom"/>
  <outline>
    <contour>
      <point x="40" y="301" type="line"/>
      <point x="498" y="301" type="line"/>
      <point x="498" y="338" type="line"/>
      <point x="40" y="338" type="line"/>
    </contour>
    <contour>
      <point x="40" y="155" type="line"/>
      <point x="498" y="155" type="line"/>
      <point x="498" y="190" type="line"/>
      <point x="40" y="190" type="line"/>
    </contour>
  </outline>
</glyph>
<glyph name="a.ss01" format="2">
  <advance width="600"/>
  <note>
a
</note>
  <anchor x="290" y="0" name="bottom"/>
  <anchor x="534" y="0" name="ogonek"/>
  <anchor x="304" y="516" name="top"/>
  <outline>
    <contour>
      <point x="247" y="-10" type="curve" smooth="yes"/>
      <point x="360" y="-10"/>
      <point x="452" y="38"/>
      <point x="492" y="100" type="curve"/>
      <point x="497" y="100" type="line"/>
      <point x="500" y="0" type="line"/>
      <point x="534" y="0" type="line"/>
      <point x="534" y="342" type="line" smooth="yes"/>
      <point x="534" y="460"/>
      <point x="450" y="526"/>
      <point x="304" y="526" type="curve" smooth="yes"/>
      <point x="163" y="526"/>
      <point x="73" y="464"/>
      <point x="57" y="358" type="curve"/>
      <point x="95" y="358" type="line"/>
      <point x="112" y="450"/>
      <point x="190" y="490"/>
      <point x="302" y="490" type="curve" smooth="yes"/>
      <point x="430" y="490"/>
      <point x="497" y="439"/>
      <point x="497" y="342" type="curve" smooth="yes"/>
      <point x="497" y="153" type="line"/>
      <point x="456" y="74"/>
      <point x="365" y="26"/>
      <point x="251" y="26" type="curve" smooth="yes"/>
      <point x="151" y="26"/>
      <point x="95" y="68"/>
      <point x="95" y="142" type="curve" smooth="yes"/>
      <point x="95" y="146" type="line" smooth="yes"/>
      <point x="95" y="233"/>
      <point x="161" y="278"/>
      <point x="298" y="278" type="curve" smooth="yes"/>
      <point x="505" y="278" type="line"/>
      <point x="508" y="313" type="line"/>
      <point x="302" y="313" type="line" smooth="yes"/>
      <point x="141" y="313"/>
      <point x="53" y="256"/>
      <point x="53" y="141" type="curve" smooth="yes"/>
      <point x="53" y="46"/>
      <point x="129" y="-10"/>
    </contour>
  </outline>
</glyph>
<glyph name="braceleft.case" format="2">
  <advance width="403"/>
  <outline>
    <contour>
      <point x="182" y="-63" type="curve" smooth="yes"/>
      <point x="364" y="-63" type="line"/>
      <point x="364" y="-29" type="line"/>
      <point x="177" y="-29" type="line"/>
      <point x="177" y="261" type="line" smooth="yes"/>
      <point x="177" y="319"/>
      <point x="143" y="362"/>
      <point x="107" y="364" type="curve"/>
      <point x="107" y="368" type="line"/>
      <point x="142" y="369"/>
      <point x="177" y="409"/>
      <point x="177" y="471" type="curve" smooth="yes"/>
      <point x="177" y="759" type="line"/>
      <point x="364" y="759" type="line"/>
      <point x="364" y="793" type="line"/>
      <point x="182" y="793" type="line" smooth="yes"/>
      <point x="153" y="793"/>
      <point x="140" y="774"/>
      <point x="140" y="748" type="curve" smooth="yes"/>
      <point x="140" y="471" type="line" smooth="yes"/>
      <point x="140" y="415"/>
      <point x="108" y="385"/>
      <point x="77" y="385" type="curve" smooth="yes"/>
      <point x="37" y="385" type="line"/>
      <point x="37" y="346" type="line"/>
      <point x="77" y="346" type="line" smooth="yes"/>
      <point x="108" y="346"/>
      <point x="140" y="316"/>
      <point x="140" y="261" type="curve" smooth="yes"/>
      <point x="140" y="-18" type="line" smooth="yes"/>
      <point x="140" y="-44"/>
      <point x="153" y="-63"/>
    </contour>
  </outline>
</glyph>
<glyph name="bracketleft.case" format="2">
  <advance width="353"/>
  <outline>
    <contour>
      <point x="80" y="-63" type="line"/>
      <point x="314" y="-63" type="line"/>
      <point x="314" y="-29" type="line"/>
      <point x="116" y="-29" type="line"/>
      <point x="116" y="759" type="line"/>
      <point x="314" y="759" type="line"/>
      <point x="314" y="793" type="line"/>
      <point x="80" y="793" type="line"/>
    </contour>
  </outline>
</glyph>
<glyph name="brevecomb_acutecomb" format="2">
  <anchor x="173" y="516" name="_top"/>
  <outline>
    <contour>
      <point x="173" y="575" type="curve" smooth="yes"/>
      <point x="253" y="575"/>
      <point x="307" y="626"/>
      <point x="307" y="700" type="curve"/>
      <point x="269" y="700" type="line"/>
      <point x="269" y="640"/>
      <point x="231" y="606"/>
      <point x="173" y="606" type="curve" smooth="yes"/>
      <point x="111" y="606"/>
      <point x="76" y="644"/>
      <point x="77" y="700" type="curve"/>
      <point x="40" y="700" type="line"/>
      <point x="40" y="625"/>
      <point x="93" y="575"/>
    </contour>
    <contour>
      <point x="147" y="710" type="line"/>
      <point x="187" y="710" type="line"/>
      <point x="248" y="826" type="line"/>
      <point x="208" y="826" type="line"/>
    </contour>
  </outline>
</glyph>
<glyph name="brevecomb_gravecomb" format="2">
  <anchor x="174" y="516" name="_top"/>
  <outline>
    <contour>
      <point x="174" y="575" type="curve" smooth="yes"/>
      <point x="254" y="575"/>
      <point x="307" y="625"/>
      <point x="307" y="700" type="curve"/>
      <point x="270" y="700" type="line"/>
      <point x="271" y="644"/>
      <point x="236" y="606"/>
      <point x="174" y="606" type="curve" smooth="yes"/>
      <point x="116" y="606"/>
      <point x="78" y="640"/>
      <point x="78" y="700" type="curve"/>
      <point x="40" y="700" type="line"/>
      <point x="41" y="625"/>
      <point x="95" y="575"/>
    </contour>
    <contour>
      <point x="159" y="710" type="line"/>
      <point x="199" y="710" type="line"/>
      <point x="138" y="826" type="line"/>
      <point x="98" y="826" type="line"/>
    </contour>
  </outline>
</glyph>
<glyph name="brevecomb_hookabovecomb" format="2">
  <anchor x="174" y="516" name="_top"/>
  <outline>
    <contour>
      <point x="174" y="575" type="curve" smooth="yes"/>
      <point x="254" y="575"/>
      <point x="307" y="625"/>
      <point x="307" y="700" type="curve"/>
      <point x="270" y="700" type="line"/>
      <point x="271" y="644"/>
      <point x="236" y="606"/>
      <point x="174" y="606" type="curve" smooth="yes"/>
      <point x="116" y="606"/>
      <point x="78" y="640"/>
      <point x="78" y="700" type="curve"/>
      <point x="40" y="700" type="line"/>
      <point x="41" y="625"/>
      <point x="95" y="575"/>
    </contour>
    <contour>
      <point x="173" y="689" type="line"/>
      <point x="213" y="712"/>
      <point x="238" y="739"/>
      <point x="238" y="771" type="curve" smooth="yes"/>
      <point x="238" y="807"/>
      <point x="209" y="830"/>
      <point x="165" y="830" type="curve" smooth="yes"/>
      <point x="150" y="830"/>
      <point x="129" y="828"/>
      <point x="112" y="821" type="curve"/>
      <point x="114" y="793" type="line"/>
      <point x="126" y="799"/>
      <point x="144" y="801"/>
      <point x="158" y="801" type="curve" smooth="yes"/>
      <point x="184" y="801"/>
      <point x="202" y="789"/>
      <point x="202" y="768" type="curve" smooth="yes"/>
      <point x="202" y="744"/>
      <point x="185" y="730"/>
      <point x="155" y="712" type="curve"/>
    </contour>
  </outline>
</glyph>
<glyph name="brevecomb_tildecomb" format="2">
  <anchor x="174" y="516" name="_top"/>
  <outline>
    <contour>
      <point x="174" y="575" type="curve" smooth="yes"/>
      <point x="254" y="575"/>
      <point x="307" y="627"/>
      <point x="307" y="700" type="curve"/>
      <point x="270" y="700" type="line"/>
      <point x="271" y="644"/>
      <point x="236" y="606"/>
      <point x="174" y="606" type="curve" smooth="yes"/>
      <point x="116" y="606"/>
      <point x="78" y="640"/>
      <point x="78" y="700" type="curve"/>
      <point x="40" y="700" type="line"/>
      <point x="41" y="625"/>
      <point x="95" y="575"/>
    </contour>
    <contour>
      <point x="232" y="744" type="curve" smooth="yes"/>
      <point x="271" y="744"/>
      <point x="295" y="766"/>
      <point x="298" y="819" type="curve"/>
      <point x="274" y="819" type="line"/>
      <point x="272" y="796"/>
      <point x="262" y="778"/>
      <point x="234" y="778" type="curve" smooth="yes"/>
      <point x="198" y="778"/>
      <point x="156" y="814"/>
      <point x="114" y="814" type="curve" smooth="yes"/>
      <point x="75" y="814"/>
      <point x="51" y="787"/>
      <point x="50" y="738" type="curve"/>
      <point x="74" y="738" type="line"/>
      <point x="75" y="765"/>
      <point x="86" y="779"/>
      <point x="113" y="779" type="curve" smooth="yes"/>
      <point x="148" y="779"/>
      <point x="188" y="744"/>
    </contour>
  </outline>
</glyph>
<glyph name="caroncomb.alt" format="2">
  <anchor x="7" y="729" name="_topright"/>
  <outline>
    <contour>
      <point x="40" y="515" type="line"/>
      <point x="76" y="515" type="line"/>
      <point x="116" y="729" type="line"/>
      <point x="80" y="729" type="line"/>
    </contour>
  </outline>
</glyph>
<glyph name="caroncomb.alt.t" format="2">
  <anchor x="-16" y="729" name="_topright"/>
  <outline>
    <contour>
      <point x="40" y="582" type="line"/>
      <point x="75" y="582" type="line"/>
      <point x="114" y="729" type="line"/>
      <point x="77" y="729" type="line"/>
    </contour>
  </outline>
</glyph>
<glyph name="circumflexcomb_acutecomb" format="2">
  <anchor x="179" y="516" name="_top"/>
  <outline>
    <contour>
      <point x="40" y="571" type="line"/>
      <point x="82" y="571" type="line"/>
      <point x="179" y="680" type="line"/>
      <point x="276" y="571" type="line"/>
      <point x="319" y="571" type="line"/>
      <point x="202" y="707" type="line"/>
      <point x="156" y="707" type="line"/>
    </contour>
    <contour>
      <point x="159" y="757" type="line"/>
      <point x="199" y="757" type="line"/>
      <point x="243" y="840" type="line"/>
      <point x="203" y="840" type="line"/>
    </contour>
  </outline>
</glyph>
<glyph name="circumflexcomb_gravecomb" format="2">
  <anchor x="180" y="516" name="_top"/>
  <outline>
    <contour>
      <point x="40" y="571" type="line"/>
      <point x="83" y="571" type="line"/>
      <point x="180" y="680" type="line"/>
      <point x="277" y="571" type="line"/>
      <point x="319" y="571" type="line"/>
      <point x="203" y="707" type="line"/>
      <point x="157" y="707" type="line"/>
    </contour>
    <contour>
      <point x="155" y="757" type="line"/>
      <point x="195" y="757" type="line"/>
      <point x="151" y="840" type="line"/>
      <point x="111" y="840" type="line"/>
    </contour>
  </outline>
</glyph>
<glyph name="circumflexcomb_hookabovecomb" format="2">
  <anchor x="179" y="516" name="_top"/>
  <anchor x="179" y="848" name="top"/>
  <outline>
    <contour>
      <point x="40" y="571" type="line"/>
      <point x="82" y="571" type="line"/>
      <point x="179" y="680" type="line"/>
      <point x="276" y="571" type="line"/>
      <point x="319" y="571" type="line"/>
      <point x="202" y="707" type="line"/>
      <point x="156" y="707" type="line"/>
    </contour>
    <contour>
      <point x="291" y="671" type="line"/>
      <point x="350" y="703"/>
      <point x="372" y="738"/>
      <point x="372" y="776" type="curve" smooth="yes"/>
      <point x="372" y="819"/>
      <point x="338" y="848"/>
      <point x="287" y="848" type="curve" smooth="yes"/>
      <point x="270" y="848"/>
      <point x="253" y="846"/>
      <point x="235" y="840" type="curve"/>
      <point x="237" y="811" type="line"/>
      <point x="251" y="817"/>
      <point x="265" y="819"/>
      <point x="281" y="819" type="curve" smooth="yes"/>
      <point x="318" y="819"/>
      <point x="338" y="800"/>
      <point x="338" y="773" type="curve" smooth="yes"/>
      <point x="338" y="743"/>
      <point x="316" y="720"/>
      <point x="272" y="696" type="curve"/>
    </contour>
  </outline>
</glyph>
